SplineFontDB: 3.0
FontName: Asap-Italic
FullName: Asap-Italic
FamilyName: Asap
Weight: Regular
Copyright: Copyright (c) 2011-2013, Omnibus-Type (www.omnibus-type.com omnibus.type@gmail.com) with Reserved Font Name 'Asap'

StartChar: .notdef
Encoding: 65536 -1 0
Width: 515
Flags: MW
HStem: 0 50<65 405 65 480> 650 50<128 468 128 128>
VStem: -20 574
LayerCount: 2
Fore
SplineSet
54 700 m 1
 554 700 l 1
 480 0 l 1
 -20 0 l 1
 54 700 l 1
468 650 m 1
 128 650 l 1
 272 395 l 1
 468 650 l 1
405 50 m 1
 261 305 l 1
 65 50 l 1
 405 50 l 1
39 95 m 1
 237 350 l 1
 93 605 l 1
 39 95 l 1
439 95 m 1
 493 605 l 1
 297 350 l 1
 439 95 l 1
EndSplineSet
EndChar

StartChar: A
Encoding: 65 65 1
Width: 613
Flags: MW
HStem: -2 21G<4 18 18 23 503 513 513 521> 178 76<174 413 174 432 138 413> 610 92<332 332 332 334> 682 20G<328 357 357 367>
VStem: -23 588<12.5 16>
LayerCount: 2
Fore
SplineSet
357 702 m 2xd8
 377 702 393 698 396 686 c 2
 564 28 l 2
 565 24 565 21 565 18 c 0
 565 7 555 -2 521 -2 c 2
 513 -2 l 2
 493 -2 477 2 474 14 c 2
 432 178 l 1
 138 178 l 1
 64 14 l 2
 59 2 43 -2 23 -2 c 2
 18 -2 l 2
 -10 -2 -23 3 -23 14 c 0
 -23 18 -21 23 -18 29 c 2
 287 686 l 2
 292 698 307 702 328 702 c 2
 357 702 l 2xd8
332 610 m 1xe8
 326 591 319 570 311 552 c 2
 174 254 l 1
 413 254 l 1
 340 552 l 2
 335 571 334 591 334 610 c 1
 332 610 l 1xe8
EndSplineSet
Substitution2: "Single Substitution lookup 21 subtable" ordfeminine
Substitution2: "'aalt' Access All Alternates lookup 0 subtable" ordfeminine
Position2: "'cpsp' Capital Spacing lookup 3 subtable" dx=5 dy=0 dh=10 dv=0
EndChar

StartChar: Aacute
Encoding: 193 193 2
Width: 613
Flags: MW
HStem: -2 21G<4 18 18 23 503 513 513 521> 178 76<174 413 174 432 138 413> 610 92<332 332 332 334> 682 20G<328 357 357 367>
VStem: -23 588<12.5 16>
LayerCount: 2
Fore
SplineSet
438 909 m 0xd8
 469 909 485 906 485 897 c 0
 485 886 474 877 379 780 c 0
 367 768 346 762 326 762 c 0
 311 762 304 765 304 771 c 0
 304 780 316 800 373 883 c 0
 386 902 406 909 438 909 c 0xd8
357 702 m 2
 377 702 393 698 396 686 c 2
 564 28 l 2
 565 24 565 21 565 18 c 0
 565 7 555 -2 521 -2 c 2
 513 -2 l 2
 493 -2 477 2 474 14 c 2
 432 178 l 1
 138 178 l 1
 64 14 l 2
 59 2 43 -2 23 -2 c 2
 18 -2 l 2
 -10 -2 -23 3 -23 14 c 0
 -23 18 -21 23 -18 29 c 2
 287 686 l 2
 292 698 307 702 328 702 c 2
 357 702 l 2
332 610 m 1xe8
 326 591 319 570 311 552 c 2
 174 254 l 1
 413 254 l 1
 340 552 l 2
 335 571 334 591 334 610 c 1
 332 610 l 1xe8
EndSplineSet
Position2: "'cpsp' Capital Spacing lookup 3 subtable" dx=5 dy=0 dh=10 dv=0
EndChar

StartChar: Abreve
Encoding: 258 258 3
Width: 613
Flags: MW
HStem: -2 21G<4 18 18 23 503 513 513 521> 178 76<174 413 174 432 138 413> 610 92<332 332 332 334> 682 20G<328 357 357 367> 762 66<329.5 378 329.5 380.5>
VStem: -23 588<12.5 16>
LayerCount: 2
Fore
SplineSet
489 892 m 0xdc
 499 892 503 888 503 880 c 0
 503 801 414 762 347 762 c 0
 279 762 213 796 213 865 c 0
 213 882 215 892 230 892 c 0
 247 892 243 883 250 867 c 0
 262 839 305 828 354 828 c 0
 402 828 447 839 465 867 c 0
 475 883 471 892 489 892 c 0xdc
357 702 m 2
 377 702 393 698 396 686 c 2
 564 28 l 2
 565 24 565 21 565 18 c 0
 565 7 555 -2 521 -2 c 2
 513 -2 l 2
 493 -2 477 2 474 14 c 2
 432 178 l 1
 138 178 l 1
 64 14 l 2
 59 2 43 -2 23 -2 c 2
 18 -2 l 2
 -10 -2 -23 3 -23 14 c 0
 -23 18 -21 23 -18 29 c 2
 287 686 l 2
 292 698 307 702 328 702 c 2
 357 702 l 2
332 610 m 1xec
 326 591 319 570 311 552 c 2
 174 254 l 1
 413 254 l 1
 340 552 l 2
 335 571 334 591 334 610 c 1
 332 610 l 1xec
EndSplineSet
Position2: "'cpsp' Capital Spacing lookup 3 subtable" dx=5 dy=0 dh=10 dv=0
EndChar

StartChar: Abreveacute
Encoding: 7854 7854 4
Width: 613
Flags: MW
HStem: -2 21G<4 18 18 23 503 513 513 521> 178 76<174 413 174 432 138 413> 610 92<332 332 332 334> 682 20G<328 357 357 367> 761 53<328.5 377 328.5 379.5>
VStem: -23 588<12.5 16>
LayerCount: 2
Fore
SplineSet
357 702 m 2xdc
 377 702 393 698 396 686 c 2
 564 28 l 2
 565 24 565 21 565 18 c 0
 565 7 555 -2 521 -2 c 2
 513 -2 l 2
 493 -2 477 2 474 14 c 2
 432 178 l 1
 138 178 l 1
 64 14 l 2
 59 2 43 -2 23 -2 c 2
 18 -2 l 2
 -10 -2 -23 3 -23 14 c 0
 -23 18 -21 23 -18 29 c 2
 287 686 l 2
 292 698 307 702 328 702 c 2
 357 702 l 2xdc
332 610 m 1xec
 326 591 319 570 311 552 c 2
 174 254 l 1
 413 254 l 1
 340 552 l 2
 335 571 334 591 334 610 c 1
 332 610 l 1xec
445 989 m 0
 464 989 477 986 477 977 c 0
 477 972 466 959 385 870 c 0
 375 858 363 852 347 852 c 0
 332 852 325 855 325 861 c 0
 325 869 333 888 380 963 c 0
 390 979 413 989 445 989 c 0
488 883 m 0
 498 883 502 879 502 871 c 0
 502 800 413 761 346 761 c 0
 278 761 212 794 212 856 c 0
 212 873 214 883 229 883 c 0
 246 883 241 873 249 858 c 0
 260 836 304 814 353 814 c 0
 401 814 452 841 464 858 c 0
 475 873 470 883 488 883 c 0
EndSplineSet
Position2: "'cpsp' Capital Spacing lookup 3 subtable" dx=5 dy=0 dh=10 dv=0
EndChar

StartChar: Abrevedotbelow
Encoding: 7862 7862 5
Width: 613
Flags: MW
HStem: -175 95<255 273> -2 21G<4 18 18 23 503 513 513 521> 178 76<174 413 174 432 138 413> 610 92<332 332 332 334> 682 20G<328 357 357 367> 762 66<329.5 378 329.5 380.5>
VStem: 220 89<-160 -95>
LayerCount: 2
Fore
SplineSet
357 702 m 2x6e
 377 702 393 698 396 686 c 2
 564 28 l 2
 565 24 565 21 565 18 c 0
 565 7 555 -2 521 -2 c 2
 513 -2 l 2
 493 -2 477 2 474 14 c 2
 432 178 l 1
 138 178 l 1
 64 14 l 2
 59 2 43 -2 23 -2 c 2
 18 -2 l 2
 -10 -2 -23 3 -23 14 c 0
 -23 18 -21 23 -18 29 c 2
 287 686 l 2
 292 698 307 702 328 702 c 2
 357 702 l 2x6e
332 610 m 1xf6
 326 591 319 570 311 552 c 2
 174 254 l 1
 413 254 l 1
 340 552 l 2
 335 571 334 591 334 610 c 1
 332 610 l 1xf6
489 892 m 0
 499 892 503 888 503 880 c 0
 503 801 414 762 347 762 c 0
 279 762 213 796 213 865 c 0
 213 882 215 892 230 892 c 0
 247 892 243 883 250 867 c 0
 262 839 305 828 354 828 c 0
 402 828 447 839 465 867 c 0
 475 883 471 892 489 892 c 0
225 -102 m 2
 227 -89 239 -80 271 -80 c 0
 300 -80 309 -88 309 -102 c 1
 304 -153 l 2
 302 -166 288 -175 258 -175 c 0
 228 -175 220 -167 220 -153 c 1
 225 -102 l 2
EndSplineSet
Position2: "'cpsp' Capital Spacing lookup 3 subtable" dx=5 dy=0 dh=10 dv=0
EndChar

StartChar: Abrevegrave
Encoding: 7856 7856 6
Width: 613
Flags: MW
HStem: -2 21G<4 18 18 23 503 513 513 521> 178 76<174 413 174 432 138 413> 610 92<332 332 332 334> 682 20G<328 357 357 367> 761 53<328.5 377 328.5 379.5>
VStem: -23 588<12.5 16>
LayerCount: 2
Fore
SplineSet
357 702 m 2xdc
 377 702 393 698 396 686 c 2
 564 28 l 2
 565 24 565 21 565 18 c 0
 565 7 555 -2 521 -2 c 2
 513 -2 l 2
 493 -2 477 2 474 14 c 2
 432 178 l 1
 138 178 l 1
 64 14 l 2
 59 2 43 -2 23 -2 c 2
 18 -2 l 2
 -10 -2 -23 3 -23 14 c 0
 -23 18 -21 23 -18 29 c 2
 287 686 l 2
 292 698 307 702 328 702 c 2
 357 702 l 2xdc
332 610 m 1xec
 326 591 319 570 311 552 c 2
 174 254 l 1
 413 254 l 1
 340 552 l 2
 335 571 334 591 334 610 c 1
 332 610 l 1xec
319 992 m 0
 337 992 359 987 367 966 c 0
 398 891 404 870 404 861 c 0
 404 855 396 852 381 852 c 0
 365 852 352 858 345 870 c 0
 293 951 283 968 282 980 c 0
 282 989 291 992 319 992 c 0
488 883 m 0
 498 883 502 879 502 871 c 0
 502 800 413 761 346 761 c 0
 278 761 212 794 212 856 c 0
 212 873 214 883 229 883 c 0
 246 883 241 873 249 858 c 0
 260 836 304 814 353 814 c 0
 401 814 452 841 464 858 c 0
 475 873 470 883 488 883 c 0
EndSplineSet
Position2: "'cpsp' Capital Spacing lookup 3 subtable" dx=5 dy=0 dh=10 dv=0
EndChar

StartChar: Abrevehookabove
Encoding: 7858 7858 7
Width: 613
Flags: MW
HStem: -2 21G<4 18 18 23 503 513 513 521> 178 76<174 413 174 432 138 413> 610 92<332 332 332 334> 682 20G<328 357 357 367> 761 53<328.5 377 328.5 379.5> 959 48<349.5 364>
VStem: 388 58<925 941>
LayerCount: 2
Fore
SplineSet
357 702 m 2xde
 377 702 393 698 396 686 c 2
 564 28 l 2
 565 24 565 21 565 18 c 0
 565 7 555 -2 521 -2 c 2
 513 -2 l 2
 493 -2 477 2 474 14 c 2
 432 178 l 1
 138 178 l 1
 64 14 l 2
 59 2 43 -2 23 -2 c 2
 18 -2 l 2
 -10 -2 -23 3 -23 14 c 0
 -23 18 -21 23 -18 29 c 2
 287 686 l 2
 292 698 307 702 328 702 c 2
 357 702 l 2xde
332 610 m 1xee
 326 591 319 570 311 552 c 2
 174 254 l 1
 413 254 l 1
 340 552 l 2
 335 571 334 591 334 610 c 1
 332 610 l 1xee
388 932 m 0
 388 950 374 959 354 959 c 0
 323 959 311 946 306 946 c 0
 298 946 286 969 286 979 c 0
 286 992 332 1007 367 1007 c 0
 401 1007 446 991 446 939 c 0
 446 908 422 889 404 875 c 0
 389 863 366 853 360 853 c 0
 339 853 326 864 326 873 c 0
 326 881 336 886 353 895 c 0
 374 906 388 918 388 932 c 0
488 883 m 0
 498 883 502 879 502 871 c 0
 502 800 413 761 346 761 c 0
 278 761 212 794 212 856 c 0
 212 873 214 883 229 883 c 0
 246 883 241 873 249 858 c 0
 260 836 304 814 353 814 c 0
 401 814 452 841 464 858 c 0
 475 873 470 883 488 883 c 0
EndSplineSet
Position2: "'cpsp' Capital Spacing lookup 3 subtable" dx=5 dy=0 dh=10 dv=0
EndChar

StartChar: Abrevetilde
Encoding: 7860 7860 8
Width: 613
Flags: MW
HStem: -2 21G<4 18 18 23 503 513 513 521> 178 76<174 413 174 432 138 413> 610 92<332 332 332 334> 682 20G<328 357 357 367> 761 53<328.5 377 328.5 379.5> 903 64<422 435.5> 934 64<300.5 314>
VStem: -23 588<12.5 16>
LayerCount: 2
Fore
SplineSet
357 702 m 2xd9
 377 702 393 698 396 686 c 2
 564 28 l 2
 565 24 565 21 565 18 c 0
 565 7 555 -2 521 -2 c 2
 513 -2 l 2
 493 -2 477 2 474 14 c 2
 432 178 l 1
 138 178 l 1
 64 14 l 2
 59 2 43 -2 23 -2 c 2
 18 -2 l 2
 -10 -2 -23 3 -23 14 c 0
 -23 18 -21 23 -18 29 c 2
 287 686 l 2
 292 698 307 702 328 702 c 2
 357 702 l 2xd9
332 610 m 1xed
 326 591 319 570 311 552 c 2
 174 254 l 1
 413 254 l 1
 340 552 l 2
 335 571 334 591 334 610 c 1
 332 610 l 1xed
480 989 m 0
 486 993 491 996 497 996 c 0
 503 996 509 993 514 987 c 0
 520 980 523 973 523 967 c 0
 523 960 519 953 513 947 c 0
 486 922 454 903 417 903 c 0xdd
 382 903 364 911 348 919 c 0
 332 927 320 934 308 934 c 0
 288 934 275 924 259 915 c 0
 252 911 246 909 240 909 c 0
 232 909 226 913 221 921 c 0
 216 928 214 935 214 941 c 0
 214 948 217 953 222 957 c 0
 248 978 282 998 319 998 c 0xdb
 354 998 375 986 388 980 c 0
 403 973 416 967 428 967 c 0
 448 967 464 977 480 989 c 0
488 883 m 0xd9
 498 883 502 879 502 871 c 0
 502 800 413 761 346 761 c 0
 278 761 212 794 212 856 c 0
 212 873 214 883 229 883 c 0
 246 883 241 873 249 858 c 0
 260 836 304 814 353 814 c 0
 401 814 452 841 464 858 c 0
 475 873 470 883 488 883 c 0xd9
EndSplineSet
Position2: "'cpsp' Capital Spacing lookup 3 subtable" dx=5 dy=0 dh=10 dv=0
EndChar

StartChar: Acircumflex
Encoding: 194 194 9
Width: 613
Flags: MW
HStem: -2 21G<4 18 18 23 503 513 513 521> 178 76<174 413 174 432 138 413> 610 92<332 332 332 334> 682 20G<328 357 357 367> 753 142<235 367 242 367 342 435 342 437>
VStem: -23 588<12.5 16>
LayerCount: 2
Fore
SplineSet
367 895 m 2xdc
 386 895 403 888 411 873 c 2
 458 785 l 2
 462 779 463 773 463 768 c 0
 462 759 453 753 437 753 c 2
 435 753 l 2
 422 753 412 757 403 766 c 1
 348 840 l 1
 279 766 l 1
 268 757 258 753 244 753 c 2
 242 753 l 2
 228 753 221 757 221 765 c 0
 221 771 223 777 228 785 c 2
 294 873 l 2
 305 888 322 895 342 895 c 2
 367 895 l 2xdc
357 702 m 2
 377 702 393 698 396 686 c 2
 564 28 l 2
 565 24 565 21 565 18 c 0
 565 7 555 -2 521 -2 c 2
 513 -2 l 2
 493 -2 477 2 474 14 c 2
 432 178 l 1
 138 178 l 1
 64 14 l 2
 59 2 43 -2 23 -2 c 2
 18 -2 l 2
 -10 -2 -23 3 -23 14 c 0
 -23 18 -21 23 -18 29 c 2
 287 686 l 2
 292 698 307 702 328 702 c 2
 357 702 l 2
332 610 m 1xec
 326 591 319 570 311 552 c 2
 174 254 l 1
 413 254 l 1
 340 552 l 2
 335 571 334 591 334 610 c 1
 332 610 l 1xec
EndSplineSet
Position2: "'cpsp' Capital Spacing lookup 3 subtable" dx=5 dy=0 dh=10 dv=0
EndChar

StartChar: Acircumflexacute
Encoding: 7844 7844 10
Width: 613
Flags: MW
HStem: -2 21G<4 18 18 23 503 513 513 521> 178 76<174 413 174 432 138 413> 610 92<332 332 332 334> 682 20G<328 357 357 367>
VStem: -23 628
LayerCount: 2
Fore
SplineSet
357 702 m 2xd8
 377 702 393 698 396 686 c 2
 564 28 l 2
 565 24 565 21 565 18 c 0
 565 7 555 -2 521 -2 c 2
 513 -2 l 2
 493 -2 477 2 474 14 c 2
 432 178 l 1
 138 178 l 1
 64 14 l 2
 59 2 43 -2 23 -2 c 2
 18 -2 l 2
 -10 -2 -23 3 -23 14 c 0
 -23 18 -21 23 -18 29 c 2
 287 686 l 2
 292 698 307 702 328 702 c 2
 357 702 l 2xd8
332 610 m 1xe8
 326 591 319 570 311 552 c 2
 174 254 l 1
 413 254 l 1
 340 552 l 2
 335 571 334 591 334 610 c 1
 332 610 l 1xe8
573 961 m 0
 592 961 605 958 605 949 c 0
 605 944 594 931 513 842 c 0
 503 830 491 824 475 824 c 0
 460 824 453 827 453 833 c 0
 453 841 461 860 508 935 c 0
 518 951 541 961 573 961 c 0
375 895 m 2
 390 895 402 888 409 873 c 2
 451 785 l 1
 455 779 456 773 456 768 c 0
 455 759 446 753 430 753 c 2
 428 753 l 2
 415 753 402 755 396 766 c 2
 356 840 l 1
 287 766 l 1
 276 757 266 753 252 753 c 2
 250 753 l 2
 236 753 229 757 229 765 c 0
 229 771 231 777 236 785 c 2
 302 873 l 2
 313 888 330 895 350 895 c 2
 375 895 l 2
EndSplineSet
Position2: "'cpsp' Capital Spacing lookup 3 subtable" dx=5 dy=0 dh=10 dv=0
EndChar

StartChar: Acircumflexdotbelow
Encoding: 7852 7852 11
Width: 613
Flags: MW
HStem: -175 95<255 273> -2 21G<4 18 18 23 503 513 513 521> 178 76<174 413 174 432 138 413> 610 92<332 332 332 334> 682 20G<328 357 357 367> 753 142<235 367 242 367 342 435 342 437>
VStem: 220 89<-160 -95>
LayerCount: 2
Fore
SplineSet
357 702 m 2xee
 377 702 393 698 396 686 c 2
 564 28 l 2
 565 24 565 21 565 18 c 0
 565 7 555 -2 521 -2 c 2
 513 -2 l 2
 493 -2 477 2 474 14 c 2
 432 178 l 1
 138 178 l 1
 64 14 l 2
 59 2 43 -2 23 -2 c 2
 18 -2 l 2
 -10 -2 -23 3 -23 14 c 0
 -23 18 -21 23 -18 29 c 2
 287 686 l 2
 292 698 307 702 328 702 c 2
 357 702 l 2xee
332 610 m 1xf6
 326 591 319 570 311 552 c 2
 174 254 l 1
 413 254 l 1
 340 552 l 2
 335 571 334 591 334 610 c 1
 332 610 l 1xf6
367 895 m 2
 386 895 403 888 411 873 c 2
 458 785 l 2
 462 779 463 773 463 768 c 0
 462 759 453 753 437 753 c 2
 435 753 l 2
 422 753 412 757 403 766 c 1
 348 840 l 1
 279 766 l 1
 268 757 258 753 244 753 c 2
 242 753 l 2
 228 753 221 757 221 765 c 0
 221 771 223 777 228 785 c 2
 294 873 l 2
 305 888 322 895 342 895 c 2
 367 895 l 2
225 -102 m 2
 227 -89 239 -80 271 -80 c 0
 300 -80 309 -88 309 -102 c 1
 304 -153 l 2
 302 -166 288 -175 258 -175 c 0
 228 -175 220 -167 220 -153 c 1
 225 -102 l 2
EndSplineSet
Position2: "'cpsp' Capital Spacing lookup 3 subtable" dx=5 dy=0 dh=10 dv=0
EndChar

StartChar: Acircumflexgrave
Encoding: 7846 7846 12
Width: 613
Flags: MW
HStem: -2 21G<4 18 18 23 503 513 513 521> 178 76<174 413 174 432 138 413> 610 92<332 332 332 334> 682 20G<328 357 357 367>
VStem: -23 588<12.5 16>
LayerCount: 2
Fore
SplineSet
357 702 m 2xd8
 377 702 393 698 396 686 c 2
 564 28 l 2
 565 24 565 21 565 18 c 0
 565 7 555 -2 521 -2 c 2
 513 -2 l 2
 493 -2 477 2 474 14 c 2
 432 178 l 1
 138 178 l 1
 64 14 l 2
 59 2 43 -2 23 -2 c 2
 18 -2 l 2
 -10 -2 -23 3 -23 14 c 0
 -23 18 -21 23 -18 29 c 2
 287 686 l 2
 292 698 307 702 328 702 c 2
 357 702 l 2xd8
332 610 m 1xe8
 326 591 319 570 311 552 c 2
 174 254 l 1
 413 254 l 1
 340 552 l 2
 335 571 334 591 334 610 c 1
 332 610 l 1xe8
447 964 m 0
 465 964 487 959 495 938 c 0
 526 863 532 842 532 833 c 0
 532 827 524 824 509 824 c 0
 493 824 480 830 473 842 c 0
 421 923 411 940 410 952 c 0
 410 961 419 964 447 964 c 0
375 895 m 2
 390 895 402 888 409 873 c 2
 451 785 l 1
 455 779 456 773 456 768 c 0
 455 759 446 753 430 753 c 2
 428 753 l 2
 415 753 402 755 396 766 c 2
 356 840 l 1
 287 766 l 1
 276 757 266 753 252 753 c 2
 250 753 l 2
 236 753 229 757 229 765 c 0
 229 771 231 777 236 785 c 2
 302 873 l 2
 313 888 330 895 350 895 c 2
 375 895 l 2
EndSplineSet
Position2: "'cpsp' Capital Spacing lookup 3 subtable" dx=5 dy=0 dh=10 dv=0
EndChar

StartChar: Acircumflexhookabove
Encoding: 7848 7848 13
Width: 613
Flags: MW
HStem: -2 21G<4 18 18 23 503 513 513 521> 178 76<174 413 174 432 138 413> 610 92<332 332 332 334> 682 20G<328 357 357 367> 931 48<477.5 492>
VStem: 516 58<897 913>
LayerCount: 2
Fore
SplineSet
357 702 m 2xdc
 377 702 393 698 396 686 c 2
 564 28 l 2
 565 24 565 21 565 18 c 0
 565 7 555 -2 521 -2 c 2
 513 -2 l 2
 493 -2 477 2 474 14 c 2
 432 178 l 1
 138 178 l 1
 64 14 l 2
 59 2 43 -2 23 -2 c 2
 18 -2 l 2
 -10 -2 -23 3 -23 14 c 0
 -23 18 -21 23 -18 29 c 2
 287 686 l 2
 292 698 307 702 328 702 c 2
 357 702 l 2xdc
332 610 m 1xec
 326 591 319 570 311 552 c 2
 174 254 l 1
 413 254 l 1
 340 552 l 2
 335 571 334 591 334 610 c 1
 332 610 l 1xec
516 904 m 0
 516 922 502 931 482 931 c 0
 451 931 439 918 434 918 c 0
 426 918 414 941 414 951 c 0
 414 964 460 979 495 979 c 0
 529 979 574 963 574 911 c 0
 574 880 550 861 532 847 c 0
 517 835 494 825 488 825 c 0
 467 825 454 836 454 845 c 0
 454 853 464 858 481 867 c 0
 502 878 516 890 516 904 c 0
375 895 m 2
 390 895 402 888 409 873 c 2
 451 785 l 1
 455 779 456 773 456 768 c 0
 455 759 446 753 430 753 c 2
 428 753 l 2
 415 753 402 755 396 766 c 2
 356 840 l 1
 287 766 l 1
 276 757 266 753 252 753 c 2
 250 753 l 2
 236 753 229 757 229 765 c 0
 229 771 231 777 236 785 c 2
 302 873 l 2
 313 888 330 895 350 895 c 2
 375 895 l 2
EndSplineSet
Position2: "'cpsp' Capital Spacing lookup 3 subtable" dx=5 dy=0 dh=10 dv=0
EndChar

StartChar: Acircumflextilde
Encoding: 7850 7850 14
Width: 613
Flags: MW
HStem: -2 21G<4 18 18 23 503 513 513 521> 178 76<174 413 174 432 138 413> 610 92<332 332 332 334> 682 20G<328 357 357 367> 903 64<421 434.5> 934 64<299.5 313>
VStem: -23 588<12.5 16>
LayerCount: 2
Fore
SplineSet
357 702 m 2xd6
 377 702 393 698 396 686 c 2
 564 28 l 2
 565 24 565 21 565 18 c 0
 565 7 555 -2 521 -2 c 2
 513 -2 l 2
 493 -2 477 2 474 14 c 2
 432 178 l 1
 138 178 l 1
 64 14 l 2
 59 2 43 -2 23 -2 c 2
 18 -2 l 2
 -10 -2 -23 3 -23 14 c 0
 -23 18 -21 23 -18 29 c 2
 287 686 l 2
 292 698 307 702 328 702 c 2
 357 702 l 2xd6
332 610 m 1xea
 326 591 319 570 311 552 c 2
 174 254 l 1
 413 254 l 1
 340 552 l 2
 335 571 334 591 334 610 c 1
 332 610 l 1xea
479 989 m 0
 485 993 490 996 496 996 c 0
 502 996 508 993 513 987 c 0
 519 980 522 973 522 967 c 0
 522 960 518 953 512 947 c 0
 485 922 453 903 416 903 c 0xda
 381 903 363 911 347 919 c 0
 331 927 319 934 307 934 c 0
 287 934 274 924 258 915 c 0
 251 911 245 909 239 909 c 0
 231 909 225 913 220 921 c 0
 215 928 213 935 213 941 c 0
 213 948 216 953 221 957 c 0
 247 978 281 998 318 998 c 0xd6
 353 998 374 986 387 980 c 0
 402 973 415 967 427 967 c 0
 447 967 463 977 479 989 c 0
370 871 m 2
 389 871 403 861 414 849 c 1
 460 786 l 2
 464 780 465 774 465 769 c 0
 464 760 455 754 439 754 c 2
 437 754 l 2
 424 754 414 760 405 767 c 2
 351 816 l 1
 281 767 l 1
 269 760 260 754 246 754 c 2
 244 754 l 2
 230 754 223 758 223 766 c 0
 223 772 225 778 230 786 c 1
 297 849 l 1
 312 861 325 871 345 871 c 2
 370 871 l 2
EndSplineSet
Position2: "'cpsp' Capital Spacing lookup 3 subtable" dx=5 dy=0 dh=10 dv=0
EndChar

StartChar: Adieresis
Encoding: 196 196 15
Width: 613
Flags: MW
HStem: -2 21G<4 18 18 23 503 513 513 521> 178 76<174 413 174 432 138 413> 610 92<332 332 332 334> 682 20G<328 357 357 367> 784 95<271 289 415 433>
VStem: 236 89<799 864> 380 89<799 864>
LayerCount: 2
Fore
SplineSet
357 702 m 2xde
 377 702 393 698 396 686 c 2
 564 28 l 2
 565 24 565 21 565 18 c 0
 565 7 555 -2 521 -2 c 2
 513 -2 l 2
 493 -2 477 2 474 14 c 2
 432 178 l 1
 138 178 l 1
 64 14 l 2
 59 2 43 -2 23 -2 c 2
 18 -2 l 2
 -10 -2 -23 3 -23 14 c 0
 -23 18 -21 23 -18 29 c 2
 287 686 l 2
 292 698 307 702 328 702 c 2
 357 702 l 2xde
332 610 m 1xee
 326 591 319 570 311 552 c 2
 174 254 l 1
 413 254 l 1
 340 552 l 2
 335 571 334 591 334 610 c 1
 332 610 l 1xee
241 857 m 2
 243 870 255 879 287 879 c 0
 316 879 325 871 325 857 c 1
 320 806 l 2
 318 793 304 784 274 784 c 0
 244 784 236 792 236 806 c 1
 241 857 l 2
385 857 m 2
 386 870 399 879 431 879 c 0
 460 879 469 871 469 857 c 1
 464 806 l 2
 462 793 448 784 418 784 c 0
 388 784 380 792 380 806 c 1
 385 857 l 2
EndSplineSet
Position2: "'cpsp' Capital Spacing lookup 3 subtable" dx=5 dy=0 dh=10 dv=0
EndChar

StartChar: Adotbelow
Encoding: 7840 7840 16
Width: 613
Flags: MW
HStem: -175 95<255 273> -2 21G<4 18 18 23 503 513 513 521> 178 76<174 413 174 432 138 413> 610 92<332 332 332 334> 682 20G<328 357 357 367>
VStem: 220 89<-160 -95>
LayerCount: 2
Fore
SplineSet
357 702 m 2xec
 377 702 393 698 396 686 c 2
 564 28 l 2
 565 24 565 21 565 18 c 0
 565 7 555 -2 521 -2 c 2
 513 -2 l 2
 493 -2 477 2 474 14 c 2
 432 178 l 1
 138 178 l 1
 64 14 l 2
 59 2 43 -2 23 -2 c 2
 18 -2 l 2
 -10 -2 -23 3 -23 14 c 0
 -23 18 -21 23 -18 29 c 2
 287 686 l 2
 292 698 307 702 328 702 c 2
 357 702 l 2xec
332 610 m 1xf4
 326 591 319 570 311 552 c 2
 174 254 l 1
 413 254 l 1
 340 552 l 2
 335 571 334 591 334 610 c 1
 332 610 l 1xf4
225 -102 m 2
 227 -89 239 -80 271 -80 c 0
 300 -80 309 -88 309 -102 c 1
 304 -153 l 2
 302 -166 288 -175 258 -175 c 0
 228 -175 220 -167 220 -153 c 1
 225 -102 l 2
EndSplineSet
Position2: "'cpsp' Capital Spacing lookup 3 subtable" dx=5 dy=0 dh=10 dv=0
EndChar

StartChar: Agrave
Encoding: 192 192 17
Width: 613
Flags: MW
HStem: -2 21G<4 18 18 23 503 513 513 521> 178 76<174 413 174 432 138 413> 610 92<332 332 332 334> 682 20G<328 357 357 367>
VStem: -23 588<12.5 16>
LayerCount: 2
Fore
SplineSet
271 909 m 0xd8
 303 909 322 902 333 883 c 0
 382 799 391 780 391 771 c 0
 391 765 383 762 368 762 c 0
 348 762 327 768 317 780 c 0
 232 877 223 885 223 897 c 1
 224 906 240 909 271 909 c 0xd8
357 702 m 2
 377 702 393 698 396 686 c 2
 564 28 l 2
 565 24 565 21 565 18 c 0
 565 7 555 -2 521 -2 c 2
 513 -2 l 2
 493 -2 477 2 474 14 c 2
 432 178 l 1
 138 178 l 1
 64 14 l 2
 59 2 43 -2 23 -2 c 2
 18 -2 l 2
 -10 -2 -23 3 -23 14 c 0
 -23 18 -21 23 -18 29 c 2
 287 686 l 2
 292 698 307 702 328 702 c 2
 357 702 l 2
332 610 m 1xe8
 326 591 319 570 311 552 c 2
 174 254 l 1
 413 254 l 1
 340 552 l 2
 335 571 334 591 334 610 c 1
 332 610 l 1xe8
EndSplineSet
Position2: "'cpsp' Capital Spacing lookup 3 subtable" dx=5 dy=0 dh=10 dv=0
EndChar

StartChar: Ahookabove
Encoding: 7842 7842 18
Width: 613
Flags: MW
HStem: -2 21G<4 18 18 23 503 513 513 521> 178 76<174 413 174 432 138 413> 610 92<332 332 332 334> 682 20G<328 357 357 367> 876 51<347.5 362>
VStem: 386 66<825 859>
LayerCount: 2
Fore
SplineSet
386 851 m 0xdc
 386 867 372 876 352 876 c 0
 321 876 309 863 304 863 c 0
 296 863 284 886 284 896 c 0
 284 909 330 927 365 927 c 0
 399 927 452 911 452 857 c 0
 452 787 363 740 353 740 c 0
 332 740 314 748 314 757 c 0
 314 784 386 799 386 851 c 0xdc
357 702 m 2
 377 702 393 698 396 686 c 2
 564 28 l 2
 565 24 565 21 565 18 c 0
 565 7 555 -2 521 -2 c 2
 513 -2 l 2
 493 -2 477 2 474 14 c 2
 432 178 l 1
 138 178 l 1
 64 14 l 2
 59 2 43 -2 23 -2 c 2
 18 -2 l 2
 -10 -2 -23 3 -23 14 c 0
 -23 18 -21 23 -18 29 c 2
 287 686 l 2
 292 698 307 702 328 702 c 2
 357 702 l 2
332 610 m 1xec
 326 591 319 570 311 552 c 2
 174 254 l 1
 413 254 l 1
 340 552 l 2
 335 571 334 591 334 610 c 1
 332 610 l 1xec
EndSplineSet
Position2: "'cpsp' Capital Spacing lookup 3 subtable" dx=5 dy=0 dh=10 dv=0
EndChar

StartChar: Amacron
Encoding: 256 256 19
Width: 613
Flags: MW
HStem: -2 21G<4 18 18 23 503 513 513 521> 178 76<174 413 174 432 138 413> 610 92<332 332 332 334> 682 20G<328 357 357 367> 789 71<218 459 233 451>
VStem: -23 588<12.5 16>
LayerCount: 2
Fore
SplineSet
459 860 m 2xdc
 473 860 476 850 476 834 c 0
 476 823 475 789 451 789 c 2
 225 789 l 2
 211 789 208 800 208 816 c 0
 208 827 209 860 233 860 c 2
 459 860 l 2xdc
357 702 m 2
 377 702 393 698 396 686 c 2
 564 28 l 2
 565 24 565 21 565 18 c 0
 565 7 555 -2 521 -2 c 2
 513 -2 l 2
 493 -2 477 2 474 14 c 2
 432 178 l 1
 138 178 l 1
 64 14 l 2
 59 2 43 -2 23 -2 c 2
 18 -2 l 2
 -10 -2 -23 3 -23 14 c 0
 -23 18 -21 23 -18 29 c 2
 287 686 l 2
 292 698 307 702 328 702 c 2
 357 702 l 2
332 610 m 1xec
 326 591 319 570 311 552 c 2
 174 254 l 1
 413 254 l 1
 340 552 l 2
 335 571 334 591 334 610 c 1
 332 610 l 1xec
EndSplineSet
Position2: "'cpsp' Capital Spacing lookup 3 subtable" dx=5 dy=0 dh=10 dv=0
EndChar

StartChar: Aogonek
Encoding: 260 260 20
Width: 613
Flags: MW
HStem: -183 70<567 580.5> -2 21G<4 18 18 23> -1 21G 178 76<174 413 174 432 138 413> 610 92<332 334 332 332> 682 20G<328 357 357 367>
VStem: 451 69<-90 -85>
LayerCount: 2
Fore
SplineSet
564 28 m 2xb6
 565 24 565 21 565 18 c 0
 565 9 559 2 539 -1 c 1xb6
 537 -17 520 -44 520 -70 c 0
 520 -110 556 -113 578 -113 c 0
 609 -113 633 -95 642 -95 c 0
 646 -95 648 -99 648 -108 c 0
 648 -173 602 -183 559 -183 c 0
 465 -183 451 -127 451 -94 c 0
 451 -76 459 -23 488 1 c 1
 481 4 476 8 474 14 c 2
 432 178 l 1
 138 178 l 1
 64 14 l 2
 59 2 43 -2 23 -2 c 2
 18 -2 l 2
 -10 -2 -23 3 -23 14 c 0
 -23 18 -21 23 -18 29 c 2xd6
 287 686 l 2
 292 698 307 702 328 702 c 2
 357 702 l 2
 377 702 393 698 396 686 c 2
 564 28 l 2xb6
413 254 m 1
 340 552 l 2
 335 571 334 591 334 610 c 1
 332 610 l 1
 326 591 319 570 311 552 c 2xba
 174 254 l 1
 413 254 l 1
EndSplineSet
Position2: "'cpsp' Capital Spacing lookup 3 subtable" dx=5 dy=0 dh=10 dv=0
EndChar

StartChar: Aring
Encoding: 197 197 21
Width: 613
Flags: MW
HStem: -2 21G<4 18 18 23 503 513 513 521> 178 76<174 413 174 432 138 413> 610 92<332 332 332 334> 682 20G<328 357 357 367> 741 35<323.5 352.5 323.5 359> 875 35<333.5 361>
VStem: 258 35<808 836 808 842.5> 392 35<815.5 843.5>
LayerCount: 2
Fore
SplineSet
351 910 m 0xdf
 395 910 427 877 427 834 c 0
 427 783 384 741 334 741 c 0
 289 741 258 774 258 817 c 0
 258 868 302 910 351 910 c 0xdf
348 875 m 0
 319 875 293 851 293 821 c 0
 293 795 310 776 337 776 c 0
 368 776 392 800 392 831 c 0
 392 856 374 875 348 875 c 0
357 702 m 2
 377 702 393 698 396 686 c 2
 564 28 l 2
 565 24 565 21 565 18 c 0
 565 7 555 -2 521 -2 c 2
 513 -2 l 2
 493 -2 477 2 474 14 c 2
 432 178 l 1
 138 178 l 1
 64 14 l 2
 59 2 43 -2 23 -2 c 2
 18 -2 l 2
 -10 -2 -23 3 -23 14 c 0
 -23 18 -21 23 -18 29 c 2
 287 686 l 2
 292 698 307 702 328 702 c 2
 357 702 l 2
332 610 m 1xef
 326 591 319 570 311 552 c 2
 174 254 l 1
 413 254 l 1
 340 552 l 2
 335 571 334 591 334 610 c 1
 332 610 l 1xef
EndSplineSet
Position2: "'cpsp' Capital Spacing lookup 3 subtable" dx=5 dy=0 dh=10 dv=0
EndChar

StartChar: Aringacute
Encoding: 506 506 22
Width: 613
Flags: MW
HStem: -2 21G<4 18 18 23 503 513 513 521> 178 76<174 413 174 432 138 413> 758 35<338.5 366> 822 107<345 457>
VStem: 263 35<692.5 719 691 725.5> 397 35<704.5 726.5>
LayerCount: 2
Fore
SplineSet
564 28 m 2
 565 24 565 21 565 18 c 0
 565 7 555 -2 521 -2 c 2
 513 -2 l 2
 493 -2 477 2 474 14 c 2
 432 178 l 1
 138 178 l 1
 64 14 l 2
 59 2 43 -2 23 -2 c 2
 18 -2 l 2
 -10 -2 -23 3 -23 14 c 0
 -23 18 -21 23 -18 29 c 2
 274 659 l 1
 267 670 263 685 263 700 c 0
 263 751 307 793 356 793 c 0
 400 793 432 760 432 717 c 0
 432 692 421 669 405 652 c 1
 564 28 l 2
353 758 m 0
 324 758 298 734 298 704 c 0
 298 678 315 659 342 659 c 0
 373 659 397 683 397 714 c 0
 397 739 379 758 353 758 c 0
413 254 m 1
 340 552 l 2
 335 571 334 591 334 610 c 1
 332 610 l 1
 326 591 319 570 311 552 c 2
 174 254 l 1
 413 254 l 1
353 822 m 0xfc
 337 822 331 825 331 832 c 1
 353 868 362 881 376 903 c 0
 389 923 409 929 441 929 c 0
 473 929 488 926 487 916 c 0
 487 909 477 904 406 840 c 0
 394 828 374 822 353 822 c 0xfc
EndSplineSet
Position2: "'cpsp' Capital Spacing lookup 3 subtable" dx=5 dy=0 dh=10 dv=0
EndChar

StartChar: Atilde
Encoding: 195 195 23
Width: 613
Flags: MW
HStem: -2 21G<4 18 18 23 503 513 513 521> 178 76<174 413 174 432 138 413> 610 92<332 332 332 334> 682 20G<328 357 357 367> 762 64<420 434.5> 793 64<286.5 301.5>
VStem: -23 588<12.5 16>
LayerCount: 2
Fore
SplineSet
484 848 m 0xda
 490 852 496 855 502 855 c 0
 509 855 515 852 521 846 c 0
 528 839 531 832 531 826 c 0
 531 819 527 812 520 806 c 0
 490 781 455 762 414 762 c 0xda
 376 762 356 770 339 778 c 0
 321 786 308 793 295 793 c 0
 273 793 258 783 241 774 c 0
 233 770 226 768 220 768 c 0
 212 768 205 772 199 780 c 0
 194 787 191 794 191 800 c 0
 191 807 195 812 200 816 c 0
 229 837 266 857 307 857 c 0xd6
 345 857 368 845 383 839 c 0
 399 832 413 826 427 826 c 0
 449 826 466 836 484 848 c 0xda
357 702 m 2xd6
 377 702 393 698 396 686 c 2
 564 28 l 2
 565 24 565 21 565 18 c 0
 565 7 555 -2 521 -2 c 2
 513 -2 l 2
 493 -2 477 2 474 14 c 2
 432 178 l 1
 138 178 l 1
 64 14 l 2
 59 2 43 -2 23 -2 c 2
 18 -2 l 2
 -10 -2 -23 3 -23 14 c 0
 -23 18 -21 23 -18 29 c 2
 287 686 l 2
 292 698 307 702 328 702 c 2
 357 702 l 2xd6
332 610 m 1xe6
 326 591 319 570 311 552 c 2
 174 254 l 1
 413 254 l 1
 340 552 l 2
 335 571 334 591 334 610 c 1
 332 610 l 1xe6
EndSplineSet
Position2: "'cpsp' Capital Spacing lookup 3 subtable" dx=5 dy=0 dh=10 dv=0
EndChar

StartChar: AE
Encoding: 198 198 24
Width: 915
Flags: MW
HStem: 0 76<467.5 778 530 770> 178 75<180 419 180 429 134 419> 320 76<502 771 502 502> 624 76<468 834 468 468>
VStem: -47 906<8 685.5>
LayerCount: 2
Fore
SplineSet
842 700 m 2
 854 700 859 693 859 678 c 0
 859 655 859 624 834 624 c 2
 468 624 l 1
 494 396 l 1
 779 396 l 2
 791 396 796 389 796 374 c 0
 796 351 796 320 771 320 c 2
 502 320 l 1
 530 76 l 1
 778 76 l 2
 790 76 795 69 795 54 c 0
 795 31 795 0 770 0 c 2
 478 0 l 2
 457 0 447 9 445 29 c 2
 429 178 l 1
 134 178 l 1
 37 14 l 2
 30 3 14 -2 -4 -2 c 2
 -9 -2 l 2
 -38 -2 -47 3 -47 13 c 0
 -47 17 -45 24 -41 31 c 2
 347 673 l 2
 358 692 371 700 392 700 c 2
 842 700 l 2
387 610 m 1
 360 552 l 1
 180 253 l 1
 419 253 l 1
 389 552 l 1
 389 610 l 1
 387 610 l 1
EndSplineSet
Position2: "'cpsp' Capital Spacing lookup 3 subtable" dx=5 dy=0 dh=10 dv=0
EndChar

StartChar: AEacute
Encoding: 508 508 25
Width: 915
Flags: MW
HStem: 0 76<467.5 778 530 770> 178 75<180 419 180 429 134 419> 320 76<502 771 502 502> 624 76<468 834 468 468>
VStem: -47 906<8 685.5>
LayerCount: 2
Fore
SplineSet
554 909 m 0
 585 909 601 906 601 897 c 0
 601 886 590 877 495 780 c 0
 483 768 462 762 442 762 c 0
 427 762 420 765 420 771 c 0
 420 780 432 800 489 883 c 0
 502 902 522 909 554 909 c 0
842 700 m 2
 854 700 859 693 859 678 c 0
 859 655 859 624 834 624 c 2
 468 624 l 1
 494 396 l 1
 779 396 l 2
 791 396 796 389 796 374 c 0
 796 351 796 320 771 320 c 2
 502 320 l 1
 530 76 l 1
 778 76 l 2
 790 76 795 69 795 54 c 0
 795 31 795 0 770 0 c 2
 478 0 l 2
 457 0 447 9 445 29 c 2
 429 178 l 1
 134 178 l 1
 37 14 l 2
 30 3 14 -2 -4 -2 c 2
 -9 -2 l 2
 -38 -2 -47 3 -47 13 c 0
 -47 17 -45 24 -41 31 c 2
 347 673 l 2
 358 692 371 700 392 700 c 2
 842 700 l 2
360 552 m 1
 180 253 l 1
 419 253 l 1
 389 552 l 1
 389 610 l 1
 387 610 l 1
 360 552 l 1
EndSplineSet
Position2: "'cpsp' Capital Spacing lookup 3 subtable" dx=5 dy=0 dh=10 dv=0
EndChar

StartChar: B
Encoding: 66 66 26
Width: 593
Flags: MW
HStem: 0 76<68.5 295 144 255> 322 76<170 299 178 299 299 304> 624 76<201 201 201 318>
VStem: 450 91<176 252> 453 92<506.5 563>
LayerCount: 2
Fore
SplineSet
335 700 m 2xe8
 474 700 545 637 545 544 c 0xe8
 545 469 483 389 415 371 c 1
 414 367 l 1
 414 367 541 336 541 219 c 0xf0
 541 67 424 0 255 0 c 2
 78 0 l 2
 59 0 51 7 51 24 c 0
 51 26 51 28 118 670 c 0
 120 691 130 700 151 700 c 2
 335 700 l 2xe8
201 624 m 1
 178 398 l 1
 299 398 l 2
 389 398 453 459 453 532 c 0
 453 594 410 624 318 624 c 2
 201 624 l 1
170 322 m 1
 144 76 l 1
 295 76 l 2
 388 76 450 132 450 220 c 0xf0
 450 284 400 322 304 322 c 2
 170 322 l 1
EndSplineSet
Position2: "'cpsp' Capital Spacing lookup 3 subtable" dx=5 dy=0 dh=10 dv=0
EndChar

StartChar: C
Encoding: 67 67 27
Width: 619
Flags: MW
HStem: -6 76<264.5 366.5> 630 76<296 440>
VStem: 38 90<212 383.5 212 387.5>
LayerCount: 2
Fore
SplineSet
407 706 m 0
 504 706 590 672 590 645 c 0
 590 629 563 586 550 586 c 0
 539 586 488 630 392 630 c 0
 200 630 128 481 128 286 c 0
 128 138 195 70 334 70 c 0
 443 70 510 118 519 118 c 0
 521 118 526 118 526 107 c 0
 526 103 523 70 519 52 c 0
 511 14 407 -6 326 -6 c 0
 131 -6 38 83 38 274 c 0
 38 501 125 706 407 706 c 0
EndSplineSet
Position2: "'cpsp' Capital Spacing lookup 3 subtable" dx=5 dy=0 dh=10 dv=0
EndChar

StartChar: Cacute
Encoding: 262 262 28
Width: 619
Flags: MW
HStem: -6 76<264.5 366.5> 630 76<296 440>
VStem: 38 90<212 383.5 212 387.5>
LayerCount: 2
Fore
SplineSet
485 909 m 0
 516 909 532 906 532 897 c 0
 532 886 521 877 426 780 c 0
 414 768 393 762 373 762 c 0
 358 762 351 765 351 771 c 0
 351 780 363 800 420 883 c 0
 433 902 453 909 485 909 c 0
407 706 m 0
 504 706 590 672 590 645 c 0
 590 629 563 586 550 586 c 0
 539 586 488 630 392 630 c 0
 200 630 128 481 128 286 c 0
 128 138 195 70 334 70 c 0
 443 70 510 118 519 118 c 0
 521 118 526 118 526 107 c 0
 526 103 523 70 519 52 c 0
 511 14 407 -6 326 -6 c 0
 131 -6 38 83 38 274 c 0
 38 501 125 706 407 706 c 0
EndSplineSet
Substitution2: "'locl' Localized Forms in Latin lookup 12 subtable" Cacute.loclPLK
Substitution2: "'aalt' Access All Alternates lookup 0 subtable" Cacute.loclPLK
Position2: "'cpsp' Capital Spacing lookup 3 subtable" dx=5 dy=0 dh=10 dv=0
EndChar

StartChar: Ccaron
Encoding: 268 268 29
Width: 619
Flags: MW
HStem: -6 76<264.5 366.5> 630 76<296 440> 759 142<312 382 312 407>
VStem: 38 90<212 383.5 212 387.5>
LayerCount: 2
Fore
SplineSet
507 901 m 2
 522 901 529 896 529 887 c 0
 529 882 527 876 522 869 c 2
 455 781 l 2
 444 766 427 759 407 759 c 2
 382 759 l 2
 363 759 346 766 338 781 c 2
 292 869 l 2
 288 876 287 882 287 887 c 0
 288 896 297 901 312 901 c 2
 314 901 l 2
 328 901 338 897 347 888 c 1
 400 814 l 1
 471 888 l 1
 482 897 492 901 505 901 c 2
 507 901 l 2
407 706 m 0
 504 706 590 672 590 645 c 0
 590 629 563 586 550 586 c 0
 539 586 488 630 392 630 c 0
 200 630 128 481 128 286 c 0
 128 138 195 70 334 70 c 0
 443 70 510 118 519 118 c 0
 521 118 526 118 526 107 c 0
 526 103 523 70 519 52 c 0
 511 14 407 -6 326 -6 c 0
 131 -6 38 83 38 274 c 0
 38 501 125 706 407 706 c 0
EndSplineSet
Position2: "'cpsp' Capital Spacing lookup 3 subtable" dx=5 dy=0 dh=10 dv=0
EndChar

StartChar: Ccedilla
Encoding: 199 199 30
Width: 619
Flags: MW
HStem: -210 49<257 274.5 238.5 293.5> -6 76<330 330> -5 75 630 76<296 440>
VStem: 38 90<212 383.5 212 387.5> 322 72<-139 -102>
LayerCount: 2
Fore
SplineSet
316 -49 m 2xdc
 337 -49 394 -55 394 -111 c 0
 394 -198 318 -210 269 -210 c 0
 245 -210 172 -205 172 -169 c 0
 172 -136 179 -136 184 -136 c 0
 188 -136 215 -161 262 -161 c 0
 287 -161 322 -157 322 -121 c 0
 322 -83 262 -94 262 -69 c 1
 262 -69 268 -52 287 -5 c 1xbc
 119 7 38 96 38 274 c 0
 38 501 125 706 407 706 c 0
 504 706 590 672 590 645 c 0
 590 629 563 586 550 586 c 0
 539 586 488 630 392 630 c 0
 200 630 128 481 128 286 c 0
 128 138 195 70 334 70 c 0
 443 70 510 118 519 118 c 0
 521 118 526 118 526 107 c 0
 526 103 523 70 519 52 c 0
 511 15 410 -5 330 -6 c 1
 312 -49 l 1
 316 -49 l 2xdc
EndSplineSet
Position2: "'cpsp' Capital Spacing lookup 3 subtable" dx=5 dy=0 dh=10 dv=0
EndChar

StartChar: Ccircumflex
Encoding: 264 264 31
Width: 619
Flags: MW
HStem: -6 76<264.5 366.5> 630 76<296 440> 753 142<282 414 289 414 389 482 389 484>
VStem: 38 90<212 383.5 212 387.5>
LayerCount: 2
Fore
SplineSet
414 895 m 2
 433 895 450 888 458 873 c 2
 505 785 l 2
 509 779 510 773 510 768 c 0
 509 759 500 753 484 753 c 2
 482 753 l 2
 469 753 459 757 450 766 c 1
 395 840 l 1
 326 766 l 1
 315 757 305 753 291 753 c 2
 289 753 l 2
 275 753 268 757 268 765 c 0
 268 771 270 777 275 785 c 2
 341 873 l 2
 352 888 369 895 389 895 c 2
 414 895 l 2
407 706 m 0
 504 706 590 672 590 645 c 0
 590 629 563 586 550 586 c 0
 539 586 488 630 392 630 c 0
 200 630 128 481 128 286 c 0
 128 138 195 70 334 70 c 0
 443 70 510 118 519 118 c 0
 521 118 526 118 526 107 c 0
 526 103 523 70 519 52 c 0
 511 14 407 -6 326 -6 c 0
 131 -6 38 83 38 274 c 0
 38 501 125 706 407 706 c 0
EndSplineSet
Position2: "'cpsp' Capital Spacing lookup 3 subtable" dx=5 dy=0 dh=10 dv=0
EndChar

StartChar: Cdotaccent
Encoding: 266 266 32
Width: 619
Flags: MW
HStem: -6 76<264.5 366.5> 630 76<296 440> 784 95<390 408>
VStem: 38 90<212 383.5 212 387.5> 355 89<799 864>
LayerCount: 2
Fore
SplineSet
360 857 m 2
 362 870 374 879 406 879 c 0
 435 879 444 871 444 857 c 1
 439 806 l 2
 437 793 423 784 393 784 c 0
 363 784 355 792 355 806 c 1
 360 857 l 2
407 706 m 0
 504 706 590 672 590 645 c 0
 590 629 563 586 550 586 c 0
 539 586 488 630 392 630 c 0
 200 630 128 481 128 286 c 0
 128 138 195 70 334 70 c 0
 443 70 510 118 519 118 c 0
 521 118 526 118 526 107 c 0
 526 103 523 70 519 52 c 0
 511 14 407 -6 326 -6 c 0
 131 -6 38 83 38 274 c 0
 38 501 125 706 407 706 c 0
EndSplineSet
Position2: "'cpsp' Capital Spacing lookup 3 subtable" dx=5 dy=0 dh=10 dv=0
EndChar

StartChar: D
Encoding: 68 68 33
Width: 695
Flags: MW
HStem: 0 76<67.5 293 143 292> 624 76<200 200 200 350>
VStem: 552 91<282 484>
LayerCount: 2
Fore
SplineSet
365 700 m 2
 522 700 643 624 643 415 c 0
 643 105 471 0 292 0 c 2
 77 0 l 2
 58 0 50 7 50 24 c 0
 50 37 95 455 117 670 c 0
 119 691 129 700 150 700 c 2
 365 700 l 2
200 624 m 1
 143 76 l 1
 293 76 l 2
 423 76 552 163 552 401 c 0
 552 567 464 624 350 624 c 2
 200 624 l 1
EndSplineSet
Position2: "'cpsp' Capital Spacing lookup 3 subtable" dx=5 dy=0 dh=10 dv=0
EndChar

StartChar: DZ
Encoding: 497 497 34
Width: 1311
Flags: MW
HStem: 0 76<67.5 293 143 292 824 1208> 624 76<200 350 200 200 821 1174>
VStem: 552 91<282 484>
LayerCount: 2
Fore
SplineSet
365 700 m 2
 522 700 643 624 643 415 c 0
 643 105 471 0 292 0 c 2
 77 0 l 2
 58 0 50 7 50 24 c 0
 50 37 95 455 117 670 c 0
 119 691 129 700 150 700 c 2
 365 700 l 2
1280 700 m 2
 1286 700 1297 673 1297 652 c 0
 1297 645 1296 639 1292 635 c 2
 824 76 l 1
 1216 76 l 2
 1228 76 1233 69 1233 54 c 0
 1233 31 1233 0 1208 0 c 2
 720 0 l 2
 711 0 701 28 701 48 c 0
 701 54 702 61 706 65 c 2
 1174 624 l 1
 813 624 l 2
 801 624 796 631 796 646 c 0
 796 669 796 700 821 700 c 2
 1280 700 l 2
143 76 m 1
 293 76 l 2
 423 76 552 163 552 401 c 0
 552 567 464 624 350 624 c 2
 200 624 l 1
 143 76 l 1
EndSplineSet
Position2: "'cpsp' Capital Spacing lookup 3 subtable" dx=5 dy=0 dh=10 dv=0
EndChar

StartChar: DZcaron
Encoding: 452 452 35
Width: 1311
Flags: MW
HStem: 0 76<67.5 293 143 292 824 1208> 624 76<200 350 200 200 821 1174> 759 142<956 1026 956 1051>
VStem: 552 91<282 484>
LayerCount: 2
Fore
SplineSet
365 700 m 2
 522 700 643 624 643 415 c 0
 643 105 471 0 292 0 c 2
 77 0 l 2
 58 0 50 7 50 24 c 0
 50 37 95 455 117 670 c 0
 119 691 129 700 150 700 c 2
 365 700 l 2
143 76 m 1
 293 76 l 2
 423 76 552 163 552 401 c 0
 552 567 464 624 350 624 c 2
 200 624 l 1
 143 76 l 1
1151 901 m 2
 1166 901 1173 896 1173 887 c 0
 1173 882 1171 876 1166 869 c 2
 1099 781 l 2
 1088 766 1071 759 1051 759 c 2
 1026 759 l 2
 1007 759 990 766 982 781 c 2
 936 869 l 2
 932 876 931 882 931 887 c 0
 932 896 941 901 956 901 c 2
 958 901 l 2
 972 901 982 897 991 888 c 1
 1044 814 l 1
 1115 888 l 1
 1126 897 1136 901 1149 901 c 2
 1151 901 l 2
1280 700 m 2
 1286 700 1297 673 1297 652 c 0
 1297 645 1296 639 1292 635 c 2
 824 76 l 1
 1216 76 l 2
 1228 76 1233 69 1233 54 c 0
 1233 31 1233 0 1208 0 c 2
 720 0 l 2
 711 0 701 28 701 48 c 0
 701 54 702 61 706 65 c 2
 1174 624 l 1
 813 624 l 2
 801 624 796 631 796 646 c 0
 796 669 796 700 821 700 c 2
 1280 700 l 2
EndSplineSet
Position2: "'cpsp' Capital Spacing lookup 3 subtable" dx=5 dy=0 dh=10 dv=0
EndChar

StartChar: Eth
Encoding: 208 208 36
Width: 696
Flags: MW
HStem: 0 76<67.5 293 143 292> 320 76<10 88 24 80 176 280> 624 76<200 350 200 200>
VStem: 552 91<282 484>
LayerCount: 2
Fore
SplineSet
365 700 m 2
 522 700 643 624 643 415 c 0
 643 105 471 0 292 0 c 2
 77 0 l 2
 58 0 50 7 50 24 c 0
 50 31 64 166 80 320 c 1
 16 320 l 2
 4 320 -1 327 -1 342 c 0
 -1 365 -1 396 24 396 c 2
 88 396 l 1
 117 670 l 2
 119 691 129 700 150 700 c 2
 365 700 l 2
293 76 m 2
 423 76 552 163 552 401 c 0
 552 567 464 624 350 624 c 2
 200 624 l 1
 176 396 l 1
 288 396 l 2
 300 396 305 389 305 374 c 0
 305 351 305 320 280 320 c 2
 168 320 l 1
 143 76 l 1
 293 76 l 2
EndSplineSet
Position2: "'cpsp' Capital Spacing lookup 3 subtable" dx=5 dy=0 dh=10 dv=0
EndChar

StartChar: Dcaron
Encoding: 270 270 37
Width: 695
Flags: MW
HStem: 0 76<67.5 293 143 292> 624 76<200 350 200 200> 759 142<271 341 271 366>
VStem: 552 91<282 484>
LayerCount: 2
Fore
SplineSet
466 901 m 2
 481 901 488 896 488 887 c 0
 488 882 486 876 481 869 c 2
 414 781 l 2
 403 766 386 759 366 759 c 2
 341 759 l 2
 322 759 305 766 297 781 c 2
 251 869 l 2
 247 876 246 882 246 887 c 0
 247 896 256 901 271 901 c 2
 273 901 l 2
 287 901 297 897 306 888 c 1
 359 814 l 1
 430 888 l 1
 441 897 451 901 464 901 c 2
 466 901 l 2
365 700 m 2
 522 700 643 624 643 415 c 0
 643 105 471 0 292 0 c 2
 77 0 l 2
 58 0 50 7 50 24 c 0
 50 37 95 455 117 670 c 0
 119 691 129 700 150 700 c 2
 365 700 l 2
143 76 m 1
 293 76 l 2
 423 76 552 163 552 401 c 0
 552 567 464 624 350 624 c 2
 200 624 l 1
 143 76 l 1
EndSplineSet
Position2: "'cpsp' Capital Spacing lookup 3 subtable" dx=5 dy=0 dh=10 dv=0
EndChar

StartChar: Dcroat
Encoding: 272 272 38
Width: 696
Flags: MW
HStem: 0 76<67.5 293 143 292> 320 76<10 88 24 80 176 280> 624 76<200 350 200 200>
VStem: 552 91<282 484>
LayerCount: 2
Fore
SplineSet
365 700 m 2
 522 700 643 624 643 415 c 0
 643 105 471 0 292 0 c 2
 77 0 l 2
 58 0 50 7 50 24 c 0
 50 31 64 166 80 320 c 1
 16 320 l 2
 4 320 -1 327 -1 342 c 0
 -1 365 -1 396 24 396 c 2
 88 396 l 1
 117 670 l 2
 119 691 129 700 150 700 c 2
 365 700 l 2
293 76 m 2
 423 76 552 163 552 401 c 0
 552 567 464 624 350 624 c 2
 200 624 l 1
 176 396 l 1
 288 396 l 2
 300 396 305 389 305 374 c 0
 305 351 305 320 280 320 c 2
 168 320 l 1
 143 76 l 1
 293 76 l 2
EndSplineSet
Position2: "'cpsp' Capital Spacing lookup 3 subtable" dx=5 dy=0 dh=10 dv=0
EndChar

StartChar: Ddotbelow
Encoding: 7692 7692 39
Width: 695
Flags: MW
HStem: -175 95<267 285> 0 76<67.5 293 143 292> 624 76<200 350 200 200>
VStem: 232 89<-160 -95> 552 91<282 484>
LayerCount: 2
Fore
SplineSet
365 700 m 2
 522 700 643 624 643 415 c 0
 643 105 471 0 292 0 c 2
 77 0 l 2
 58 0 50 7 50 24 c 0
 50 37 95 455 117 670 c 0
 119 691 129 700 150 700 c 2
 365 700 l 2
143 76 m 1
 293 76 l 2
 423 76 552 163 552 401 c 0
 552 567 464 624 350 624 c 2
 200 624 l 1
 143 76 l 1
237 -102 m 2
 239 -89 251 -80 283 -80 c 0
 312 -80 321 -88 321 -102 c 1
 316 -153 l 2
 314 -166 300 -175 270 -175 c 0
 240 -175 232 -167 232 -153 c 1
 237 -102 l 2
EndSplineSet
Position2: "'cpsp' Capital Spacing lookup 3 subtable" dx=5 dy=0 dh=10 dv=0
EndChar

StartChar: Dz
Encoding: 498 498 40
Width: 1184
Flags: MW
HStem: 0 72<829 1096> 0 76<67.5 293 143 292> 451 72<784 1150 799 1047> 624 76<200 350 200 200>
VStem: 552 91<282 484>
LayerCount: 2
Fore
SplineSet
365 700 m 2xb8
 522 700 643 624 643 415 c 0
 643 105 471 0 292 0 c 2
 77 0 l 2
 58 0 50 7 50 24 c 0
 50 37 95 455 117 670 c 0
 119 691 129 700 150 700 c 2
 365 700 l 2xb8
143 76 m 1x78
 293 76 l 2
 423 76 552 163 552 401 c 0
 552 567 464 624 350 624 c 2
 200 624 l 1
 143 76 l 1x78
1150 523 m 2
 1159 523 1165 494 1165 475 c 0
 1165 468 1163 463 1161 461 c 2
 829 72 l 1
 1104 72 l 2
 1118 72 1121 61 1121 45 c 0
 1121 34 1120 0 1096 0 c 2
 726 0 l 2
 719 0 709 26 709 46 c 0
 709 51 710 58 714 62 c 2xb8
 1047 451 l 1
 791 451 l 2
 777 451 774 462 774 478 c 0
 774 489 775 523 799 523 c 2
 1150 523 l 2
EndSplineSet
Position2: "'cpsp' Capital Spacing lookup 3 subtable" dx=5 dy=0 dh=10 dv=0
EndChar

StartChar: Dzcaron
Encoding: 453 453 41
Width: 1184
Flags: MW
HStem: 0 72<829 1096> 0 76<67.5 293 143 292> 451 72<784 1150 799 1047> 624 76<200 350 200 200>
VStem: 552 91<282 484>
LayerCount: 2
Fore
SplineSet
365 700 m 2xb8
 522 700 643 624 643 415 c 0
 643 105 471 0 292 0 c 2
 77 0 l 2
 58 0 50 7 50 24 c 0
 50 37 95 455 117 670 c 0
 119 691 129 700 150 700 c 2
 365 700 l 2xb8
143 76 m 1x78
 293 76 l 2
 423 76 552 163 552 401 c 0
 552 567 464 624 350 624 c 2
 200 624 l 1
 143 76 l 1x78
1150 523 m 2
 1159 523 1165 494 1165 475 c 0
 1165 468 1163 463 1161 461 c 2
 829 72 l 1
 1104 72 l 2
 1118 72 1121 61 1121 45 c 0
 1121 34 1120 0 1096 0 c 2
 726 0 l 2
 719 0 709 26 709 46 c 0
 709 51 710 58 714 62 c 2xb8
 1047 451 l 1
 791 451 l 2
 777 451 774 462 774 478 c 0
 774 489 775 523 799 523 c 2
 1150 523 l 2
1088 724 m 2
 1103 724 1110 719 1110 710 c 0
 1110 705 1108 699 1103 692 c 2
 1036 604 l 2
 1025 589 1008 582 988 582 c 2
 963 582 l 2
 944 582 927 589 919 604 c 2
 873 692 l 2
 869 699 868 705 868 710 c 0
 869 719 878 724 893 724 c 2
 895 724 l 2
 909 724 919 720 928 711 c 1
 981 637 l 1
 1052 711 l 1
 1063 720 1073 724 1086 724 c 2
 1088 724 l 2
EndSplineSet
Position2: "'cpsp' Capital Spacing lookup 3 subtable" dx=5 dy=0 dh=10 dv=0
EndChar

StartChar: E
Encoding: 69 69 42
Width: 546
Flags: MW
HStem: 0 76<62.5 434 138 426> 320 76<171 427 163 435> 624 76<195 490 195 195>
VStem: 45 470
LayerCount: 2
Fore
SplineSet
498 700 m 2
 510 700 515 693 515 678 c 0
 515 655 515 624 490 624 c 2
 195 624 l 1
 171 396 l 1
 435 396 l 2
 447 396 452 389 452 374 c 0
 452 351 452 320 427 320 c 2
 163 320 l 1
 138 76 l 1
 434 76 l 2
 446 76 451 69 451 54 c 0
 451 31 451 0 426 0 c 2
 72 0 l 2
 53 0 45 7 45 24 c 0
 45 26 45 28 112 670 c 0
 114 691 124 700 145 700 c 2
 498 700 l 2
EndSplineSet
Position2: "'cpsp' Capital Spacing lookup 3 subtable" dx=5 dy=0 dh=10 dv=0
EndChar

StartChar: Eacute
Encoding: 201 201 43
Width: 546
Flags: MW
HStem: 0 76<62.5 434 138 426> 320 76<171 427 163 435> 624 76<195 490 195 195>
VStem: 45 470
LayerCount: 2
Fore
SplineSet
419 909 m 0
 450 909 466 906 466 897 c 0
 466 886 455 877 360 780 c 0
 348 768 327 762 307 762 c 0
 292 762 285 765 285 771 c 0
 285 780 297 800 354 883 c 0
 367 902 387 909 419 909 c 0
498 700 m 2
 510 700 515 693 515 678 c 0
 515 655 515 624 490 624 c 2
 195 624 l 1
 171 396 l 1
 435 396 l 2
 447 396 452 389 452 374 c 0
 452 351 452 320 427 320 c 2
 163 320 l 1
 138 76 l 1
 434 76 l 2
 446 76 451 69 451 54 c 0
 451 31 451 0 426 0 c 2
 72 0 l 2
 53 0 45 7 45 24 c 0
 45 26 45 28 112 670 c 0
 114 691 124 700 145 700 c 2
 498 700 l 2
EndSplineSet
Position2: "'cpsp' Capital Spacing lookup 3 subtable" dx=5 dy=0 dh=10 dv=0
EndChar

StartChar: Ebreve
Encoding: 276 276 44
Width: 546
Flags: MW
HStem: 0 76<62.5 434 138 426> 320 76<171 427 163 435> 624 76<195 490 195 195> 762 66<310.5 359 310.5 361.5>
VStem: 45 470
LayerCount: 2
Fore
SplineSet
470 892 m 0
 480 892 484 888 484 880 c 0
 484 801 395 762 328 762 c 0
 260 762 194 796 194 865 c 0
 194 882 196 892 211 892 c 0
 228 892 224 883 231 867 c 0
 243 839 286 828 335 828 c 0
 383 828 428 839 446 867 c 0
 456 883 452 892 470 892 c 0
498 700 m 2
 510 700 515 693 515 678 c 0
 515 655 515 624 490 624 c 2
 195 624 l 1
 171 396 l 1
 435 396 l 2
 447 396 452 389 452 374 c 0
 452 351 452 320 427 320 c 2
 163 320 l 1
 138 76 l 1
 434 76 l 2
 446 76 451 69 451 54 c 0
 451 31 451 0 426 0 c 2
 72 0 l 2
 53 0 45 7 45 24 c 0
 45 26 45 28 112 670 c 0
 114 691 124 700 145 700 c 2
 498 700 l 2
EndSplineSet
Position2: "'cpsp' Capital Spacing lookup 3 subtable" dx=5 dy=0 dh=10 dv=0
EndChar

StartChar: Ecaron
Encoding: 282 282 45
Width: 546
Flags: MW
HStem: 0 76<62.5 434 138 426> 320 76<171 427 163 435> 624 76<195 490 195 195> 759 142<246 316 246 341>
VStem: 45 470
LayerCount: 2
Fore
SplineSet
441 901 m 2
 456 901 463 896 463 887 c 0
 463 882 461 876 456 869 c 2
 389 781 l 2
 378 766 361 759 341 759 c 2
 316 759 l 2
 297 759 280 766 272 781 c 2
 226 869 l 2
 222 876 221 882 221 887 c 0
 222 896 231 901 246 901 c 2
 248 901 l 2
 262 901 272 897 281 888 c 1
 334 814 l 1
 405 888 l 1
 416 897 426 901 439 901 c 2
 441 901 l 2
498 700 m 2
 510 700 515 693 515 678 c 0
 515 655 515 624 490 624 c 2
 195 624 l 1
 171 396 l 1
 435 396 l 2
 447 396 452 389 452 374 c 0
 452 351 452 320 427 320 c 2
 163 320 l 1
 138 76 l 1
 434 76 l 2
 446 76 451 69 451 54 c 0
 451 31 451 0 426 0 c 2
 72 0 l 2
 53 0 45 7 45 24 c 0
 45 26 45 28 112 670 c 0
 114 691 124 700 145 700 c 2
 498 700 l 2
EndSplineSet
Position2: "'cpsp' Capital Spacing lookup 3 subtable" dx=5 dy=0 dh=10 dv=0
EndChar

StartChar: Ecircumflex
Encoding: 202 202 46
Width: 546
Flags: MW
HStem: 0 76<62.5 434 138 426> 320 76<171 427 163 435> 624 76<195 490 195 195> 753 142<216 348 223 348 323 416 323 418>
VStem: 45 470
LayerCount: 2
Fore
SplineSet
348 895 m 2
 367 895 384 888 392 873 c 2
 439 785 l 2
 443 779 444 773 444 768 c 0
 443 759 434 753 418 753 c 2
 416 753 l 2
 403 753 393 757 384 766 c 1
 329 840 l 1
 260 766 l 1
 249 757 239 753 225 753 c 2
 223 753 l 2
 209 753 202 757 202 765 c 0
 202 771 204 777 209 785 c 2
 275 873 l 2
 286 888 303 895 323 895 c 2
 348 895 l 2
498 700 m 2
 510 700 515 693 515 678 c 0
 515 655 515 624 490 624 c 2
 195 624 l 1
 171 396 l 1
 435 396 l 2
 447 396 452 389 452 374 c 0
 452 351 452 320 427 320 c 2
 163 320 l 1
 138 76 l 1
 434 76 l 2
 446 76 451 69 451 54 c 0
 451 31 451 0 426 0 c 2
 72 0 l 2
 53 0 45 7 45 24 c 0
 45 26 45 28 112 670 c 0
 114 691 124 700 145 700 c 2
 498 700 l 2
EndSplineSet
Position2: "'cpsp' Capital Spacing lookup 3 subtable" dx=5 dy=0 dh=10 dv=0
EndChar

StartChar: Ecircumflexacute
Encoding: 7870 7870 47
Width: 546
Flags: MW
HStem: 0 76<62.5 434 138 426> 320 76<171 427 163 435> 624 76<195 490 195 195>
VStem: 45 541
LayerCount: 2
Fore
SplineSet
554 961 m 0
 573 961 586 958 586 949 c 0
 586 944 575 931 494 842 c 0
 484 830 472 824 456 824 c 0
 441 824 434 827 434 833 c 0
 434 841 442 860 489 935 c 0
 499 951 522 961 554 961 c 0
356 895 m 2
 371 895 383 888 390 873 c 2
 432 785 l 1
 436 779 437 773 437 768 c 0
 436 759 427 753 411 753 c 2
 409 753 l 2
 396 753 383 755 377 766 c 2
 337 840 l 1
 268 766 l 1
 257 757 247 753 233 753 c 2
 231 753 l 2
 217 753 210 757 210 765 c 0
 210 771 212 777 217 785 c 2
 283 873 l 2
 294 888 311 895 331 895 c 2
 356 895 l 2
498 700 m 2
 510 700 515 693 515 678 c 0
 515 655 515 624 490 624 c 2
 195 624 l 1
 171 396 l 1
 435 396 l 2
 447 396 452 389 452 374 c 0
 452 351 452 320 427 320 c 2
 163 320 l 1
 138 76 l 1
 434 76 l 2
 446 76 451 69 451 54 c 0
 451 31 451 0 426 0 c 2
 72 0 l 2
 53 0 45 7 45 24 c 0
 45 26 45 28 112 670 c 0
 114 691 124 700 145 700 c 2
 498 700 l 2
EndSplineSet
Position2: "'cpsp' Capital Spacing lookup 3 subtable" dx=5 dy=0 dh=10 dv=0
EndChar

StartChar: Ecircumflexdotbelow
Encoding: 7878 7878 48
Width: 546
Flags: MW
HStem: -175 95<227 245> 0 76<62.5 434 138 426> 320 76<171 427 163 435> 624 76<195 490 195 195> 753 142<216 348 223 348 323 416 323 418>
VStem: 192 89<-160 -95>
LayerCount: 2
Fore
SplineSet
348 895 m 2
 367 895 384 888 392 873 c 2
 439 785 l 2
 443 779 444 773 444 768 c 0
 443 759 434 753 418 753 c 2
 416 753 l 2
 403 753 393 757 384 766 c 1
 329 840 l 1
 260 766 l 1
 249 757 239 753 225 753 c 2
 223 753 l 2
 209 753 202 757 202 765 c 0
 202 771 204 777 209 785 c 2
 275 873 l 2
 286 888 303 895 323 895 c 2
 348 895 l 2
498 700 m 2
 510 700 515 693 515 678 c 0
 515 655 515 624 490 624 c 2
 195 624 l 1
 171 396 l 1
 435 396 l 2
 447 396 452 389 452 374 c 0
 452 351 452 320 427 320 c 2
 163 320 l 1
 138 76 l 1
 434 76 l 2
 446 76 451 69 451 54 c 0
 451 31 451 0 426 0 c 2
 72 0 l 2
 53 0 45 7 45 24 c 0
 45 26 45 28 112 670 c 0
 114 691 124 700 145 700 c 2
 498 700 l 2
197 -102 m 2
 199 -89 211 -80 243 -80 c 0
 272 -80 281 -88 281 -102 c 1
 276 -153 l 2
 274 -166 260 -175 230 -175 c 0
 200 -175 192 -167 192 -153 c 1
 197 -102 l 2
EndSplineSet
Position2: "'cpsp' Capital Spacing lookup 3 subtable" dx=5 dy=0 dh=10 dv=0
EndChar

StartChar: Ecircumflexgrave
Encoding: 7872 7872 49
Width: 546
Flags: MW
HStem: 0 76<62.5 434 138 426> 320 76<171 427 163 435> 624 76<195 490 195 195>
VStem: 45 470
LayerCount: 2
Fore
SplineSet
428 964 m 0
 446 964 468 959 476 938 c 0
 507 863 513 842 513 833 c 0
 513 827 505 824 490 824 c 0
 474 824 461 830 454 842 c 0
 402 923 392 940 391 952 c 0
 391 961 400 964 428 964 c 0
356 895 m 2
 371 895 383 888 390 873 c 2
 432 785 l 1
 436 779 437 773 437 768 c 0
 436 759 427 753 411 753 c 2
 409 753 l 2
 396 753 383 755 377 766 c 2
 337 840 l 1
 268 766 l 1
 257 757 247 753 233 753 c 2
 231 753 l 2
 217 753 210 757 210 765 c 0
 210 771 212 777 217 785 c 2
 283 873 l 2
 294 888 311 895 331 895 c 2
 356 895 l 2
498 700 m 2
 510 700 515 693 515 678 c 0
 515 655 515 624 490 624 c 2
 195 624 l 1
 171 396 l 1
 435 396 l 2
 447 396 452 389 452 374 c 0
 452 351 452 320 427 320 c 2
 163 320 l 1
 138 76 l 1
 434 76 l 2
 446 76 451 69 451 54 c 0
 451 31 451 0 426 0 c 2
 72 0 l 2
 53 0 45 7 45 24 c 0
 45 26 45 28 112 670 c 0
 114 691 124 700 145 700 c 2
 498 700 l 2
EndSplineSet
Position2: "'cpsp' Capital Spacing lookup 3 subtable" dx=5 dy=0 dh=10 dv=0
EndChar

StartChar: Ecircumflexhookabove
Encoding: 7874 7874 50
Width: 546
Flags: MW
HStem: 0 76<62.5 434 138 426> 320 76<171 427 163 435> 624 76<195 490 195 195> 931 48<458.5 473>
VStem: 497 58<897 913>
LayerCount: 2
Fore
SplineSet
497 904 m 0
 497 922 483 931 463 931 c 0
 432 931 420 918 415 918 c 0
 407 918 395 941 395 951 c 0
 395 964 441 979 476 979 c 0
 510 979 555 963 555 911 c 0
 555 880 531 861 513 847 c 0
 498 835 475 825 469 825 c 0
 448 825 435 836 435 845 c 0
 435 853 445 858 462 867 c 0
 483 878 497 890 497 904 c 0
356 895 m 2
 371 895 383 888 390 873 c 2
 432 785 l 1
 436 779 437 773 437 768 c 0
 436 759 427 753 411 753 c 2
 409 753 l 2
 396 753 383 755 377 766 c 2
 337 840 l 1
 268 766 l 1
 257 757 247 753 233 753 c 2
 231 753 l 2
 217 753 210 757 210 765 c 0
 210 771 212 777 217 785 c 2
 283 873 l 2
 294 888 311 895 331 895 c 2
 356 895 l 2
498 700 m 2
 510 700 515 693 515 678 c 0
 515 655 515 624 490 624 c 2
 195 624 l 1
 171 396 l 1
 435 396 l 2
 447 396 452 389 452 374 c 0
 452 351 452 320 427 320 c 2
 163 320 l 1
 138 76 l 1
 434 76 l 2
 446 76 451 69 451 54 c 0
 451 31 451 0 426 0 c 2
 72 0 l 2
 53 0 45 7 45 24 c 0
 45 26 45 28 112 670 c 0
 114 691 124 700 145 700 c 2
 498 700 l 2
EndSplineSet
Position2: "'cpsp' Capital Spacing lookup 3 subtable" dx=5 dy=0 dh=10 dv=0
EndChar

StartChar: Ecircumflextilde
Encoding: 7876 7876 51
Width: 546
Flags: MW
HStem: 0 76<62.5 434 138 426> 320 76<171 427 163 435> 624 76<195 490 195 195> 903 64<402 415.5> 934 64<280.5 294>
VStem: 45 470
LayerCount: 2
Fore
SplineSet
460 989 m 0xf4
 466 993 471 996 477 996 c 0
 483 996 489 993 494 987 c 0
 500 980 503 973 503 967 c 0
 503 960 499 953 493 947 c 0
 466 922 434 903 397 903 c 0xf4
 362 903 344 911 328 919 c 0
 312 927 300 934 288 934 c 0
 268 934 255 924 239 915 c 0
 232 911 226 909 220 909 c 0
 212 909 206 913 201 921 c 0
 196 928 194 935 194 941 c 0
 194 948 197 953 202 957 c 0
 228 978 262 998 299 998 c 0xec
 334 998 355 986 368 980 c 0
 383 973 396 967 408 967 c 0
 428 967 444 977 460 989 c 0xf4
351 871 m 2
 370 871 384 861 395 849 c 1
 441 786 l 2
 445 780 446 774 446 769 c 0
 445 760 436 754 420 754 c 2
 418 754 l 2
 405 754 395 760 386 767 c 2
 332 816 l 1
 262 767 l 1
 250 760 241 754 227 754 c 2
 225 754 l 2
 211 754 204 758 204 766 c 0
 204 772 206 778 211 786 c 1
 278 849 l 1
 293 861 306 871 326 871 c 2
 351 871 l 2
498 700 m 2
 510 700 515 693 515 678 c 0
 515 655 515 624 490 624 c 2
 195 624 l 1
 171 396 l 1
 435 396 l 2
 447 396 452 389 452 374 c 0
 452 351 452 320 427 320 c 2
 163 320 l 1
 138 76 l 1
 434 76 l 2
 446 76 451 69 451 54 c 0
 451 31 451 0 426 0 c 2
 72 0 l 2
 53 0 45 7 45 24 c 0
 45 26 45 28 112 670 c 0
 114 691 124 700 145 700 c 2
 498 700 l 2
EndSplineSet
Position2: "'cpsp' Capital Spacing lookup 3 subtable" dx=5 dy=0 dh=10 dv=0
EndChar

StartChar: Edieresis
Encoding: 203 203 52
Width: 546
Flags: MW
HStem: 0 76<62.5 434 138 426> 320 76<171 427 163 435> 624 76<195 490 195 195> 784 95<252 270 396 414>
VStem: 217 89<799 864> 361 89<799 864>
LayerCount: 2
Fore
SplineSet
222 857 m 2
 224 870 236 879 268 879 c 0
 297 879 306 871 306 857 c 1
 301 806 l 2
 299 793 285 784 255 784 c 0
 225 784 217 792 217 806 c 1
 222 857 l 2
366 857 m 2
 367 870 380 879 412 879 c 0
 441 879 450 871 450 857 c 1
 445 806 l 2
 443 793 429 784 399 784 c 0
 369 784 361 792 361 806 c 1
 366 857 l 2
498 700 m 2
 510 700 515 693 515 678 c 0
 515 655 515 624 490 624 c 2
 195 624 l 1
 171 396 l 1
 435 396 l 2
 447 396 452 389 452 374 c 0
 452 351 452 320 427 320 c 2
 163 320 l 1
 138 76 l 1
 434 76 l 2
 446 76 451 69 451 54 c 0
 451 31 451 0 426 0 c 2
 72 0 l 2
 53 0 45 7 45 24 c 0
 45 26 45 28 112 670 c 0
 114 691 124 700 145 700 c 2
 498 700 l 2
EndSplineSet
Position2: "'cpsp' Capital Spacing lookup 3 subtable" dx=5 dy=0 dh=10 dv=0
EndChar

StartChar: Edotaccent
Encoding: 278 278 53
Width: 546
Flags: MW
HStem: 0 76<62.5 434 138 426> 320 76<171 427 163 435> 624 76<195 490 195 195> 784 95<324 342>
VStem: 289 89<799 864>
LayerCount: 2
Fore
SplineSet
294 857 m 2
 296 870 308 879 340 879 c 0
 369 879 378 871 378 857 c 1
 373 806 l 2
 371 793 357 784 327 784 c 0
 297 784 289 792 289 806 c 1
 294 857 l 2
498 700 m 2
 510 700 515 693 515 678 c 0
 515 655 515 624 490 624 c 2
 195 624 l 1
 171 396 l 1
 435 396 l 2
 447 396 452 389 452 374 c 0
 452 351 452 320 427 320 c 2
 163 320 l 1
 138 76 l 1
 434 76 l 2
 446 76 451 69 451 54 c 0
 451 31 451 0 426 0 c 2
 72 0 l 2
 53 0 45 7 45 24 c 0
 45 26 45 28 112 670 c 0
 114 691 124 700 145 700 c 2
 498 700 l 2
EndSplineSet
Position2: "'cpsp' Capital Spacing lookup 3 subtable" dx=5 dy=0 dh=10 dv=0
EndChar

StartChar: Edotbelow
Encoding: 7864 7864 54
Width: 546
Flags: MW
HStem: -175 95<227 245> 0 76<62.5 434 138 426> 320 76<171 427 163 435> 624 76<195 490 195 195>
VStem: 192 89<-160 -95>
LayerCount: 2
Fore
SplineSet
498 700 m 2
 510 700 515 693 515 678 c 0
 515 655 515 624 490 624 c 2
 195 624 l 1
 171 396 l 1
 435 396 l 2
 447 396 452 389 452 374 c 0
 452 351 452 320 427 320 c 2
 163 320 l 1
 138 76 l 1
 434 76 l 2
 446 76 451 69 451 54 c 0
 451 31 451 0 426 0 c 2
 72 0 l 2
 53 0 45 7 45 24 c 0
 45 26 45 28 112 670 c 0
 114 691 124 700 145 700 c 2
 498 700 l 2
197 -102 m 2
 199 -89 211 -80 243 -80 c 0
 272 -80 281 -88 281 -102 c 1
 276 -153 l 2
 274 -166 260 -175 230 -175 c 0
 200 -175 192 -167 192 -153 c 1
 197 -102 l 2
EndSplineSet
Position2: "'cpsp' Capital Spacing lookup 3 subtable" dx=5 dy=0 dh=10 dv=0
EndChar

StartChar: Egrave
Encoding: 200 200 55
Width: 546
Flags: MW
HStem: 0 76<62.5 434 138 426> 320 76<171 427 163 435> 624 76<195 490 195 195>
VStem: 45 470
LayerCount: 2
Fore
SplineSet
252 909 m 0
 284 909 303 902 314 883 c 0
 363 799 372 780 372 771 c 0
 372 765 364 762 349 762 c 0
 329 762 308 768 298 780 c 0
 213 877 204 885 204 897 c 1
 205 906 221 909 252 909 c 0
498 700 m 2
 510 700 515 693 515 678 c 0
 515 655 515 624 490 624 c 2
 195 624 l 1
 171 396 l 1
 435 396 l 2
 447 396 452 389 452 374 c 0
 452 351 452 320 427 320 c 2
 163 320 l 1
 138 76 l 1
 434 76 l 2
 446 76 451 69 451 54 c 0
 451 31 451 0 426 0 c 2
 72 0 l 2
 53 0 45 7 45 24 c 0
 45 26 45 28 112 670 c 0
 114 691 124 700 145 700 c 2
 498 700 l 2
EndSplineSet
Position2: "'cpsp' Capital Spacing lookup 3 subtable" dx=5 dy=0 dh=10 dv=0
EndChar

StartChar: Ehookabove
Encoding: 7866 7866 56
Width: 546
Flags: MW
HStem: 0 76<62.5 434 138 426> 320 76<171 427 163 435> 624 76<195 490 195 195> 876 51<328.5 343>
VStem: 367 66<825 859>
LayerCount: 2
Fore
SplineSet
367 851 m 0
 367 867 353 876 333 876 c 0
 302 876 290 863 285 863 c 0
 277 863 265 886 265 896 c 0
 265 909 311 927 346 927 c 0
 380 927 433 911 433 857 c 0
 433 787 344 740 334 740 c 0
 313 740 295 748 295 757 c 0
 295 784 367 799 367 851 c 0
498 700 m 2
 510 700 515 693 515 678 c 0
 515 655 515 624 490 624 c 2
 195 624 l 1
 171 396 l 1
 435 396 l 2
 447 396 452 389 452 374 c 0
 452 351 452 320 427 320 c 2
 163 320 l 1
 138 76 l 1
 434 76 l 2
 446 76 451 69 451 54 c 0
 451 31 451 0 426 0 c 2
 72 0 l 2
 53 0 45 7 45 24 c 0
 45 26 45 28 112 670 c 0
 114 691 124 700 145 700 c 2
 498 700 l 2
EndSplineSet
Position2: "'cpsp' Capital Spacing lookup 3 subtable" dx=5 dy=0 dh=10 dv=0
EndChar

StartChar: Emacron
Encoding: 274 274 57
Width: 546
Flags: MW
HStem: 0 76<62.5 434 138 426> 320 76<171 427 163 435> 624 76<195 490 195 195> 789 71<199 440 214 432>
VStem: 45 470
LayerCount: 2
Fore
SplineSet
440 860 m 2
 454 860 457 850 457 834 c 0
 457 823 456 789 432 789 c 2
 206 789 l 2
 192 789 189 800 189 816 c 0
 189 827 190 860 214 860 c 2
 440 860 l 2
498 700 m 2
 510 700 515 693 515 678 c 0
 515 655 515 624 490 624 c 2
 195 624 l 1
 171 396 l 1
 435 396 l 2
 447 396 452 389 452 374 c 0
 452 351 452 320 427 320 c 2
 163 320 l 1
 138 76 l 1
 434 76 l 2
 446 76 451 69 451 54 c 0
 451 31 451 0 426 0 c 2
 72 0 l 2
 53 0 45 7 45 24 c 0
 45 26 45 28 112 670 c 0
 114 691 124 700 145 700 c 2
 498 700 l 2
EndSplineSet
Position2: "'cpsp' Capital Spacing lookup 3 subtable" dx=5 dy=0 dh=10 dv=0
EndChar

StartChar: Eogonek
Encoding: 280 280 58
Width: 546
Flags: MW
HStem: -183 70<454 467.5> 0 76<62.5 434 138 374 426 434 434 438.5> 320 76<171 427 163 435> 624 76<195 490 195 195>
VStem: 338 69<-90 -85>
LayerCount: 2
Fore
SplineSet
426 0 m 1
 424 -16 407 -43 407 -70 c 0
 407 -110 443 -113 465 -113 c 0
 496 -113 520 -95 529 -95 c 0
 533 -95 535 -99 535 -108 c 0
 535 -173 489 -183 446 -183 c 0
 352 -183 338 -127 338 -94 c 0
 338 -76 346 -25 374 0 c 1
 72 0 l 2
 53 0 45 7 45 24 c 0
 45 26 45 28 112 670 c 0
 114 691 124 700 145 700 c 2
 498 700 l 2
 510 700 515 693 515 678 c 0
 515 655 515 624 490 624 c 2
 195 624 l 1
 171 396 l 1
 435 396 l 2
 447 396 452 389 452 374 c 0
 452 351 452 320 427 320 c 2
 163 320 l 1
 138 76 l 1
 434 76 l 2
 446 76 451 69 451 54 c 0
 451 31 451 0 426 0 c 1
EndSplineSet
Position2: "'cpsp' Capital Spacing lookup 3 subtable" dx=5 dy=0 dh=10 dv=0
EndChar

StartChar: Etilde
Encoding: 7868 7868 59
Width: 546
Flags: MW
HStem: 0 76<62.5 434 138 426> 320 76<171 427 163 435> 624 76<195 490 195 195> 762 64<401 415.5> 793 64<267.5 282.5>
VStem: 45 470
LayerCount: 2
Fore
SplineSet
465 848 m 0xf4
 471 852 477 855 483 855 c 0
 490 855 496 852 502 846 c 0
 509 839 512 832 512 826 c 0
 512 819 508 812 501 806 c 0
 471 781 436 762 395 762 c 0xf4
 357 762 337 770 320 778 c 0
 302 786 289 793 276 793 c 0
 254 793 239 783 222 774 c 0
 214 770 207 768 201 768 c 0
 193 768 186 772 180 780 c 0
 175 787 172 794 172 800 c 0
 172 807 176 812 181 816 c 0
 210 837 247 857 288 857 c 0xec
 326 857 349 845 364 839 c 0
 380 832 394 826 408 826 c 0
 430 826 447 836 465 848 c 0xf4
498 700 m 2
 510 700 515 693 515 678 c 0
 515 655 515 624 490 624 c 2
 195 624 l 1
 171 396 l 1
 435 396 l 2
 447 396 452 389 452 374 c 0
 452 351 452 320 427 320 c 2
 163 320 l 1
 138 76 l 1
 434 76 l 2
 446 76 451 69 451 54 c 0
 451 31 451 0 426 0 c 2
 72 0 l 2
 53 0 45 7 45 24 c 0
 45 26 45 28 112 670 c 0
 114 691 124 700 145 700 c 2
 498 700 l 2
EndSplineSet
Position2: "'cpsp' Capital Spacing lookup 3 subtable" dx=5 dy=0 dh=10 dv=0
EndChar

StartChar: F
Encoding: 70 70 60
Width: 503
Flags: MW
HStem: -2 21G<72 87 87 95> 320 76<176 419 168 427> 624 76<200 459 200 200>
VStem: 49 435
LayerCount: 2
Fore
SplineSet
467 700 m 2
 479 700 484 693 484 678 c 0
 484 655 484 624 459 624 c 2
 200 624 l 1
 176 396 l 1
 427 396 l 2
 439 396 444 389 444 374 c 0
 444 351 444 320 419 320 c 2
 168 320 l 1
 137 20 l 2
 135 6 120 -2 95 -2 c 2
 87 -2 l 2
 57 -2 49 6 49 20 c 1
 117 670 l 2
 119 691 129 700 150 700 c 2
 467 700 l 2
EndSplineSet
Position2: "'cpsp' Capital Spacing lookup 3 subtable" dx=5 dy=0 dh=10 dv=0
EndChar

StartChar: G
Encoding: 71 71 61
Width: 672
Flags: MW
HStem: -6 76<266 368 266 385> 285 76<370 560 384 494> 630 76<316 455>
VStem: 52 92<226.5 394.5 226.5 423.5>
LayerCount: 2
Fore
SplineSet
560 361 m 2
 579 361 587 353 587 337 c 0
 587 322 568 156 559 66 c 0
 553 10 442 -6 328 -6 c 0
 149 -6 52 84 52 275 c 0
 52 572 196 706 418 706 c 0
 515 706 602 672 602 645 c 0
 602 629 575 586 562 586 c 0
 551 586 506 630 404 630 c 0
 228 630 144 501 144 288 c 0
 144 165 190 70 342 70 c 0
 394 70 445 76 472 83 c 1
 494 285 l 1
 376 285 l 2
 364 285 359 292 359 307 c 0
 359 330 359 361 384 361 c 2
 560 361 l 2
EndSplineSet
Position2: "'cpsp' Capital Spacing lookup 3 subtable" dx=5 dy=0 dh=10 dv=0
EndChar

StartChar: Gbreve
Encoding: 286 286 62
Width: 672
Flags: MW
HStem: -6 76<266 368 266 385> 285 76<370 560 384 494> 630 76<316 455> 762 66<383.5 432 383.5 434.5>
VStem: 52 92<226.5 394.5 226.5 423.5>
LayerCount: 2
Fore
SplineSet
543 892 m 0
 553 892 557 888 557 880 c 0
 557 801 468 762 401 762 c 0
 333 762 267 796 267 865 c 0
 267 882 269 892 284 892 c 0
 301 892 297 883 304 867 c 0
 316 839 359 828 408 828 c 0
 456 828 501 839 519 867 c 0
 529 883 525 892 543 892 c 0
560 361 m 2
 579 361 587 353 587 337 c 0
 587 322 568 156 559 66 c 0
 553 10 442 -6 328 -6 c 0
 149 -6 52 84 52 275 c 0
 52 572 196 706 418 706 c 0
 515 706 602 672 602 645 c 0
 602 629 575 586 562 586 c 0
 551 586 506 630 404 630 c 0
 228 630 144 501 144 288 c 0
 144 165 190 70 342 70 c 0
 394 70 445 76 472 83 c 1
 494 285 l 1
 376 285 l 2
 364 285 359 292 359 307 c 0
 359 330 359 361 384 361 c 2
 560 361 l 2
EndSplineSet
Position2: "'cpsp' Capital Spacing lookup 3 subtable" dx=5 dy=0 dh=10 dv=0
EndChar

StartChar: Gcircumflex
Encoding: 284 284 63
Width: 672
Flags: MW
HStem: -6 76<266 368 266 385> 285 76<370 560 384 494> 630 76<316 455> 753 142<289 421 296 421 396 489 396 491>
VStem: 52 92<226.5 394.5 226.5 423.5>
LayerCount: 2
Fore
SplineSet
421 895 m 2
 440 895 457 888 465 873 c 2
 512 785 l 2
 516 779 517 773 517 768 c 0
 516 759 507 753 491 753 c 2
 489 753 l 2
 476 753 466 757 457 766 c 1
 402 840 l 1
 333 766 l 1
 322 757 312 753 298 753 c 2
 296 753 l 2
 282 753 275 757 275 765 c 0
 275 771 277 777 282 785 c 2
 348 873 l 2
 359 888 376 895 396 895 c 2
 421 895 l 2
560 361 m 2
 579 361 587 353 587 337 c 0
 587 322 568 156 559 66 c 0
 553 10 442 -6 328 -6 c 0
 149 -6 52 84 52 275 c 0
 52 572 196 706 418 706 c 0
 515 706 602 672 602 645 c 0
 602 629 575 586 562 586 c 0
 551 586 506 630 404 630 c 0
 228 630 144 501 144 288 c 0
 144 165 190 70 342 70 c 0
 394 70 445 76 472 83 c 1
 494 285 l 1
 376 285 l 2
 364 285 359 292 359 307 c 0
 359 330 359 361 384 361 c 2
 560 361 l 2
EndSplineSet
Position2: "'cpsp' Capital Spacing lookup 3 subtable" dx=5 dy=0 dh=10 dv=0
EndChar

StartChar: Gcommaaccent
Encoding: 290 290 64
Width: 672
Flags: MW
HStem: -235 21G<250.5 272.5> -6 76<266 368 266 385> 285 76<370 560 384 494> 630 76<316 455>
VStem: 52 92<226.5 394.5 226.5 423.5> 286 90<-108 -73.5>
LayerCount: 2
Fore
SplineSet
560 361 m 2
 579 361 587 353 587 337 c 0
 587 322 568 156 559 66 c 0
 553 10 442 -6 328 -6 c 0
 149 -6 52 84 52 275 c 0
 52 572 196 706 418 706 c 0
 515 706 602 672 602 645 c 0
 602 629 575 586 562 586 c 0
 551 586 506 630 404 630 c 0
 228 630 144 501 144 288 c 0
 144 165 190 70 342 70 c 0
 394 70 445 76 472 83 c 1
 494 285 l 1
 376 285 l 2
 364 285 359 292 359 307 c 0
 359 330 359 361 384 361 c 2
 560 361 l 2
339 -51 m 2
 364 -51 376 -62 376 -79 c 0
 376 -137 289 -235 256 -235 c 0
 245 -235 229 -232 229 -220 c 0
 229 -189 286 -147 286 -83 c 0
 286 -64 303 -51 330 -51 c 2
 339 -51 l 2
EndSplineSet
Position2: "'cpsp' Capital Spacing lookup 3 subtable" dx=5 dy=0 dh=10 dv=0
EndChar

StartChar: Gdotaccent
Encoding: 288 288 65
Width: 672
Flags: MW
HStem: -6 76<266 368 266 385> 285 76<370 560 384 494> 630 76<316 455> 784 95<397 415>
VStem: 52 92<226.5 394.5 226.5 423.5> 362 89<799 864>
LayerCount: 2
Fore
SplineSet
367 857 m 2
 369 870 381 879 413 879 c 0
 442 879 451 871 451 857 c 1
 446 806 l 2
 444 793 430 784 400 784 c 0
 370 784 362 792 362 806 c 1
 367 857 l 2
560 361 m 2
 579 361 587 353 587 337 c 0
 587 322 568 156 559 66 c 0
 553 10 442 -6 328 -6 c 0
 149 -6 52 84 52 275 c 0
 52 572 196 706 418 706 c 0
 515 706 602 672 602 645 c 0
 602 629 575 586 562 586 c 0
 551 586 506 630 404 630 c 0
 228 630 144 501 144 288 c 0
 144 165 190 70 342 70 c 0
 394 70 445 76 472 83 c 1
 494 285 l 1
 376 285 l 2
 364 285 359 292 359 307 c 0
 359 330 359 361 384 361 c 2
 560 361 l 2
EndSplineSet
Position2: "'cpsp' Capital Spacing lookup 3 subtable" dx=5 dy=0 dh=10 dv=0
EndChar

StartChar: H
Encoding: 72 72 66
Width: 733
Flags: MW
HStem: -2 21G<85 100 100 108 535 550 550 558> 321 76<189 543 181 551> 682 20G<173 181 181 195.5 623 631 631 645.5>
VStem: 62 607
LayerCount: 2
Fore
SplineSet
631 702 m 2
 660 702 669 694 669 680 c 1
 600 20 l 2
 598 6 584 -2 558 -2 c 2
 550 -2 l 2
 520 -2 512 6 512 20 c 1
 543 321 l 1
 181 321 l 1
 150 20 l 2
 148 6 134 -2 108 -2 c 2
 100 -2 l 2
 70 -2 62 6 62 20 c 1
 131 680 l 2
 132 694 145 702 173 702 c 2
 181 702 l 2
 210 702 219 694 219 680 c 1
 189 397 l 1
 551 397 l 1
 581 680 l 2
 582 694 594 702 623 702 c 2
 631 702 l 2
EndSplineSet
Position2: "'cpsp' Capital Spacing lookup 3 subtable" dx=5 dy=0 dh=10 dv=0
EndChar

StartChar: Hbar
Encoding: 294 294 67
Width: 733
Flags: MW
HStem: -2 21G<85 100 100 108 535 550 550 558> 321 76<189 543 181 551> 490 71<69 119 84 111 206 561 657 672> 682 20G<173 181 181 195.5 623 631 631 645.5>
VStem: 59 135 125 94 574.5 94.5
LayerCount: 2
Fore
SplineSet
680 561 m 2xf6
 694 561 697 551 697 535 c 0
 697 524 696 490 672 490 c 2
 649 490 l 1
 600 20 l 2
 598 6 584 -2 558 -2 c 2
 550 -2 l 2
 520 -2 512 6 512 20 c 1
 543 321 l 1
 181 321 l 1
 150 20 l 2
 148 6 134 -2 108 -2 c 2
 100 -2 l 2
 70 -2 62 6 62 20 c 1
 111 490 l 1
 76 490 l 2
 62 490 59 501 59 517 c 0
 59 528 60 561 84 561 c 2xfa
 119 561 l 1
 131 680 l 2
 132 694 145 702 173 702 c 2
 181 702 l 2
 210 702 219 694 219 680 c 1
 206 561 l 1
 568 561 l 1
 581 680 l 2
 582 694 594 702 623 702 c 2
 631 702 l 2
 660 702 669 694 669 680 c 1
 657 561 l 1
 680 561 l 2xf6
561 490 m 1
 199 490 l 1
 189 397 l 1xfa
 551 397 l 1
 561 490 l 1
EndSplineSet
Position2: "'cpsp' Capital Spacing lookup 3 subtable" dx=5 dy=0 dh=10 dv=0
EndChar

StartChar: Hcircumflex
Encoding: 292 292 68
Width: 733
Flags: MW
HStem: -2 21G<85 100 100 108 535 550 550 558> 321 76<189 543 181 551> 682 20G<173 181 181 195.5 623 631 631 645.5> 753 142<298 430 305 430 405 498 405 500>
VStem: 62 607
LayerCount: 2
Fore
SplineSet
430 895 m 2
 449 895 466 888 474 873 c 2
 521 785 l 2
 525 779 526 773 526 768 c 0
 525 759 516 753 500 753 c 2
 498 753 l 2
 485 753 475 757 466 766 c 1
 411 840 l 1
 342 766 l 1
 331 757 321 753 307 753 c 2
 305 753 l 2
 291 753 284 757 284 765 c 0
 284 771 286 777 291 785 c 2
 357 873 l 2
 368 888 385 895 405 895 c 2
 430 895 l 2
631 702 m 2
 660 702 669 694 669 680 c 1
 600 20 l 2
 598 6 584 -2 558 -2 c 2
 550 -2 l 2
 520 -2 512 6 512 20 c 1
 543 321 l 1
 181 321 l 1
 150 20 l 2
 148 6 134 -2 108 -2 c 2
 100 -2 l 2
 70 -2 62 6 62 20 c 1
 131 680 l 2
 132 694 145 702 173 702 c 2
 181 702 l 2
 210 702 219 694 219 680 c 1
 189 397 l 1
 551 397 l 1
 581 680 l 2
 582 694 594 702 623 702 c 2
 631 702 l 2
EndSplineSet
Position2: "'cpsp' Capital Spacing lookup 3 subtable" dx=5 dy=0 dh=10 dv=0
EndChar

StartChar: Hdotbelow
Encoding: 7716 7716 69
Width: 733
Flags: MW
HStem: -173 95<325 343> -2 21G<85 100 100 108 535 550 550 558> 321 76<189 543 181 551> 682 20G<173 181 181 195.5 623 631 631 645.5>
VStem: 290 89<-158 -93>
LayerCount: 2
Fore
SplineSet
631 702 m 2
 660 702 669 694 669 680 c 1
 600 20 l 2
 598 6 584 -2 558 -2 c 2
 550 -2 l 2
 520 -2 512 6 512 20 c 1
 543 321 l 1
 181 321 l 1
 150 20 l 2
 148 6 134 -2 108 -2 c 2
 100 -2 l 2
 70 -2 62 6 62 20 c 1
 131 680 l 2
 132 694 145 702 173 702 c 2
 181 702 l 2
 210 702 219 694 219 680 c 1
 189 397 l 1
 551 397 l 1
 581 680 l 2
 582 694 594 702 623 702 c 2
 631 702 l 2
295 -100 m 2
 297 -87 309 -78 341 -78 c 0
 370 -78 379 -86 379 -100 c 1
 374 -151 l 2
 372 -164 358 -173 328 -173 c 0
 298 -173 290 -165 290 -151 c 1
 295 -100 l 2
EndSplineSet
Position2: "'cpsp' Capital Spacing lookup 3 subtable" dx=5 dy=0 dh=10 dv=0
EndChar

StartChar: I
Encoding: 73 73 70
Width: 282
Flags: MW
HStem: -2 21G<85 100 100 108> 682 20G<173 181 181 195.5>
VStem: 62 157
LayerCount: 2
Fore
SplineSet
181 702 m 2
 210 702 219 694 219 680 c 1
 150 20 l 2
 148 6 134 -2 108 -2 c 2
 100 -2 l 2
 70 -2 62 6 62 20 c 1
 131 680 l 2
 132 694 145 702 173 702 c 2
 181 702 l 2
EndSplineSet
Position2: "'cpsp' Capital Spacing lookup 3 subtable" dx=5 dy=0 dh=10 dv=0
EndChar

StartChar: IJ
Encoding: 306 306 71
Width: 684
Flags: MW
HStem: -6 82<337.5 398.5 332 432.5> -2 21G<85 100 100 108> 682 20G<173 181 181 195.5 590 598 598 612.5>
VStem: 62 574
LayerCount: 2
Fore
SplineSet
181 702 m 2xb0
 210 702 219 694 219 680 c 1
 150 20 l 2
 148 6 134 -2 108 -2 c 2
 100 -2 l 2
 70 -2 62 6 62 20 c 1x70
 131 680 l 2
 132 694 145 702 173 702 c 2
 181 702 l 2xb0
598 702 m 2
 627 702 636 694 636 680 c 1
 586 205 l 2
 573 79 506 -6 359 -6 c 0
 316 -6 271 1 271 26 c 0
 271 70 277 85 286 85 c 0
 295 85 312 76 352 76 c 0
 445 76 488 115 497 201 c 2
 548 680 l 2
 549 694 561 702 590 702 c 2
 598 702 l 2
EndSplineSet
Position2: "'cpsp' Capital Spacing lookup 3 subtable" dx=5 dy=0 dh=10 dv=0
EndChar

StartChar: Iacute
Encoding: 205 205 72
Width: 282
Flags: MW
HStem: -2 21G<85 100 100 108> 682 20G<173 181 181 195.5>
VStem: 62 261
LayerCount: 2
Fore
SplineSet
276 909 m 0
 307 909 323 906 323 897 c 0
 323 886 312 877 217 780 c 0
 205 768 184 762 164 762 c 0
 149 762 142 765 142 771 c 0
 142 780 154 800 211 883 c 0
 224 902 244 909 276 909 c 0
181 702 m 2
 210 702 219 694 219 680 c 1
 150 20 l 2
 148 6 134 -2 108 -2 c 2
 100 -2 l 2
 70 -2 62 6 62 20 c 1
 131 680 l 2
 132 694 145 702 173 702 c 2
 181 702 l 2
EndSplineSet
Position2: "'cpsp' Capital Spacing lookup 3 subtable" dx=5 dy=0 dh=10 dv=0
EndChar

StartChar: Ibreve
Encoding: 300 300 73
Width: 282
Flags: MW
HStem: -2 21G<85 100 100 108> 682 20G<173 181 181 195.5> 762 66<167.5 216 167.5 218.5>
VStem: 51 290<840.5 873.5>
LayerCount: 2
Fore
SplineSet
327 892 m 0
 337 892 341 888 341 880 c 0
 341 801 252 762 185 762 c 0
 117 762 51 796 51 865 c 0
 51 882 53 892 68 892 c 0
 85 892 81 883 88 867 c 0
 100 839 143 828 192 828 c 0
 240 828 285 839 303 867 c 0
 313 883 309 892 327 892 c 0
181 702 m 2
 210 702 219 694 219 680 c 1
 150 20 l 2
 148 6 134 -2 108 -2 c 2
 100 -2 l 2
 70 -2 62 6 62 20 c 1
 131 680 l 2
 132 694 145 702 173 702 c 2
 181 702 l 2
EndSplineSet
Position2: "'cpsp' Capital Spacing lookup 3 subtable" dx=5 dy=0 dh=10 dv=0
EndChar

StartChar: Icircumflex
Encoding: 206 206 74
Width: 282
Flags: MW
HStem: -2 21G<85 100 100 108> 682 20G<173 181 181 195.5> 753 142<73 205 80 205 180 273 180 275>
VStem: 59 242<761 770.5>
LayerCount: 2
Fore
SplineSet
205 895 m 2
 224 895 241 888 249 873 c 2
 296 785 l 2
 300 779 301 773 301 768 c 0
 300 759 291 753 275 753 c 2
 273 753 l 2
 260 753 250 757 241 766 c 1
 186 840 l 1
 117 766 l 1
 106 757 96 753 82 753 c 2
 80 753 l 2
 66 753 59 757 59 765 c 0
 59 771 61 777 66 785 c 2
 132 873 l 2
 143 888 160 895 180 895 c 2
 205 895 l 2
181 702 m 2
 210 702 219 694 219 680 c 1
 150 20 l 2
 148 6 134 -2 108 -2 c 2
 100 -2 l 2
 70 -2 62 6 62 20 c 1
 131 680 l 2
 132 694 145 702 173 702 c 2
 181 702 l 2
EndSplineSet
Position2: "'cpsp' Capital Spacing lookup 3 subtable" dx=5 dy=0 dh=10 dv=0
EndChar

StartChar: Idieresis
Encoding: 207 207 75
Width: 282
Flags: MW
HStem: -2 21G<85 100 100 108> 682 20G<173 181 181 195.5> 784 95<109 127 253 271>
VStem: 74 89<799 864> 218 89<799 864>
LayerCount: 2
Fore
SplineSet
79 857 m 2
 81 870 93 879 125 879 c 0
 154 879 163 871 163 857 c 1
 158 806 l 2
 156 793 142 784 112 784 c 0
 82 784 74 792 74 806 c 1
 79 857 l 2
223 857 m 2
 224 870 237 879 269 879 c 0
 298 879 307 871 307 857 c 1
 302 806 l 2
 300 793 286 784 256 784 c 0
 226 784 218 792 218 806 c 1
 223 857 l 2
181 702 m 2
 210 702 219 694 219 680 c 1
 150 20 l 2
 148 6 134 -2 108 -2 c 2
 100 -2 l 2
 70 -2 62 6 62 20 c 1
 131 680 l 2
 132 694 145 702 173 702 c 2
 181 702 l 2
EndSplineSet
Position2: "'cpsp' Capital Spacing lookup 3 subtable" dx=5 dy=0 dh=10 dv=0
EndChar

StartChar: Idotaccent
Encoding: 304 304 76
Width: 282
Flags: MW
HStem: -2 21G<85 100 100 108> 682 20G<173 181 181 195.5> 784 95<181 199>
VStem: 146 89<799 864>
LayerCount: 2
Fore
SplineSet
151 857 m 2
 153 870 165 879 197 879 c 0
 226 879 235 871 235 857 c 1
 230 806 l 2
 228 793 214 784 184 784 c 0
 154 784 146 792 146 806 c 1
 151 857 l 2
181 702 m 2
 210 702 219 694 219 680 c 1
 150 20 l 2
 148 6 134 -2 108 -2 c 2
 100 -2 l 2
 70 -2 62 6 62 20 c 1
 131 680 l 2
 132 694 145 702 173 702 c 2
 181 702 l 2
EndSplineSet
Position2: "'cpsp' Capital Spacing lookup 3 subtable" dx=5 dy=0 dh=10 dv=0
EndChar

StartChar: Idotbelow
Encoding: 7882 7882 77
Width: 282
Flags: MW
HStem: -175 95<77 95> -2 21G<85 100 100 108> 682 20G<173 181 181 195.5>
VStem: 42 89<-160 -95>
LayerCount: 2
Fore
SplineSet
181 702 m 2
 210 702 219 694 219 680 c 1
 150 20 l 2
 148 6 134 -2 108 -2 c 2
 100 -2 l 2
 70 -2 62 6 62 20 c 1
 131 680 l 2
 132 694 145 702 173 702 c 2
 181 702 l 2
47 -102 m 2
 49 -89 61 -80 93 -80 c 0
 122 -80 131 -88 131 -102 c 1
 126 -153 l 2
 124 -166 110 -175 80 -175 c 0
 50 -175 42 -167 42 -153 c 1
 47 -102 l 2
EndSplineSet
Position2: "'cpsp' Capital Spacing lookup 3 subtable" dx=5 dy=0 dh=10 dv=0
EndChar

StartChar: Igrave
Encoding: 204 204 78
Width: 282
Flags: MW
HStem: -2 21G<85 100 100 108> 682 20G<173 181 181 195.5>
VStem: 61 168<768 897>
LayerCount: 2
Fore
SplineSet
109 909 m 0
 141 909 160 902 171 883 c 0
 220 799 229 780 229 771 c 0
 229 765 221 762 206 762 c 0
 186 762 165 768 155 780 c 0
 70 877 61 885 61 897 c 1
 62 906 78 909 109 909 c 0
181 702 m 2
 210 702 219 694 219 680 c 1
 150 20 l 2
 148 6 134 -2 108 -2 c 2
 100 -2 l 2
 70 -2 62 6 62 20 c 1
 131 680 l 2
 132 694 145 702 173 702 c 2
 181 702 l 2
EndSplineSet
Position2: "'cpsp' Capital Spacing lookup 3 subtable" dx=5 dy=0 dh=10 dv=0
EndChar

StartChar: Ihookabove
Encoding: 7880 7880 79
Width: 282
Flags: MW
HStem: -2 21G<85 100 100 108> 682 20G<173 181 181 195.5> 876 51<185.5 200>
VStem: 224 66<825 859>
LayerCount: 2
Fore
SplineSet
224 851 m 0
 224 867 210 876 190 876 c 0
 159 876 147 863 142 863 c 0
 134 863 122 886 122 896 c 0
 122 909 168 927 203 927 c 0
 237 927 290 911 290 857 c 0
 290 787 201 740 191 740 c 0
 170 740 152 748 152 757 c 0
 152 784 224 799 224 851 c 0
181 702 m 2
 210 702 219 694 219 680 c 1
 150 20 l 2
 148 6 134 -2 108 -2 c 2
 100 -2 l 2
 70 -2 62 6 62 20 c 1
 131 680 l 2
 132 694 145 702 173 702 c 2
 181 702 l 2
EndSplineSet
Position2: "'cpsp' Capital Spacing lookup 3 subtable" dx=5 dy=0 dh=10 dv=0
EndChar

StartChar: Imacron
Encoding: 298 298 80
Width: 282
Flags: MW
HStem: -2 21G<85 100 100 108> 682 20G<173 181 181 195.5> 789 71<56 297 71 289>
VStem: 46 268<808 842>
LayerCount: 2
Fore
SplineSet
297 860 m 2
 311 860 314 850 314 834 c 0
 314 823 313 789 289 789 c 2
 63 789 l 2
 49 789 46 800 46 816 c 0
 46 827 47 860 71 860 c 2
 297 860 l 2
181 702 m 2
 210 702 219 694 219 680 c 1
 150 20 l 2
 148 6 134 -2 108 -2 c 2
 100 -2 l 2
 70 -2 62 6 62 20 c 1
 131 680 l 2
 132 694 145 702 173 702 c 2
 181 702 l 2
EndSplineSet
Position2: "'cpsp' Capital Spacing lookup 3 subtable" dx=5 dy=0 dh=10 dv=0
EndChar

StartChar: Iogonek
Encoding: 302 302 81
Width: 282
Flags: MW
HStem: -183 70<156 169.5> 0 21G 682 20G<173 181 181 195.5>
VStem: 40 69<-90 -85>
LayerCount: 2
Fore
SplineSet
150 20 m 2
 149 10 141 3 128 0 c 1
 127 -16 109 -43 109 -70 c 0
 109 -110 145 -113 167 -113 c 0
 198 -113 222 -95 231 -95 c 0
 235 -95 237 -99 237 -108 c 0
 237 -173 191 -183 148 -183 c 0
 54 -183 40 -127 40 -94 c 0
 40 -76 48 -24 77 1 c 1
 65 4 62 11 62 20 c 2
 131 680 l 2
 132 694 145 702 173 702 c 2
 181 702 l 2
 210 702 219 694 219 680 c 1
 150 20 l 2
EndSplineSet
Position2: "'cpsp' Capital Spacing lookup 3 subtable" dx=5 dy=0 dh=10 dv=0
EndChar

StartChar: Itilde
Encoding: 296 296 82
Width: 282
Flags: MW
HStem: -2 21G<85 100 100 108> 682 20G<173 181 181 195.5> 762 64<250 263.5> 793 64<130 143.5>
VStem: 44 306<797 829>
LayerCount: 2
Fore
SplineSet
308 848 m 0xe8
 313 852 319 855 324 855 c 0
 330 855 336 852 341 846 c 0
 347 839 350 832 350 826 c 0
 350 819 346 812 340 806 c 0
 313 781 282 762 245 762 c 0xe8
 211 762 193 770 177 778 c 0
 161 786 149 793 138 793 c 0
 118 793 104 783 89 774 c 0
 82 770 76 768 70 768 c 0
 62 768 56 772 51 780 c 0
 46 787 44 794 44 800 c 0
 44 807 47 812 52 816 c 0
 78 837 112 857 148 857 c 0xd8
 183 857 203 845 217 839 c 0
 231 832 244 826 256 826 c 0
 276 826 292 836 308 848 c 0xe8
181 702 m 2
 210 702 219 694 219 680 c 1
 150 20 l 2
 148 6 134 -2 108 -2 c 2
 100 -2 l 2
 70 -2 62 6 62 20 c 1
 131 680 l 2
 132 694 145 702 173 702 c 2
 181 702 l 2
EndSplineSet
Position2: "'cpsp' Capital Spacing lookup 3 subtable" dx=5 dy=0 dh=10 dv=0
EndChar

StartChar: J
Encoding: 74 74 83
Width: 402
Flags: MW
HStem: -6 82<55.5 116.5 50 150.5> 682 20G<308 316 316 330.5>
VStem: -11 365
LayerCount: 2
Fore
SplineSet
316 702 m 2
 345 702 354 694 354 680 c 1
 304 205 l 2
 291 79 224 -6 77 -6 c 0
 34 -6 -11 1 -11 26 c 0
 -11 70 -5 85 4 85 c 0
 13 85 30 76 70 76 c 0
 163 76 206 115 215 201 c 2
 266 680 l 2
 267 694 279 702 308 702 c 2
 316 702 l 2
EndSplineSet
Position2: "'cpsp' Capital Spacing lookup 3 subtable" dx=5 dy=0 dh=10 dv=0
EndChar

StartChar: Jcircumflex
Encoding: 308 308 84
Width: 402
Flags: MW
HStem: -6 82<55.5 116.5 50 150.5> 682 20G<308 316 316 330.5> 755 142<201 333 208 333 308 401 308 403>
VStem: -11 440
LayerCount: 2
Fore
SplineSet
333 897 m 2
 352 897 369 890 377 875 c 2
 424 787 l 2
 428 781 429 775 429 770 c 0
 428 761 419 755 403 755 c 2
 401 755 l 2
 388 755 378 759 369 768 c 1
 314 842 l 1
 245 768 l 1
 234 759 224 755 210 755 c 2
 208 755 l 2
 194 755 187 759 187 767 c 0
 187 773 189 779 194 787 c 2
 260 875 l 2
 271 890 288 897 308 897 c 2
 333 897 l 2
316 702 m 2
 345 702 354 694 354 680 c 1
 304 205 l 2
 291 79 224 -6 77 -6 c 0
 34 -6 -11 1 -11 26 c 0
 -11 70 -5 85 4 85 c 0
 13 85 30 76 70 76 c 0
 163 76 206 115 215 201 c 2
 266 680 l 2
 267 694 279 702 308 702 c 2
 316 702 l 2
EndSplineSet
Position2: "'cpsp' Capital Spacing lookup 3 subtable" dx=5 dy=0 dh=10 dv=0
EndChar

StartChar: K
Encoding: 75 75 85
Width: 576
Flags: MW
HStem: -2 21G<67 82 82 90 460.5 475 475 482> 682 20G<155 163 163 177.5 505 515 515 526.5>
VStem: 44 505
LayerCount: 2
Fore
SplineSet
515 702 m 2
 538 702 549 696 549 690 c 0
 549 684 545 677 537 669 c 2
 259 360 l 1
 520 28 l 2
 526 20 527 16 527 12 c 0
 526 1 513 -2 482 -2 c 2
 475 -2 l 2
 446 -2 430 0 421 11 c 2
 169 333 l 1
 165 333 l 1
 132 20 l 2
 130 6 115 -2 90 -2 c 2
 82 -2 l 2
 52 -2 44 6 44 20 c 1
 113 680 l 2
 114 694 127 702 155 702 c 2
 163 702 l 2
 192 702 201 694 201 680 c 1
 169 374 l 1
 173 374 l 1
 450 688 l 2
 460 699 483 702 505 702 c 2
 515 702 l 2
EndSplineSet
Position2: "'cpsp' Capital Spacing lookup 3 subtable" dx=5 dy=0 dh=10 dv=0
EndChar

StartChar: Kcommaaccent
Encoding: 310 310 86
Width: 576
Flags: MW
HStem: -235 21G<174.5 196.5> -2 21G<67 82 82 90 460.5 475 475 482> 682 20G<155 163 163 177.5 505 515 515 526.5>
VStem: 210 90<-108 -73.5>
LayerCount: 2
Fore
SplineSet
515 702 m 2
 538 702 549 696 549 690 c 0
 549 684 545 677 537 669 c 2
 259 360 l 1
 520 28 l 2
 526 20 527 16 527 12 c 0
 526 1 513 -2 482 -2 c 2
 475 -2 l 2
 446 -2 430 0 421 11 c 2
 169 333 l 1
 165 333 l 1
 132 20 l 2
 130 6 115 -2 90 -2 c 2
 82 -2 l 2
 52 -2 44 6 44 20 c 1
 113 680 l 2
 114 694 127 702 155 702 c 2
 163 702 l 2
 192 702 201 694 201 680 c 1
 169 374 l 1
 173 374 l 1
 450 688 l 2
 460 699 483 702 505 702 c 2
 515 702 l 2
263 -51 m 2
 288 -51 300 -62 300 -79 c 0
 300 -137 213 -235 180 -235 c 0
 169 -235 153 -232 153 -220 c 0
 153 -189 210 -147 210 -83 c 0
 210 -64 227 -51 254 -51 c 2
 263 -51 l 2
EndSplineSet
Position2: "'cpsp' Capital Spacing lookup 3 subtable" dx=5 dy=0 dh=10 dv=0
EndChar

StartChar: L
Encoding: 76 76 87
Width: 484
Flags: MW
HStem: 0 76<66 434 143 426> 682 20G<160 168 168 182.5>
VStem: 50 401<19.5 61.5>
LayerCount: 2
Fore
SplineSet
168 702 m 2
 197 702 206 694 206 680 c 1
 143 76 l 1
 434 76 l 2
 446 76 451 69 451 54 c 0
 451 31 451 0 426 0 c 2
 77 0 l 2
 55 0 50 9 50 30 c 1
 118 680 l 2
 119 694 132 702 160 702 c 2
 168 702 l 2
EndSplineSet
Position2: "'cpsp' Capital Spacing lookup 3 subtable" dx=5 dy=0 dh=10 dv=0
EndChar

StartChar: LJ
Encoding: 455 455 88
Width: 718
Flags: MW
HStem: -159 82<342.5 403.5 337 437.5> 0 76<66 350 143 342> 682 20G<160 168 168 182.5 611 619 619 633.5>
VStem: 50 607
LayerCount: 2
Fore
SplineSet
168 702 m 2
 197 702 206 694 206 680 c 1
 143 76 l 1
 350 76 l 2
 362 76 367 69 367 54 c 0
 367 31 367 0 342 0 c 2
 77 0 l 2
 55 0 50 9 50 30 c 1
 118 680 l 2
 119 694 132 702 160 702 c 2
 168 702 l 2
619 702 m 2
 648 702 657 694 657 680 c 1
 591 52 l 2
 578 -74 511 -159 364 -159 c 0
 321 -159 276 -152 276 -127 c 0
 276 -83 282 -68 291 -68 c 0
 300 -68 317 -77 357 -77 c 0
 450 -77 493 -38 502 48 c 2
 569 680 l 2
 570 694 582 702 611 702 c 2
 619 702 l 2
EndSplineSet
Position2: "'cpsp' Capital Spacing lookup 3 subtable" dx=5 dy=0 dh=10 dv=0
EndChar

StartChar: Lacute
Encoding: 313 313 89
Width: 484
Flags: MW
HStem: 0 76<66 434 143 426> 682 20G<160 168 168 182.5>
VStem: 50 401<19.5 61.5>
LayerCount: 2
Fore
SplineSet
264 911 m 0
 295 911 311 908 311 899 c 0
 311 888 300 879 205 782 c 0
 193 770 172 764 152 764 c 0
 137 764 130 767 130 773 c 0
 130 782 142 802 199 885 c 0
 212 904 232 911 264 911 c 0
168 702 m 2
 197 702 206 694 206 680 c 1
 143 76 l 1
 434 76 l 2
 446 76 451 69 451 54 c 0
 451 31 451 0 426 0 c 2
 77 0 l 2
 55 0 50 9 50 30 c 1
 118 680 l 2
 119 694 132 702 160 702 c 2
 168 702 l 2
EndSplineSet
Position2: "'cpsp' Capital Spacing lookup 3 subtable" dx=5 dy=0 dh=10 dv=0
EndChar

StartChar: Lcaron
Encoding: 317 317 90
Width: 484
Flags: MW
HStem: 0 76<66 434 143 426> 680 20G 682 20G<160 168 168 182.5>
VStem: 352 90<647 677.5>
LayerCount: 2
Fore
SplineSet
168 702 m 2xb0
 197 702 206 694 206 680 c 1
 143 76 l 1
 434 76 l 2
 446 76 451 69 451 54 c 0
 451 31 451 0 426 0 c 2
 77 0 l 2
 55 0 50 9 50 30 c 1
 118 680 l 2
 119 694 132 702 160 702 c 2
 168 702 l 2xb0
405 700 m 2xd0
 430 700 442 689 442 672 c 0
 442 622 376 536 352 536 c 0
 341 536 325 539 325 551 c 0
 325 578 352 614 352 668 c 0
 352 687 369 700 396 700 c 2
 405 700 l 2xd0
EndSplineSet
Position2: "'cpsp' Capital Spacing lookup 3 subtable" dx=5 dy=0 dh=10 dv=0
EndChar

StartChar: Lcommaaccent
Encoding: 315 315 91
Width: 484
Flags: MW
HStem: -235 21G<156.5 178.5> 0 76<66 434 143 426> 682 20G<160 168 168 182.5>
VStem: 192 90<-108 -73.5>
LayerCount: 2
Fore
SplineSet
168 702 m 2
 197 702 206 694 206 680 c 1
 143 76 l 1
 434 76 l 2
 446 76 451 69 451 54 c 0
 451 31 451 0 426 0 c 2
 77 0 l 2
 55 0 50 9 50 30 c 1
 118 680 l 2
 119 694 132 702 160 702 c 2
 168 702 l 2
245 -51 m 2
 270 -51 282 -62 282 -79 c 0
 282 -137 195 -235 162 -235 c 0
 151 -235 135 -232 135 -220 c 0
 135 -189 192 -147 192 -83 c 0
 192 -64 209 -51 236 -51 c 2
 245 -51 l 2
EndSplineSet
Position2: "'cpsp' Capital Spacing lookup 3 subtable" dx=5 dy=0 dh=10 dv=0
EndChar

StartChar: Ldot
Encoding: 319 319 92
Width: 484
Flags: MW
HStem: 0 76<66 434 143 426> 309 103<289.5 310.5> 682 20G<160 168 168 182.5>
VStem: 249 103<348.5 370.5>
LayerCount: 2
Fore
SplineSet
168 702 m 2
 197 702 206 694 206 680 c 1
 143 76 l 1
 434 76 l 2
 446 76 451 69 451 54 c 0
 451 31 451 0 426 0 c 2
 77 0 l 2
 55 0 50 9 50 30 c 1
 118 680 l 2
 119 694 132 702 160 702 c 2
 168 702 l 2
306 412 m 0
 333 412 352 392 352 366 c 0
 352 331 326 309 295 309 c 0
 268 309 249 328 249 354 c 0
 249 387 273 412 306 412 c 0
EndSplineSet
Ligature2: "Ligature Substitution lookup 20 subtable" L periodcentered
Position2: "'cpsp' Capital Spacing lookup 3 subtable" dx=5 dy=0 dh=10 dv=0
EndChar

StartChar: Lj
Encoding: 456 456 93
Width: 760
Flags: MW
HStem: -212 72<472 499.5 466.5 520.5> 0 76<66 434 143 426> 649 103<647 678 666 672> 682 20G<160 168 168 182.5>
VStem: 618 98<662 738>
LayerCount: 2
Fore
SplineSet
678 752 m 2xe8
 706 752 716 746 716 730 c 1
 710 671 l 1
 710 658 700 649 672 649 c 2
 660 649 l 2
 634 649 618 653 618 671 c 1
 624 730 l 2
 626 746 640 752 666 752 c 2
 678 752 l 2xe8
168 702 m 2xd8
 197 702 206 694 206 680 c 1
 143 76 l 1
 434 76 l 2
 446 76 451 69 451 54 c 0
 451 31 451 0 426 0 c 2
 77 0 l 2
 55 0 50 9 50 30 c 1
 118 680 l 2
 119 694 132 702 160 702 c 2
 168 702 l 2xd8
650 525 m 2
 678 525 688 518 688 503 c 1
 627 -74 l 2
 615 -190 546 -212 495 -212 c 0
 449 -212 417 -195 417 -171 c 0
 417 -129 423 -123 428 -123 c 0
 436 -123 449 -140 484 -140 c 0
 515 -140 538 -126 544 -66 c 2
 604 503 l 2
 606 518 620 525 646 525 c 2
 650 525 l 2
EndSplineSet
Position2: "'cpsp' Capital Spacing lookup 3 subtable" dx=5 dy=0 dh=10 dv=0
EndChar

StartChar: Lslash
Encoding: 321 321 94
Width: 486
Flags: MW
HStem: 0 76<67 435 144 427> 682 20G<161 169 169 183.5>
VStem: -5 457<42.5 328>
LayerCount: 2
Fore
SplineSet
169 702 m 2
 198 702 207 694 207 680 c 1
 183 447 l 1
 297 511 l 2
 301 513 305 515 308 515 c 0
 313 515 315 510 315 501 c 0
 315 481 305 472 292 465 c 2
 178 401 l 1
 144 76 l 1
 435 76 l 2
 447 76 452 69 452 54 c 0
 452 31 452 0 427 0 c 2
 78 0 l 2
 56 0 51 9 51 30 c 1
 84 348 l 1
 12 308 l 2
 8 306 4 304 2 304 c 0
 -3 304 -5 309 -5 318 c 0
 -5 338 5 347 17 354 c 2
 89 394 l 1
 119 680 l 2
 120 694 133 702 161 702 c 2
 169 702 l 2
EndSplineSet
Position2: "'cpsp' Capital Spacing lookup 3 subtable" dx=5 dy=0 dh=10 dv=0
EndChar

StartChar: M
Encoding: 77 77 95
Width: 843
Flags: MW
HStem: -2 21G<77 92 92 99 653 668 668 675> 682 20G<165 201 201 213 715 748 748 762.5>
VStem: 54 732<13 687>
LayerCount: 2
Fore
SplineSet
748 702 m 2
 777 702 786 694 786 680 c 1
 717 20 l 2
 715 6 701 -2 675 -2 c 2
 668 -2 l 2
 638 -2 630 6 630 20 c 1
 686 558 l 1
 683 554 l 1
 449 208 l 2
 443 199 436 195 425 195 c 2
 385 195 l 2
 375 195 369 199 365 208 c 2
 201 558 l 1
 198 564 l 1
 141 20 l 2
 139 6 125 -2 99 -2 c 2
 92 -2 l 2
 62 -2 54 6 54 20 c 1
 123 680 l 2
 124 694 137 702 165 702 c 2
 201 702 l 2
 225 702 237 695 242 684 c 2
 396 356 l 1
 416 293 l 1
 448 350 l 1
 672 684 l 2
 679 695 691 702 715 702 c 2
 748 702 l 2
EndSplineSet
Position2: "'cpsp' Capital Spacing lookup 3 subtable" dx=5 dy=0 dh=10 dv=0
EndChar

StartChar: N
Encoding: 78 78 96
Width: 719
Flags: MW
HStem: -2 21G<75 90 90 97 525.5 535 535 555> 682 20G<163 184 184 195 621 628 628 642.5>
VStem: 52 614
LayerCount: 2
Fore
SplineSet
628 702 m 2
 657 702 666 694 666 680 c 1
 597 20 l 2
 595 6 581 -2 555 -2 c 2
 535 -2 l 2
 516 -2 506 3 501 12 c 2
 217 510 l 1
 196 561 l 1
 139 20 l 2
 137 6 123 -2 97 -2 c 2
 90 -2 l 2
 60 -2 52 6 52 20 c 1
 121 680 l 2
 122 694 135 702 163 702 c 2
 184 702 l 2
 206 702 216 697 224 683 c 2
 499 201 l 1
 523 145 l 1
 579 680 l 2
 580 694 593 702 621 702 c 2
 628 702 l 2
EndSplineSet
Position2: "'cpsp' Capital Spacing lookup 3 subtable" dx=5 dy=0 dh=10 dv=0
EndChar

StartChar: NJ
Encoding: 458 458 97
Width: 1121
Flags: MW
HStem: -6 82<774.5 835.5 769 869.5> -2 21G<75 90 90 97 525.5 535 535 555> 682 20G<163 184 184 195 621 628 628 642.5 1027 1035 1035 1049.5>
VStem: 52 1021<13 687>
LayerCount: 2
Fore
SplineSet
628 702 m 2xb0
 657 702 666 694 666 680 c 1
 597 20 l 2
 595 6 581 -2 555 -2 c 2
 535 -2 l 2
 516 -2 506 3 501 12 c 2
 217 510 l 1
 196 561 l 1
 139 20 l 2
 137 6 123 -2 97 -2 c 2
 90 -2 l 2
 60 -2 52 6 52 20 c 1x70
 121 680 l 2
 122 694 135 702 163 702 c 2
 184 702 l 2
 206 702 216 697 224 683 c 2
 499 201 l 1
 523 145 l 1
 579 680 l 2
 580 694 593 702 621 702 c 2
 628 702 l 2xb0
1035 702 m 2
 1064 702 1073 694 1073 680 c 1
 1023 205 l 2
 1010 79 943 -6 796 -6 c 0
 753 -6 708 1 708 26 c 0
 708 70 714 85 723 85 c 0
 732 85 749 76 789 76 c 0
 882 76 925 115 934 201 c 2
 985 680 l 2
 986 694 998 702 1027 702 c 2
 1035 702 l 2
EndSplineSet
Position2: "'cpsp' Capital Spacing lookup 3 subtable" dx=5 dy=0 dh=10 dv=0
EndChar

StartChar: Nacute
Encoding: 323 323 98
Width: 719
Flags: MW
HStem: -2 21G<75 90 90 97 525.5 535 535 555> 682 20G<163 184 184 195 621 628 628 642.5>
VStem: 52 614
LayerCount: 2
Fore
SplineSet
487 909 m 0
 518 909 534 906 534 897 c 0
 534 886 523 877 428 780 c 0
 416 768 395 762 375 762 c 0
 360 762 353 765 353 771 c 0
 353 780 365 800 422 883 c 0
 435 902 455 909 487 909 c 0
628 702 m 2
 657 702 666 694 666 680 c 1
 597 20 l 2
 595 6 581 -2 555 -2 c 2
 535 -2 l 2
 516 -2 506 3 501 12 c 2
 217 510 l 1
 196 561 l 1
 139 20 l 2
 137 6 123 -2 97 -2 c 2
 90 -2 l 2
 60 -2 52 6 52 20 c 1
 121 680 l 2
 122 694 135 702 163 702 c 2
 184 702 l 2
 206 702 216 697 224 683 c 2
 499 201 l 1
 523 145 l 1
 579 680 l 2
 580 694 593 702 621 702 c 2
 628 702 l 2
EndSplineSet
Substitution2: "'locl' Localized Forms in Latin lookup 12 subtable" Nacute.loclPLK
Substitution2: "'aalt' Access All Alternates lookup 0 subtable" Nacute.loclPLK
Position2: "'cpsp' Capital Spacing lookup 3 subtable" dx=5 dy=0 dh=10 dv=0
EndChar

StartChar: Ncaron
Encoding: 327 327 99
Width: 719
Flags: MW
HStem: -2 21G<75 90 90 97 525.5 535 535 555> 682 20G<163 184 184 195 621 628 628 642.5> 759 142<314 384 314 409>
VStem: 52 614
LayerCount: 2
Fore
SplineSet
509 901 m 2
 524 901 531 896 531 887 c 0
 531 882 529 876 524 869 c 2
 457 781 l 2
 446 766 429 759 409 759 c 2
 384 759 l 2
 365 759 348 766 340 781 c 2
 294 869 l 2
 290 876 289 882 289 887 c 0
 290 896 299 901 314 901 c 2
 316 901 l 2
 330 901 340 897 349 888 c 1
 402 814 l 1
 473 888 l 1
 484 897 494 901 507 901 c 2
 509 901 l 2
628 702 m 2
 657 702 666 694 666 680 c 1
 597 20 l 2
 595 6 581 -2 555 -2 c 2
 535 -2 l 2
 516 -2 506 3 501 12 c 2
 217 510 l 1
 196 561 l 1
 139 20 l 2
 137 6 123 -2 97 -2 c 2
 90 -2 l 2
 60 -2 52 6 52 20 c 1
 121 680 l 2
 122 694 135 702 163 702 c 2
 184 702 l 2
 206 702 216 697 224 683 c 2
 499 201 l 1
 523 145 l 1
 579 680 l 2
 580 694 593 702 621 702 c 2
 628 702 l 2
EndSplineSet
Position2: "'cpsp' Capital Spacing lookup 3 subtable" dx=5 dy=0 dh=10 dv=0
EndChar

StartChar: Ncommaaccent
Encoding: 325 325 100
Width: 719
Flags: MW
HStem: -235 21G<250.5 272.5> -2 21G<75 90 90 97 525.5 535 535 555> 682 20G<163 184 184 195 621 628 628 642.5>
VStem: 286 90<-108 -73.5>
LayerCount: 2
Fore
SplineSet
628 702 m 2
 657 702 666 694 666 680 c 1
 597 20 l 2
 595 6 581 -2 555 -2 c 2
 535 -2 l 2
 516 -2 506 3 501 12 c 2
 217 510 l 1
 196 561 l 1
 139 20 l 2
 137 6 123 -2 97 -2 c 2
 90 -2 l 2
 60 -2 52 6 52 20 c 1
 121 680 l 2
 122 694 135 702 163 702 c 2
 184 702 l 2
 206 702 216 697 224 683 c 2
 499 201 l 1
 523 145 l 1
 579 680 l 2
 580 694 593 702 621 702 c 2
 628 702 l 2
339 -51 m 2
 364 -51 376 -62 376 -79 c 0
 376 -137 289 -235 256 -235 c 0
 245 -235 229 -232 229 -220 c 0
 229 -189 286 -147 286 -83 c 0
 286 -64 303 -51 330 -51 c 2
 339 -51 l 2
EndSplineSet
Position2: "'cpsp' Capital Spacing lookup 3 subtable" dx=5 dy=0 dh=10 dv=0
EndChar

StartChar: Ndotaccent
Encoding: 7748 7748 101
Width: 719
Flags: MW
HStem: -2 21G<75 90 90 97 525.5 535 535 555> 682 20G<163 184 184 195 621 628 628 642.5> 784 95<392 410>
VStem: 357 89<799 864>
LayerCount: 2
Fore
SplineSet
362 857 m 2
 364 870 376 879 408 879 c 0
 437 879 446 871 446 857 c 1
 441 806 l 2
 439 793 425 784 395 784 c 0
 365 784 357 792 357 806 c 1
 362 857 l 2
628 702 m 2
 657 702 666 694 666 680 c 1
 597 20 l 2
 595 6 581 -2 555 -2 c 2
 535 -2 l 2
 516 -2 506 3 501 12 c 2
 217 510 l 1
 196 561 l 1
 139 20 l 2
 137 6 123 -2 97 -2 c 2
 90 -2 l 2
 60 -2 52 6 52 20 c 1
 121 680 l 2
 122 694 135 702 163 702 c 2
 184 702 l 2
 206 702 216 697 224 683 c 2
 499 201 l 1
 523 145 l 1
 579 680 l 2
 580 694 593 702 621 702 c 2
 628 702 l 2
EndSplineSet
Position2: "'cpsp' Capital Spacing lookup 3 subtable" dx=5 dy=0 dh=10 dv=0
EndChar

StartChar: Eng
Encoding: 330 330 102
Width: 719
Flags: MW
HStem: -212 72<432 459.5 426.5 480.5> -2 21G<75 90 90 97> 682 20G<163 184 184 195 621 628 628 642.5>
VStem: 507.5 84.5
LayerCount: 2
Fore
SplineSet
648 506 m 1
 648 503 l 1
 603 73 l 1
 597 20 l 1
 587 -74 l 2
 575 -190 506 -212 455 -212 c 0
 409 -212 377 -195 377 -171 c 0
 377 -129 383 -123 388 -123 c 0
 396 -123 409 -140 444 -140 c 0
 475 -140 498 -126 504 -66 c 2
 511 -4 l 1
 217 510 l 1
 196 561 l 1
 139 20 l 2
 137 6 123 -2 97 -2 c 2
 90 -2 l 2
 60 -2 52 6 52 20 c 1
 121 680 l 2
 122 694 135 702 163 702 c 2
 184 702 l 2
 206 702 216 697 224 683 c 2
 499 201 l 1
 523 145 l 1
 579 680 l 2
 580 694 593 702 621 702 c 2
 628 702 l 2
 657 702 666 694 666 680 c 1
 648 506 l 1
EndSplineSet
Position2: "'cpsp' Capital Spacing lookup 3 subtable" dx=5 dy=0 dh=10 dv=0
EndChar

StartChar: Nj
Encoding: 459 459 103
Width: 995
Flags: MW
HStem: -212 72<707 734.5 701.5 755.5> -2 21G<75 90 90 97 525.5 535 535 555> 649 103<882 913 901 907> 682 20G<163 184 184 195 621 628 628 642.5>
VStem: 853 98<662 738>
LayerCount: 2
Fore
SplineSet
913 752 m 2xe8
 941 752 951 746 951 730 c 1
 945 671 l 1
 945 658 935 649 907 649 c 2
 895 649 l 2
 869 649 853 653 853 671 c 1
 859 730 l 2
 861 746 875 752 901 752 c 2
 913 752 l 2xe8
628 702 m 2xd8
 657 702 666 694 666 680 c 1
 597 20 l 2
 595 6 581 -2 555 -2 c 2
 535 -2 l 2
 516 -2 506 3 501 12 c 2
 217 510 l 1
 196 561 l 1
 139 20 l 2
 137 6 123 -2 97 -2 c 2
 90 -2 l 2
 60 -2 52 6 52 20 c 1
 121 680 l 2
 122 694 135 702 163 702 c 2
 184 702 l 2
 206 702 216 697 224 683 c 2
 499 201 l 1
 523 145 l 1
 579 680 l 2
 580 694 593 702 621 702 c 2
 628 702 l 2xd8
885 525 m 2
 913 525 923 518 923 503 c 1
 862 -74 l 2
 850 -190 781 -212 730 -212 c 0
 684 -212 652 -195 652 -171 c 0
 652 -129 658 -123 663 -123 c 0
 671 -123 684 -140 719 -140 c 0
 750 -140 773 -126 779 -66 c 2
 839 503 l 2
 841 518 855 525 881 525 c 2
 885 525 l 2
EndSplineSet
Position2: "'cpsp' Capital Spacing lookup 3 subtable" dx=5 dy=0 dh=10 dv=0
EndChar

StartChar: Ntilde
Encoding: 209 209 104
Width: 719
Flags: MW
HStem: -2 21G<75 90 90 97 525.5 535 535 555> 682 20G<163 184 184 195 621 628 628 642.5> 762 64<469 483.5> 793 64<335.5 350.5>
VStem: 52 614
LayerCount: 2
Fore
SplineSet
533 848 m 0xe8
 539 852 545 855 551 855 c 0
 558 855 564 852 570 846 c 0
 577 839 580 832 580 826 c 0
 580 819 576 812 569 806 c 0
 539 781 504 762 463 762 c 0xe8
 425 762 405 770 388 778 c 0
 370 786 357 793 344 793 c 0
 322 793 307 783 290 774 c 0
 282 770 275 768 269 768 c 0
 261 768 254 772 248 780 c 0
 243 787 240 794 240 800 c 0
 240 807 244 812 249 816 c 0
 278 837 315 857 356 857 c 0xd8
 394 857 417 845 432 839 c 0
 448 832 462 826 476 826 c 0
 498 826 515 836 533 848 c 0xe8
628 702 m 2xd8
 657 702 666 694 666 680 c 1
 597 20 l 2
 595 6 581 -2 555 -2 c 2
 535 -2 l 2
 516 -2 506 3 501 12 c 2
 217 510 l 1
 196 561 l 1
 139 20 l 2
 137 6 123 -2 97 -2 c 2
 90 -2 l 2
 60 -2 52 6 52 20 c 1
 121 680 l 2
 122 694 135 702 163 702 c 2
 184 702 l 2
 206 702 216 697 224 683 c 2
 499 201 l 1
 523 145 l 1
 579 680 l 2
 580 694 593 702 621 702 c 2
 628 702 l 2xd8
EndSplineSet
Position2: "'cpsp' Capital Spacing lookup 3 subtable" dx=5 dy=0 dh=10 dv=0
EndChar

StartChar: O
Encoding: 79 79 105
Width: 731
Flags: MW
HStem: -6 76<272.5 410 272.5 434> 630 76<318 456.5>
VStem: 53 91<218.5 387> 586 92<299.5 483>
LayerCount: 2
Fore
SplineSet
402 706 m 0
 582 706 678 609 678 420 c 0
 678 142 541 -6 327 -6 c 0
 148 -6 53 93 53 282 c 0
 53 492 139 706 402 706 c 0
394 630 m 0
 242 630 144 515 144 291 c 0
 144 146 210 70 335 70 c 0
 485 70 586 189 586 410 c 0
 586 556 519 630 394 630 c 0
EndSplineSet
Substitution2: "Single Substitution lookup 21 subtable" ordmasculine
Substitution2: "'aalt' Access All Alternates lookup 0 subtable" ordmasculine
Position2: "'cpsp' Capital Spacing lookup 3 subtable" dx=5 dy=0 dh=10 dv=0
EndChar

StartChar: Oacute
Encoding: 211 211 106
Width: 731
Flags: MW
HStem: -6 76<272.5 410 272.5 434> 630 76<318 456.5>
VStem: 53 91<218.5 387> 586 92<299.5 483>
LayerCount: 2
Fore
SplineSet
498 909 m 0
 529 909 545 906 545 897 c 0
 545 886 534 877 439 780 c 0
 427 768 406 762 386 762 c 0
 371 762 364 765 364 771 c 0
 364 780 376 800 433 883 c 0
 446 902 466 909 498 909 c 0
402 706 m 0
 582 706 678 609 678 420 c 0
 678 142 541 -6 327 -6 c 0
 148 -6 53 93 53 282 c 0
 53 492 139 706 402 706 c 0
394 630 m 0
 242 630 144 515 144 291 c 0
 144 146 210 70 335 70 c 0
 485 70 586 189 586 410 c 0
 586 556 519 630 394 630 c 0
EndSplineSet
Substitution2: "'locl' Localized Forms in Latin lookup 12 subtable" Oacute.loclPLK
Substitution2: "'aalt' Access All Alternates lookup 0 subtable" Oacute.loclPLK
Position2: "'cpsp' Capital Spacing lookup 3 subtable" dx=5 dy=0 dh=10 dv=0
EndChar

StartChar: Obreve
Encoding: 334 334 107
Width: 731
Flags: MW
HStem: -6 76<272.5 410 272.5 434> 630 76<318 456.5> 762 66<389.5 438 389.5 440.5>
VStem: 53 91<218.5 387> 586 92<299.5 483>
LayerCount: 2
Fore
SplineSet
549 892 m 0
 559 892 563 888 563 880 c 0
 563 801 474 762 407 762 c 0
 339 762 273 796 273 865 c 0
 273 882 275 892 290 892 c 0
 307 892 303 883 310 867 c 0
 322 839 365 828 414 828 c 0
 462 828 507 839 525 867 c 0
 535 883 531 892 549 892 c 0
402 706 m 0
 582 706 678 609 678 420 c 0
 678 142 541 -6 327 -6 c 0
 148 -6 53 93 53 282 c 0
 53 492 139 706 402 706 c 0
394 630 m 0
 242 630 144 515 144 291 c 0
 144 146 210 70 335 70 c 0
 485 70 586 189 586 410 c 0
 586 556 519 630 394 630 c 0
EndSplineSet
Position2: "'cpsp' Capital Spacing lookup 3 subtable" dx=5 dy=0 dh=10 dv=0
EndChar

StartChar: Ocircumflex
Encoding: 212 212 108
Width: 731
Flags: MW
HStem: -6 76<272.5 410 272.5 434> 630 76<318 456.5> 753 142<295 427 302 427 402 495 402 497>
VStem: 53 91<218.5 387> 586 92<299.5 483>
LayerCount: 2
Fore
SplineSet
427 895 m 2
 446 895 463 888 471 873 c 2
 518 785 l 2
 522 779 523 773 523 768 c 0
 522 759 513 753 497 753 c 2
 495 753 l 2
 482 753 472 757 463 766 c 1
 408 840 l 1
 339 766 l 1
 328 757 318 753 304 753 c 2
 302 753 l 2
 288 753 281 757 281 765 c 0
 281 771 283 777 288 785 c 2
 354 873 l 2
 365 888 382 895 402 895 c 2
 427 895 l 2
402 706 m 0
 582 706 678 609 678 420 c 0
 678 142 541 -6 327 -6 c 0
 148 -6 53 93 53 282 c 0
 53 492 139 706 402 706 c 0
394 630 m 0
 242 630 144 515 144 291 c 0
 144 146 210 70 335 70 c 0
 485 70 586 189 586 410 c 0
 586 556 519 630 394 630 c 0
EndSplineSet
Position2: "'cpsp' Capital Spacing lookup 3 subtable" dx=5 dy=0 dh=10 dv=0
EndChar

StartChar: Ocircumflexacute
Encoding: 7888 7888 109
Width: 731
Flags: MW
HStem: -6 76<272.5 410 272.5 434> 630 76<318 456.5>
VStem: 53 91<218.5 387> 586 92<299.5 483>
LayerCount: 2
Fore
SplineSet
402 706 m 0
 582 706 678 609 678 420 c 0
 678 142 541 -6 327 -6 c 0
 148 -6 53 93 53 282 c 0
 53 492 139 706 402 706 c 0
394 630 m 0
 242 630 144 515 144 291 c 0
 144 146 210 70 335 70 c 0
 485 70 586 189 586 410 c 0
 586 556 519 630 394 630 c 0
633 961 m 0
 652 961 665 958 665 949 c 0
 665 944 654 931 573 842 c 0
 563 830 551 824 535 824 c 0
 520 824 513 827 513 833 c 0
 513 841 521 860 568 935 c 0
 578 951 601 961 633 961 c 0
435 895 m 2
 450 895 462 888 469 873 c 2
 511 785 l 1
 515 779 516 773 516 768 c 0
 515 759 506 753 490 753 c 2
 488 753 l 2
 475 753 462 755 456 766 c 2
 416 840 l 1
 347 766 l 1
 336 757 326 753 312 753 c 2
 310 753 l 2
 296 753 289 757 289 765 c 0
 289 771 291 777 296 785 c 2
 362 873 l 2
 373 888 390 895 410 895 c 2
 435 895 l 2
EndSplineSet
Position2: "'cpsp' Capital Spacing lookup 3 subtable" dx=5 dy=0 dh=10 dv=0
EndChar

StartChar: Ocircumflexdotbelow
Encoding: 7896 7896 110
Width: 731
Flags: MW
HStem: -175 95<303 321> -6 76<272.5 410 272.5 434> 630 76<318 456.5> 753 142<295 427 302 427 402 495 402 497>
VStem: 53 91<218.5 387> 268 89<-160 -95> 586 92<299.5 483>
LayerCount: 2
Fore
SplineSet
402 706 m 0
 582 706 678 609 678 420 c 0
 678 142 541 -6 327 -6 c 0
 148 -6 53 93 53 282 c 0
 53 492 139 706 402 706 c 0
394 630 m 0
 242 630 144 515 144 291 c 0
 144 146 210 70 335 70 c 0
 485 70 586 189 586 410 c 0
 586 556 519 630 394 630 c 0
427 895 m 2
 446 895 463 888 471 873 c 2
 518 785 l 2
 522 779 523 773 523 768 c 0
 522 759 513 753 497 753 c 2
 495 753 l 2
 482 753 472 757 463 766 c 1
 408 840 l 1
 339 766 l 1
 328 757 318 753 304 753 c 2
 302 753 l 2
 288 753 281 757 281 765 c 0
 281 771 283 777 288 785 c 2
 354 873 l 2
 365 888 382 895 402 895 c 2
 427 895 l 2
273 -102 m 2
 275 -89 287 -80 319 -80 c 0
 348 -80 357 -88 357 -102 c 1
 352 -153 l 2
 350 -166 336 -175 306 -175 c 0
 276 -175 268 -167 268 -153 c 1
 273 -102 l 2
EndSplineSet
Position2: "'cpsp' Capital Spacing lookup 3 subtable" dx=5 dy=0 dh=10 dv=0
EndChar

StartChar: Ocircumflexgrave
Encoding: 7890 7890 111
Width: 731
Flags: MW
HStem: -6 76<272.5 410 272.5 434> 630 76<318 456.5>
VStem: 53 91<218.5 387> 586 92<299.5 483>
LayerCount: 2
Fore
SplineSet
402 706 m 0
 582 706 678 609 678 420 c 0
 678 142 541 -6 327 -6 c 0
 148 -6 53 93 53 282 c 0
 53 492 139 706 402 706 c 0
394 630 m 0
 242 630 144 515 144 291 c 0
 144 146 210 70 335 70 c 0
 485 70 586 189 586 410 c 0
 586 556 519 630 394 630 c 0
507 964 m 0
 525 964 547 959 555 938 c 0
 586 863 592 842 592 833 c 0
 592 827 584 824 569 824 c 0
 553 824 540 830 533 842 c 0
 481 923 471 940 470 952 c 0
 470 961 479 964 507 964 c 0
435 895 m 2
 450 895 462 888 469 873 c 2
 511 785 l 1
 515 779 516 773 516 768 c 0
 515 759 506 753 490 753 c 2
 488 753 l 2
 475 753 462 755 456 766 c 2
 416 840 l 1
 347 766 l 1
 336 757 326 753 312 753 c 2
 310 753 l 2
 296 753 289 757 289 765 c 0
 289 771 291 777 296 785 c 2
 362 873 l 2
 373 888 390 895 410 895 c 2
 435 895 l 2
EndSplineSet
Position2: "'cpsp' Capital Spacing lookup 3 subtable" dx=5 dy=0 dh=10 dv=0
EndChar

StartChar: Ocircumflexhookabove
Encoding: 7892 7892 112
Width: 731
Flags: MW
HStem: -6 76<272.5 410 272.5 434> 630 76<318 456.5> 931 48<537.5 552>
VStem: 53 91<218.5 387> 576 58<897 913> 586 92<299.5 483>
LayerCount: 2
Fore
SplineSet
402 706 m 0xd4
 582 706 678 609 678 420 c 0
 678 142 541 -6 327 -6 c 0
 148 -6 53 93 53 282 c 0
 53 492 139 706 402 706 c 0xd4
394 630 m 0
 242 630 144 515 144 291 c 0
 144 146 210 70 335 70 c 0
 485 70 586 189 586 410 c 0
 586 556 519 630 394 630 c 0
576 904 m 0xf8
 576 922 562 931 542 931 c 0
 511 931 499 918 494 918 c 0
 486 918 474 941 474 951 c 0
 474 964 520 979 555 979 c 0
 589 979 634 963 634 911 c 0
 634 880 610 861 592 847 c 0
 577 835 554 825 548 825 c 0
 527 825 514 836 514 845 c 0
 514 853 524 858 541 867 c 0
 562 878 576 890 576 904 c 0xf8
435 895 m 2
 450 895 462 888 469 873 c 2
 511 785 l 1
 515 779 516 773 516 768 c 0
 515 759 506 753 490 753 c 2
 488 753 l 2
 475 753 462 755 456 766 c 2
 416 840 l 1
 347 766 l 1
 336 757 326 753 312 753 c 2
 310 753 l 2
 296 753 289 757 289 765 c 0
 289 771 291 777 296 785 c 2
 362 873 l 2
 373 888 390 895 410 895 c 2
 435 895 l 2
EndSplineSet
Position2: "'cpsp' Capital Spacing lookup 3 subtable" dx=5 dy=0 dh=10 dv=0
EndChar

StartChar: Ocircumflextilde
Encoding: 7894 7894 113
Width: 731
Flags: MW
HStem: -6 76<272.5 410 272.5 434> 630 76<318 456.5> 903 64<481 494.5> 934 64<359.5 373>
VStem: 53 91<218.5 387> 586 92<299.5 483>
LayerCount: 2
Fore
SplineSet
402 706 m 0xec
 582 706 678 609 678 420 c 0
 678 142 541 -6 327 -6 c 0
 148 -6 53 93 53 282 c 0
 53 492 139 706 402 706 c 0xec
394 630 m 0
 242 630 144 515 144 291 c 0
 144 146 210 70 335 70 c 0
 485 70 586 189 586 410 c 0
 586 556 519 630 394 630 c 0
539 989 m 0
 545 993 550 996 556 996 c 0
 562 996 568 993 573 987 c 0
 579 980 582 973 582 967 c 0
 582 960 578 953 572 947 c 0
 545 922 513 903 476 903 c 0xec
 441 903 423 911 407 919 c 0
 391 927 379 934 367 934 c 0
 347 934 334 924 318 915 c 0
 311 911 305 909 299 909 c 0
 291 909 285 913 280 921 c 0
 275 928 273 935 273 941 c 0
 273 948 276 953 281 957 c 0
 307 978 341 998 378 998 c 0xdc
 413 998 434 986 447 980 c 0
 462 973 475 967 487 967 c 0
 507 967 523 977 539 989 c 0
430 871 m 2
 449 871 463 861 474 849 c 1
 520 786 l 2
 524 780 525 774 525 769 c 0
 524 760 515 754 499 754 c 2
 497 754 l 2
 484 754 474 760 465 767 c 2
 411 816 l 1
 341 767 l 1
 329 760 320 754 306 754 c 2
 304 754 l 2
 290 754 283 758 283 766 c 0
 283 772 285 778 290 786 c 1
 357 849 l 1
 372 861 385 871 405 871 c 2
 430 871 l 2
EndSplineSet
Position2: "'cpsp' Capital Spacing lookup 3 subtable" dx=5 dy=0 dh=10 dv=0
EndChar

StartChar: Odieresis
Encoding: 214 214 114
Width: 731
Flags: MW
HStem: -6 76<272.5 410 272.5 434> 630 76<318 456.5> 784 95<331 349 475 493>
VStem: 53 91<218.5 387> 296 89<799 864> 440 89<799 864> 586 92<299.5 483>
LayerCount: 2
Fore
SplineSet
402 706 m 0
 582 706 678 609 678 420 c 0
 678 142 541 -6 327 -6 c 0
 148 -6 53 93 53 282 c 0
 53 492 139 706 402 706 c 0
394 630 m 0
 242 630 144 515 144 291 c 0
 144 146 210 70 335 70 c 0
 485 70 586 189 586 410 c 0
 586 556 519 630 394 630 c 0
301 857 m 2
 303 870 315 879 347 879 c 0
 376 879 385 871 385 857 c 1
 380 806 l 2
 378 793 364 784 334 784 c 0
 304 784 296 792 296 806 c 1
 301 857 l 2
445 857 m 2
 446 870 459 879 491 879 c 0
 520 879 529 871 529 857 c 1
 524 806 l 2
 522 793 508 784 478 784 c 0
 448 784 440 792 440 806 c 1
 445 857 l 2
EndSplineSet
Position2: "'cpsp' Capital Spacing lookup 3 subtable" dx=5 dy=0 dh=10 dv=0
EndChar

StartChar: Odotbelow
Encoding: 7884 7884 115
Width: 731
Flags: MW
HStem: -175 95<303 321> -6 76<272.5 410 272.5 434> 630 76<318 456.5>
VStem: 53 91<218.5 387> 268 89<-160 -95> 586 92<299.5 483>
LayerCount: 2
Fore
SplineSet
402 706 m 0
 582 706 678 609 678 420 c 0
 678 142 541 -6 327 -6 c 0
 148 -6 53 93 53 282 c 0
 53 492 139 706 402 706 c 0
394 630 m 0
 242 630 144 515 144 291 c 0
 144 146 210 70 335 70 c 0
 485 70 586 189 586 410 c 0
 586 556 519 630 394 630 c 0
273 -102 m 2
 275 -89 287 -80 319 -80 c 0
 348 -80 357 -88 357 -102 c 1
 352 -153 l 2
 350 -166 336 -175 306 -175 c 0
 276 -175 268 -167 268 -153 c 1
 273 -102 l 2
EndSplineSet
Position2: "'cpsp' Capital Spacing lookup 3 subtable" dx=5 dy=0 dh=10 dv=0
EndChar

StartChar: Ograve
Encoding: 210 210 116
Width: 731
Flags: MW
HStem: -6 76<272.5 410 272.5 434> 630 76<318 456.5>
VStem: 53 91<218.5 387> 586 92<299.5 483>
LayerCount: 2
Fore
SplineSet
331 909 m 0
 363 909 382 902 393 883 c 0
 442 799 451 780 451 771 c 0
 451 765 443 762 428 762 c 0
 408 762 387 768 377 780 c 0
 292 877 283 885 283 897 c 1
 284 906 300 909 331 909 c 0
402 706 m 0
 582 706 678 609 678 420 c 0
 678 142 541 -6 327 -6 c 0
 148 -6 53 93 53 282 c 0
 53 492 139 706 402 706 c 0
394 630 m 0
 242 630 144 515 144 291 c 0
 144 146 210 70 335 70 c 0
 485 70 586 189 586 410 c 0
 586 556 519 630 394 630 c 0
EndSplineSet
Position2: "'cpsp' Capital Spacing lookup 3 subtable" dx=5 dy=0 dh=10 dv=0
EndChar

StartChar: Ohookabove
Encoding: 7886 7886 117
Width: 731
Flags: MW
HStem: -6 76<272.5 410 272.5 434> 630 76<318 456.5> 876 51<407.5 422>
VStem: 53 91<218.5 387> 446 66<825 859> 586 92<299.5 483>
LayerCount: 2
Fore
SplineSet
446 851 m 0
 446 867 432 876 412 876 c 0
 381 876 369 863 364 863 c 0
 356 863 344 886 344 896 c 0
 344 909 390 927 425 927 c 0
 459 927 512 911 512 857 c 0
 512 787 423 740 413 740 c 0
 392 740 374 748 374 757 c 0
 374 784 446 799 446 851 c 0
402 706 m 0
 582 706 678 609 678 420 c 0
 678 142 541 -6 327 -6 c 0
 148 -6 53 93 53 282 c 0
 53 492 139 706 402 706 c 0
394 630 m 0
 242 630 144 515 144 291 c 0
 144 146 210 70 335 70 c 0
 485 70 586 189 586 410 c 0
 586 556 519 630 394 630 c 0
EndSplineSet
Position2: "'cpsp' Capital Spacing lookup 3 subtable" dx=5 dy=0 dh=10 dv=0
EndChar

StartChar: Ohorn
Encoding: 416 416 118
Width: 731
Flags: MW
HStem: -6 76<272.5 410 272.5 434> 630 52 630 76<318 428 270.5 456.5>
VStem: 53 91<218.5 387> 586 92<299.5 475 281 483> 597 63<726 733.5>
LayerCount: 2
Fore
SplineSet
613 809 m 2xd4
 617 812 621 813 625 813 c 0
 648 813 660 774 660 746 c 0xb4
 660 706 633 669 584 655 c 1
 646 608 678 530 678 420 c 0
 678 142 541 -6 327 -6 c 0
 148 -6 53 93 53 282 c 0
 53 492 139 706 402 706 c 0xb8
 454 706 499 698 536 682 c 1
 538 682 l 2
 581 682 597 699 597 722 c 0
 597 745 576 765 576 777 c 0
 576 783 580 789 587 793 c 2
 613 809 l 2xd4
335 70 m 0xb8
 485 70 586 189 586 410 c 0
 586 556 519 630 394 630 c 0
 242 630 144 515 144 291 c 0
 144 146 210 70 335 70 c 0xb8
EndSplineSet
Position2: "'cpsp' Capital Spacing lookup 3 subtable" dx=5 dy=0 dh=10 dv=0
EndChar

StartChar: Ohornacute
Encoding: 7898 7898 119
Width: 731
Flags: MW
HStem: -6 76<272.5 410 272.5 434> 630 52 630 76<318 428 270.5 456.5>
VStem: 53 91<218.5 387> 586 92<299.5 475 281 483> 597 63<726 733.5>
LayerCount: 2
Fore
SplineSet
386 762 m 0xb8
 371 762 364 765 364 771 c 0
 364 780 376 800 433 883 c 0
 446 902 466 909 498 909 c 0
 529 909 545 906 545 897 c 0
 545 886 534 877 439 780 c 0
 427 768 406 762 386 762 c 0xb8
613 809 m 2xd4
 617 812 621 813 625 813 c 0
 648 813 660 774 660 746 c 0xb4
 660 706 633 669 584 655 c 1
 646 608 678 530 678 420 c 0
 678 142 541 -6 327 -6 c 0
 148 -6 53 93 53 282 c 0
 53 492 139 706 402 706 c 0xb8
 454 706 499 698 536 682 c 1
 538 682 l 2
 581 682 597 699 597 722 c 0
 597 745 576 765 576 777 c 0
 576 783 580 789 587 793 c 2
 613 809 l 2xd4
335 70 m 0xb8
 485 70 586 189 586 410 c 0
 586 556 519 630 394 630 c 0
 242 630 144 515 144 291 c 0
 144 146 210 70 335 70 c 0xb8
EndSplineSet
Position2: "'cpsp' Capital Spacing lookup 3 subtable" dx=5 dy=0 dh=10 dv=0
EndChar

StartChar: Ohorndotbelow
Encoding: 7906 7906 120
Width: 731
Flags: MW
HStem: -175 95<303 321> -6 76<272.5 410 272.5 434> 630 52 630 76<318 428 270.5 456.5>
VStem: 53 91<218.5 387> 268 89<-160 -95> 586 92<299.5 475 281 483> 597 63<726 733.5>
LayerCount: 2
Fore
SplineSet
613 809 m 2x69
 617 812 621 813 625 813 c 0
 648 813 660 774 660 746 c 0x59
 660 706 633 669 584 655 c 1
 646 608 678 530 678 420 c 0
 678 142 541 -6 327 -6 c 0
 148 -6 53 93 53 282 c 0
 53 492 139 706 402 706 c 0x5a
 454 706 499 698 536 682 c 1
 538 682 l 2
 581 682 597 699 597 722 c 0
 597 745 576 765 576 777 c 0
 576 783 580 789 587 793 c 2
 613 809 l 2x69
335 70 m 0xde
 485 70 586 189 586 410 c 0
 586 556 519 630 394 630 c 0
 242 630 144 515 144 291 c 0
 144 146 210 70 335 70 c 0xde
273 -102 m 2
 275 -89 287 -80 319 -80 c 0
 348 -80 357 -88 357 -102 c 1
 352 -153 l 2
 350 -166 336 -175 306 -175 c 0
 276 -175 268 -167 268 -153 c 1
 273 -102 l 2
EndSplineSet
Position2: "'cpsp' Capital Spacing lookup 3 subtable" dx=5 dy=0 dh=10 dv=0
EndChar

StartChar: Ohorngrave
Encoding: 7900 7900 121
Width: 731
Flags: MW
HStem: -6 76<272.5 410 272.5 434> 630 52 630 76<318 428 270.5 456.5>
VStem: 53 91<218.5 387> 586 92<299.5 475 281 483> 597 63<726 733.5>
LayerCount: 2
Fore
SplineSet
428 762 m 0xb8
 408 762 387 768 377 780 c 0
 292 877 283 885 283 897 c 1
 284 906 300 909 331 909 c 0
 363 909 382 902 393 883 c 0
 442 799 451 780 451 771 c 0
 451 765 443 762 428 762 c 0xb8
613 809 m 2xd4
 617 812 621 813 625 813 c 0
 648 813 660 774 660 746 c 0xb4
 660 706 633 669 584 655 c 1
 646 608 678 530 678 420 c 0
 678 142 541 -6 327 -6 c 0
 148 -6 53 93 53 282 c 0
 53 492 139 706 402 706 c 0xb8
 454 706 499 698 536 682 c 1
 538 682 l 2
 581 682 597 699 597 722 c 0
 597 745 576 765 576 777 c 0
 576 783 580 789 587 793 c 2
 613 809 l 2xd4
335 70 m 0xb8
 485 70 586 189 586 410 c 0
 586 556 519 630 394 630 c 0
 242 630 144 515 144 291 c 0
 144 146 210 70 335 70 c 0xb8
EndSplineSet
Position2: "'cpsp' Capital Spacing lookup 3 subtable" dx=5 dy=0 dh=10 dv=0
EndChar

StartChar: Ohornhookabove
Encoding: 7902 7902 122
Width: 731
Flags: MW
HStem: -6 76<272.5 410 272.5 434> 630 52 630 76<318 428 270.5 456.5> 876 51<407.5 422>
VStem: 53 91<218.5 387> 446 66<825 859> 586 92<299.5 475 281 483> 597 63<726 733.5>
LayerCount: 2
Fore
SplineSet
364 863 m 0xbe
 356 863 344 886 344 896 c 0
 344 909 390 927 425 927 c 0
 459 927 512 911 512 857 c 0
 512 787 423 740 413 740 c 0
 392 740 374 748 374 757 c 0
 374 784 446 799 446 851 c 0
 446 867 432 876 412 876 c 0
 381 876 369 863 364 863 c 0xbe
613 809 m 2xdd
 617 812 621 813 625 813 c 0
 648 813 660 774 660 746 c 0xbd
 660 706 633 669 584 655 c 1
 646 608 678 530 678 420 c 0
 678 142 541 -6 327 -6 c 0
 148 -6 53 93 53 282 c 0
 53 492 139 706 402 706 c 0xbe
 454 706 499 698 536 682 c 1
 538 682 l 2
 581 682 597 699 597 722 c 0
 597 745 576 765 576 777 c 0
 576 783 580 789 587 793 c 2
 613 809 l 2xdd
335 70 m 0xbe
 485 70 586 189 586 410 c 0
 586 556 519 630 394 630 c 0
 242 630 144 515 144 291 c 0
 144 146 210 70 335 70 c 0xbe
EndSplineSet
Position2: "'cpsp' Capital Spacing lookup 3 subtable" dx=5 dy=0 dh=10 dv=0
EndChar

StartChar: Ohorntilde
Encoding: 7904 7904 123
Width: 731
Flags: MW
HStem: -6 76<272.5 410 272.5 434> 630 52 630 76<318 428 270.5 456.5> 762 64<456 468.5> 793 64<335.5 349>
VStem: 53 91<218.5 387> 586 92<299.5 475 281 483> 597 63<726 733.5>
LayerCount: 2
Fore
SplineSet
295 774 m 0xae
 288 770 282 768 276 768 c 0
 268 768 262 772 257 780 c 0
 252 787 250 794 250 800 c 0
 250 807 253 812 258 816 c 0
 284 837 317 857 354 857 c 0xae
 388 857 409 845 423 839 c 0
 437 832 450 826 462 826 c 0
 482 826 497 836 513 848 c 0
 519 852 524 855 530 855 c 0
 536 855 542 852 547 846 c 0
 553 839 556 832 556 826 c 0
 556 819 552 812 546 806 c 0
 519 781 487 762 450 762 c 0xb6
 416 762 398 770 383 778 c 0
 367 786 355 793 343 793 c 0
 324 793 310 783 295 774 c 0xae
613 809 m 2xcd
 617 812 621 813 625 813 c 0
 648 813 660 774 660 746 c 0xad
 660 706 633 669 584 655 c 1
 646 608 678 530 678 420 c 0
 678 142 541 -6 327 -6 c 0
 148 -6 53 93 53 282 c 0
 53 492 139 706 402 706 c 0xae
 454 706 499 698 536 682 c 1
 538 682 l 2
 581 682 597 699 597 722 c 0
 597 745 576 765 576 777 c 0
 576 783 580 789 587 793 c 2
 613 809 l 2xcd
335 70 m 0xae
 485 70 586 189 586 410 c 0
 586 556 519 630 394 630 c 0
 242 630 144 515 144 291 c 0
 144 146 210 70 335 70 c 0xae
EndSplineSet
Position2: "'cpsp' Capital Spacing lookup 3 subtable" dx=5 dy=0 dh=10 dv=0
EndChar

StartChar: Ohungarumlaut
Encoding: 336 336 124
Width: 731
Flags: MW
HStem: -6 76<272.5 410 272.5 434> 630 76<318 456.5>
VStem: 53 91<218.5 387> 586 92<299.5 483>
LayerCount: 2
Fore
SplineSet
402 706 m 0
 582 706 678 609 678 420 c 0
 678 142 541 -6 327 -6 c 0
 148 -6 53 93 53 282 c 0
 53 492 139 706 402 706 c 0
394 630 m 0
 242 630 144 515 144 291 c 0
 144 146 210 70 335 70 c 0
 485 70 586 189 586 410 c 0
 586 556 519 630 394 630 c 0
436 909 m 0
 467 909 483 906 483 897 c 0
 483 886 472 877 377 780 c 0
 365 768 344 762 324 762 c 0
 309 762 302 765 302 771 c 0
 302 780 314 800 371 883 c 0
 384 902 404 909 436 909 c 0
582 909 m 0
 613 909 629 906 629 897 c 0
 629 886 618 877 523 780 c 0
 511 768 490 762 470 762 c 0
 455 762 448 765 448 771 c 0
 448 780 460 800 517 883 c 0
 530 902 550 909 582 909 c 0
EndSplineSet
Position2: "'cpsp' Capital Spacing lookup 3 subtable" dx=5 dy=0 dh=10 dv=0
EndChar

StartChar: Omacron
Encoding: 332 332 125
Width: 731
Flags: MW
HStem: -6 76<272.5 410 272.5 434> 630 76<318 456.5> 789 71<278 519 293 511>
VStem: 53 91<218.5 387> 586 92<299.5 483>
LayerCount: 2
Fore
SplineSet
519 860 m 2
 533 860 536 850 536 834 c 0
 536 823 535 789 511 789 c 2
 285 789 l 2
 271 789 268 800 268 816 c 0
 268 827 269 860 293 860 c 2
 519 860 l 2
402 706 m 0
 582 706 678 609 678 420 c 0
 678 142 541 -6 327 -6 c 0
 148 -6 53 93 53 282 c 0
 53 492 139 706 402 706 c 0
394 630 m 0
 242 630 144 515 144 291 c 0
 144 146 210 70 335 70 c 0
 485 70 586 189 586 410 c 0
 586 556 519 630 394 630 c 0
EndSplineSet
Position2: "'cpsp' Capital Spacing lookup 3 subtable" dx=5 dy=0 dh=10 dv=0
EndChar

StartChar: Oogonek
Encoding: 490 490 126
Width: 731
Flags: MW
HStem: -183 70<431 444.5> -6 76<272.5 327 327 345> 630 76<318 456.5>
VStem: 53 91<218.5 387> 315 69<-90 -85.5> 586 92<299.5 483>
LayerCount: 2
Fore
SplineSet
678 420 m 0
 678 176 573 33 403 1 c 1
 402 -15 384 -43 384 -70 c 0
 384 -110 420 -113 442 -113 c 0
 473 -113 497 -95 506 -95 c 0
 510 -95 512 -99 512 -108 c 0
 512 -173 466 -183 423 -183 c 0
 329 -183 315 -127 315 -94 c 0
 315 -77 322 -32 345 -6 c 1
 327 -6 l 2
 148 -6 53 93 53 282 c 0
 53 492 139 706 402 706 c 0
 582 706 678 609 678 420 c 0
144 291 m 0
 144 146 210 70 335 70 c 0
 485 70 586 189 586 410 c 0
 586 556 519 630 394 630 c 0
 242 630 144 515 144 291 c 0
EndSplineSet
Position2: "'cpsp' Capital Spacing lookup 3 subtable" dx=5 dy=0 dh=10 dv=0
EndChar

StartChar: Oslash
Encoding: 216 216 127
Width: 731
Flags: MW
HStem: -6 76<297.5 410 297.5 434> 630 76<318 427> 682 20G<680.5 685>
VStem: 53 91<271 387> 586 92<299.5 435>
LayerCount: 2
Fore
SplineSet
88 116 m 1xd8
 65 160 53 215 53 282 c 0
 53 492 139 706 402 706 c 0
 492 706 561 682 607 634 c 1xd8
 669 695 l 2
 674 700 678 702 683 702 c 0
 687 702 691 701 696 696 c 2
 698 694 l 2
 702 690 703 686 703 683 c 0
 703 678 701 674 696 669 c 2
 631 604 l 1xb8
 662 558 678 497 678 420 c 0
 678 142 541 -6 327 -6 c 0
 227 -6 154 24 108 84 c 1
 33 9 l 2
 28 4 23 1 19 1 c 0
 14 1 10 4 7 7 c 2
 5 9 l 2
 1 13 -1 17 -1 21 c 0
 -1 25 2 30 7 35 c 2
 88 116 l 1xd8
542 568 m 1
 509 609 460 630 394 630 c 0
 242 630 144 515 144 291 c 0
 144 251 149 216 159 187 c 1
 542 568 l 1
175 150 m 1
 206 97 260 70 335 70 c 0
 485 70 586 189 586 410 c 0
 586 460 578 503 562 536 c 1
 175 150 l 1
EndSplineSet
Position2: "'cpsp' Capital Spacing lookup 3 subtable" dx=5 dy=0 dh=10 dv=0
EndChar

StartChar: Oslashacute
Encoding: 510 510 128
Width: 731
Flags: MW
HStem: -6 76<297.5 410 297.5 434> 630 76<318 427> 682 20G<680.5 685>
VStem: 53 91<271 387> 586 92<299.5 435>
LayerCount: 2
Fore
SplineSet
88 116 m 1xd8
 65 160 53 215 53 282 c 0
 53 492 139 706 402 706 c 0
 492 706 561 682 607 634 c 1xd8
 669 695 l 2
 674 700 678 702 683 702 c 0
 687 702 691 701 696 696 c 2
 698 694 l 2
 702 690 703 686 703 683 c 0
 703 678 701 674 696 669 c 2
 631 604 l 1xb8
 662 558 678 497 678 420 c 0
 678 142 541 -6 327 -6 c 0
 227 -6 154 24 108 84 c 1
 33 9 l 2
 28 4 23 1 19 1 c 0
 14 1 10 4 7 7 c 2
 5 9 l 2
 1 13 -1 17 -1 21 c 0
 -1 25 2 30 7 35 c 2
 88 116 l 1xd8
542 568 m 1
 509 609 460 630 394 630 c 0
 242 630 144 515 144 291 c 0
 144 251 149 216 159 187 c 1
 542 568 l 1
175 150 m 1
 206 97 260 70 335 70 c 0
 485 70 586 189 586 410 c 0
 586 460 578 503 562 536 c 1
 175 150 l 1
462 909 m 0
 493 909 509 906 509 897 c 0
 509 886 498 877 403 780 c 0
 391 768 370 762 350 762 c 0
 335 762 328 765 328 771 c 0
 328 780 340 800 397 883 c 0
 410 902 430 909 462 909 c 0
EndSplineSet
Position2: "'cpsp' Capital Spacing lookup 3 subtable" dx=5 dy=0 dh=10 dv=0
EndChar

StartChar: Otilde
Encoding: 213 213 129
Width: 731
Flags: MW
HStem: -6 76<272.5 410 272.5 434> 630 76<318 456.5> 762 64<480 494.5> 793 64<346.5 361.5>
VStem: 53 91<218.5 387> 586 92<299.5 483>
LayerCount: 2
Fore
SplineSet
544 848 m 0xec
 550 852 556 855 562 855 c 0
 569 855 575 852 581 846 c 0
 588 839 591 832 591 826 c 0
 591 819 587 812 580 806 c 0
 550 781 515 762 474 762 c 0xec
 436 762 416 770 399 778 c 0
 381 786 368 793 355 793 c 0
 333 793 318 783 301 774 c 0
 293 770 286 768 280 768 c 0
 272 768 265 772 259 780 c 0
 254 787 251 794 251 800 c 0
 251 807 255 812 260 816 c 0
 289 837 326 857 367 857 c 0xdc
 405 857 428 845 443 839 c 0
 459 832 473 826 487 826 c 0
 509 826 526 836 544 848 c 0xec
402 706 m 0
 582 706 678 609 678 420 c 0
 678 142 541 -6 327 -6 c 0
 148 -6 53 93 53 282 c 0
 53 492 139 706 402 706 c 0
394 630 m 0
 242 630 144 515 144 291 c 0
 144 146 210 70 335 70 c 0
 485 70 586 189 586 410 c 0
 586 556 519 630 394 630 c 0
EndSplineSet
Position2: "'cpsp' Capital Spacing lookup 3 subtable" dx=5 dy=0 dh=10 dv=0
EndChar

StartChar: OE
Encoding: 338 338 130
Width: 1021
Flags: MW
HStem: -6 76<272.5 373> 0 76<568.5 940 644 932> 320 76<677 933 669 941> 624 76<701 996 701 701> 630 76<318 447.5 294.5 456.5>
VStem: 53 91<218.5 403 218.5 422> 586 91<396 396 396 483>
LayerCount: 2
Fore
SplineSet
1004 700 m 2x74
 1016 700 1021 693 1021 678 c 0
 1021 655 1021 624 996 624 c 2
 701 624 l 1
 677 396 l 1
 941 396 l 2
 953 396 958 389 958 374 c 0
 958 351 958 320 933 320 c 2
 669 320 l 1
 644 76 l 1
 940 76 l 2
 952 76 957 69 957 54 c 0
 957 31 957 0 932 0 c 2
 578 0 l 2
 559 0 551 7 551 24 c 0x76
 551 25 551 30 556 73 c 1
 499 22 419 -6 327 -6 c 0
 148 -6 53 93 53 282 c 0
 53 562 187 706 402 706 c 0
 493 706 566 678 613 629 c 1xac
 618 670 l 2
 620 691 630 700 651 700 c 2
 1004 700 l 2x74
335 70 m 0xae
 485 70 586 189 586 410 c 0
 586 556 519 630 394 630 c 0
 242 630 144 515 144 291 c 0
 144 146 210 70 335 70 c 0xae
EndSplineSet
Position2: "'cpsp' Capital Spacing lookup 3 subtable" dx=5 dy=0 dh=10 dv=0
EndChar

StartChar: P
Encoding: 80 80 131
Width: 570
Flags: MW
HStem: -2 21G<73 88 88 96> 298 76<175 322 167 331> 624 76<201 201 201 343>
VStem: 467 92<459 563>
LayerCount: 2
Fore
SplineSet
354 700 m 2
 435 700 559 676 559 533 c 0
 559 323 374 298 322 298 c 2
 167 298 l 1
 138 20 l 2
 136 6 122 -2 96 -2 c 2
 88 -2 l 2
 58 -2 50 6 50 20 c 1
 118 670 l 2
 120 691 130 700 151 700 c 2
 354 700 l 2
201 624 m 1
 175 374 l 1
 331 374 l 2
 370 374 467 397 467 521 c 0
 467 605 398 624 343 624 c 2
 201 624 l 1
EndSplineSet
Position2: "'cpsp' Capital Spacing lookup 3 subtable" dx=5 dy=0 dh=10 dv=0
EndChar

StartChar: Thorn
Encoding: 222 222 132
Width: 567
Flags: MW
HStem: -2 21G<73 88 88 96> 176 76<162 309 154 318> 502 76<188 341 196 330> 682 20G<161 169 169 183.5>
VStem: 454 92<337 441>
LayerCount: 2
Fore
SplineSet
169 702 m 2
 198 702 207 694 207 680 c 1
 196 578 l 1
 341 578 l 2
 422 578 546 554 546 411 c 0
 546 201 376 176 309 176 c 2
 154 176 l 1
 138 20 l 2
 136 6 122 -2 96 -2 c 2
 88 -2 l 2
 58 -2 50 6 50 20 c 1
 119 680 l 2
 121 694 133 702 161 702 c 2
 169 702 l 2
188 502 m 1
 162 252 l 1
 318 252 l 2
 357 252 454 275 454 399 c 0
 454 483 385 502 330 502 c 2
 188 502 l 1
EndSplineSet
Position2: "'cpsp' Capital Spacing lookup 3 subtable" dx=5 dy=0 dh=10 dv=0
EndChar

StartChar: Q
Encoding: 81 81 133
Width: 731
Flags: MW
HStem: 630 76<328 464>
VStem: 60 92<217.5 399.5 217.5 417.5> 593 92<302 477>
LayerCount: 2
Fore
SplineSet
638 -62 m 2
 648 -66 650 -71 650 -82 c 0
 650 -147 640 -157 629 -157 c 0
 612 -157 248 -6 217 6 c 0
 112 47 60 138 60 278 c 0
 60 557 196 706 410 706 c 0
 590 706 685 606 685 417 c 0
 685 187 590 43 444 5 c 1
 444 1 l 1
 638 -62 l 2
402 630 m 0
 254 630 152 509 152 290 c 0
 152 145 220 67 343 67 c 0
 492 67 593 187 593 404 c 0
 593 550 526 630 402 630 c 0
EndSplineSet
Position2: "'cpsp' Capital Spacing lookup 3 subtable" dx=5 dy=0 dh=10 dv=0
EndChar

StartChar: R
Encoding: 82 82 134
Width: 610
Flags: MW
HStem: -2 21G<73 88 88 96 481 491 491 501> 308 76<176 258 168 308> 624 76<201 201 201 319 319 326>
VStem: 450 93<498 559>
LayerCount: 2
Fore
SplineSet
319 700 m 2
 464 700 543 656 543 548 c 0
 543 448 488 384 409 354 c 1
 409 350 l 1
 447 336 465 291 485 225 c 2
 543 28 l 2
 544 24 545 20 545 17 c 0
 545 5 534 -2 501 -2 c 2
 491 -2 l 2
 471 -2 455 2 452 14 c 2
 397 210 l 2
 375 288 336 308 258 308 c 2
 168 308 l 1
 138 20 l 2
 136 6 121 -2 96 -2 c 2
 88 -2 l 2
 58 -2 50 6 50 20 c 1
 118 670 l 2
 120 691 130 700 151 700 c 2
 319 700 l 2
201 624 m 1
 176 384 l 1
 308 384 l 2
 388 384 450 451 450 525 c 0
 450 593 401 624 326 624 c 2
 201 624 l 1
EndSplineSet
Position2: "'cpsp' Capital Spacing lookup 3 subtable" dx=5 dy=0 dh=10 dv=0
EndChar

StartChar: Racute
Encoding: 340 340 135
Width: 610
Flags: MW
HStem: -2 21G<73 88 88 96 481 491 491 501> 308 76<176 258 168 308> 624 76<201 319 319 326 201 201>
VStem: 450 93<498 559>
LayerCount: 2
Fore
SplineSet
401 909 m 0
 432 909 448 906 448 897 c 0
 448 886 437 877 342 780 c 0
 330 768 309 762 289 762 c 0
 274 762 267 765 267 771 c 0
 267 780 279 800 336 883 c 0
 349 902 369 909 401 909 c 0
319 700 m 2
 464 700 543 656 543 548 c 0
 543 448 488 384 409 354 c 1
 409 350 l 1
 447 336 465 291 485 225 c 2
 543 28 l 2
 544 24 545 20 545 17 c 0
 545 5 534 -2 501 -2 c 2
 491 -2 l 2
 471 -2 455 2 452 14 c 2
 397 210 l 2
 375 288 336 308 258 308 c 2
 168 308 l 1
 138 20 l 2
 136 6 121 -2 96 -2 c 2
 88 -2 l 2
 58 -2 50 6 50 20 c 1
 118 670 l 2
 120 691 130 700 151 700 c 2
 319 700 l 2
176 384 m 1
 308 384 l 2
 388 384 450 451 450 525 c 0
 450 593 401 624 326 624 c 2
 201 624 l 1
 176 384 l 1
EndSplineSet
Position2: "'cpsp' Capital Spacing lookup 3 subtable" dx=5 dy=0 dh=10 dv=0
EndChar

StartChar: Rcaron
Encoding: 344 344 136
Width: 610
Flags: MW
HStem: -2 21G<73 88 88 96 481 491 491 501> 308 76<176 258 168 308> 624 76<201 319 319 326 201 201> 759 142<228 298 228 323>
VStem: 450 93<498 559>
LayerCount: 2
Fore
SplineSet
423 901 m 2
 438 901 445 896 445 887 c 0
 445 882 443 876 438 869 c 2
 371 781 l 2
 360 766 343 759 323 759 c 2
 298 759 l 2
 279 759 262 766 254 781 c 2
 208 869 l 2
 204 876 203 882 203 887 c 0
 204 896 213 901 228 901 c 2
 230 901 l 2
 244 901 254 897 263 888 c 1
 316 814 l 1
 387 888 l 1
 398 897 408 901 421 901 c 2
 423 901 l 2
319 700 m 2
 464 700 543 656 543 548 c 0
 543 448 488 384 409 354 c 1
 409 350 l 1
 447 336 465 291 485 225 c 2
 543 28 l 2
 544 24 545 20 545 17 c 0
 545 5 534 -2 501 -2 c 2
 491 -2 l 2
 471 -2 455 2 452 14 c 2
 397 210 l 2
 375 288 336 308 258 308 c 2
 168 308 l 1
 138 20 l 2
 136 6 121 -2 96 -2 c 2
 88 -2 l 2
 58 -2 50 6 50 20 c 1
 118 670 l 2
 120 691 130 700 151 700 c 2
 319 700 l 2
176 384 m 1
 308 384 l 2
 388 384 450 451 450 525 c 0
 450 593 401 624 326 624 c 2
 201 624 l 1
 176 384 l 1
EndSplineSet
Position2: "'cpsp' Capital Spacing lookup 3 subtable" dx=5 dy=0 dh=10 dv=0
EndChar

StartChar: Rcommaaccent
Encoding: 342 342 137
Width: 610
Flags: MW
HStem: -235 21G<189.5 211.5> -2 21G<73 88 88 96 481 491 491 501> 308 76<176 258 168 308> 624 76<201 319 319 326 201 201>
VStem: 225 90<-108 -73.5> 450 93<498 559>
LayerCount: 2
Fore
SplineSet
319 700 m 2
 464 700 543 656 543 548 c 0
 543 448 488 384 409 354 c 1
 409 350 l 1
 447 336 465 291 485 225 c 2
 543 28 l 2
 544 24 545 20 545 17 c 0
 545 5 534 -2 501 -2 c 2
 491 -2 l 2
 471 -2 455 2 452 14 c 2
 397 210 l 2
 375 288 336 308 258 308 c 2
 168 308 l 1
 138 20 l 2
 136 6 121 -2 96 -2 c 2
 88 -2 l 2
 58 -2 50 6 50 20 c 1
 118 670 l 2
 120 691 130 700 151 700 c 2
 319 700 l 2
176 384 m 1
 308 384 l 2
 388 384 450 451 450 525 c 0
 450 593 401 624 326 624 c 2
 201 624 l 1
 176 384 l 1
278 -51 m 2
 303 -51 315 -62 315 -79 c 0
 315 -137 228 -235 195 -235 c 0
 184 -235 168 -232 168 -220 c 0
 168 -189 225 -147 225 -83 c 0
 225 -64 242 -51 269 -51 c 2
 278 -51 l 2
EndSplineSet
Position2: "'cpsp' Capital Spacing lookup 3 subtable" dx=5 dy=0 dh=10 dv=0
EndChar

StartChar: Rdotbelow
Encoding: 7770 7770 138
Width: 610
Flags: MW
HStem: -175 95<251 269> -2 21G<73 88 88 96 481 491 491 501> 308 76<176 258 168 308> 624 76<201 319 319 326 201 201>
VStem: 216 89<-160 -95> 450 93<498 559>
LayerCount: 2
Fore
SplineSet
319 700 m 2
 464 700 543 656 543 548 c 0
 543 448 488 384 409 354 c 1
 409 350 l 1
 447 336 465 291 485 225 c 2
 543 28 l 2
 544 24 545 20 545 17 c 0
 545 5 534 -2 501 -2 c 2
 491 -2 l 2
 471 -2 455 2 452 14 c 2
 397 210 l 2
 375 288 336 308 258 308 c 2
 168 308 l 1
 138 20 l 2
 136 6 121 -2 96 -2 c 2
 88 -2 l 2
 58 -2 50 6 50 20 c 1
 118 670 l 2
 120 691 130 700 151 700 c 2
 319 700 l 2
176 384 m 1
 308 384 l 2
 388 384 450 451 450 525 c 0
 450 593 401 624 326 624 c 2
 201 624 l 1
 176 384 l 1
221 -102 m 2
 223 -89 235 -80 267 -80 c 0
 296 -80 305 -88 305 -102 c 1
 300 -153 l 2
 298 -166 284 -175 254 -175 c 0
 224 -175 216 -167 216 -153 c 1
 221 -102 l 2
EndSplineSet
Position2: "'cpsp' Capital Spacing lookup 3 subtable" dx=5 dy=0 dh=10 dv=0
EndChar

StartChar: S
Encoding: 83 83 139
Width: 500
Flags: MW
HStem: -6 76<183 253.5 163.5 277.5> 630 76<261.5 337 237 338.5>
VStem: 67 90<478 551 478 561.5> 359 91<162 235>
LayerCount: 2
Fore
SplineSet
309 706 m 0
 365 706 464 682 464 646 c 0
 464 633 436 592 426 592 c 0
 411 592 378 630 299 630 c 0
 224 630 157 591 157 511 c 0
 157 445 217 423 283 398 c 1
 362 366 450 329 450 215 c 0
 450 79 349 -6 206 -6 c 0
 160 -6 36 8 36 56 c 0
 36 111 45 121 52 121 c 0
 62 121 113 70 214 70 c 0
 293 70 359 123 359 201 c 0
 359 269 295 294 227 322 c 0
 150 353 67 387 67 501 c 0
 67 622 165 706 309 706 c 0
EndSplineSet
Position2: "'cpsp' Capital Spacing lookup 3 subtable" dx=5 dy=0 dh=10 dv=0
EndChar

StartChar: Sacute
Encoding: 346 346 140
Width: 500
Flags: MW
HStem: -6 76<183 253.5 163.5 277.5> 630 76<261.5 337 237 338.5>
VStem: 67 90<478 551 478 561.5> 359 91<162 235>
LayerCount: 2
Fore
SplineSet
396 909 m 0
 427 909 443 906 443 897 c 0
 443 886 432 877 337 780 c 0
 325 768 304 762 284 762 c 0
 269 762 262 765 262 771 c 0
 262 780 274 800 331 883 c 0
 344 902 364 909 396 909 c 0
309 706 m 0
 365 706 464 682 464 646 c 0
 464 633 436 592 426 592 c 0
 411 592 378 630 299 630 c 0
 224 630 157 591 157 511 c 0
 157 445 217 423 283 398 c 1
 362 366 450 329 450 215 c 0
 450 79 349 -6 206 -6 c 0
 160 -6 36 8 36 56 c 0
 36 111 45 121 52 121 c 0
 62 121 113 70 214 70 c 0
 293 70 359 123 359 201 c 0
 359 269 295 294 227 322 c 0
 150 353 67 387 67 501 c 0
 67 622 165 706 309 706 c 0
EndSplineSet
Substitution2: "'locl' Localized Forms in Latin lookup 12 subtable" Sacute.loclPLK
Substitution2: "'aalt' Access All Alternates lookup 0 subtable" Sacute.loclPLK
Position2: "'cpsp' Capital Spacing lookup 3 subtable" dx=5 dy=0 dh=10 dv=0
EndChar

StartChar: Scaron
Encoding: 352 352 141
Width: 500
Flags: MW
HStem: -6 76<183 253.5 163.5 277.5> 630 76<261.5 337 237 338.5> 759 142<223 293 223 318>
VStem: 67 90<478 551 478 561.5> 359 91<162 235>
LayerCount: 2
Fore
SplineSet
418 901 m 2
 433 901 440 896 440 887 c 0
 440 882 438 876 433 869 c 2
 366 781 l 2
 355 766 338 759 318 759 c 2
 293 759 l 2
 274 759 257 766 249 781 c 2
 203 869 l 2
 199 876 198 882 198 887 c 0
 199 896 208 901 223 901 c 2
 225 901 l 2
 239 901 249 897 258 888 c 1
 311 814 l 1
 382 888 l 1
 393 897 403 901 416 901 c 2
 418 901 l 2
309 706 m 0
 365 706 464 682 464 646 c 0
 464 633 436 592 426 592 c 0
 411 592 378 630 299 630 c 0
 224 630 157 591 157 511 c 0
 157 445 217 423 283 398 c 1
 362 366 450 329 450 215 c 0
 450 79 349 -6 206 -6 c 0
 160 -6 36 8 36 56 c 0
 36 111 45 121 52 121 c 0
 62 121 113 70 214 70 c 0
 293 70 359 123 359 201 c 0
 359 269 295 294 227 322 c 0
 150 353 67 387 67 501 c 0
 67 622 165 706 309 706 c 0
EndSplineSet
Position2: "'cpsp' Capital Spacing lookup 3 subtable" dx=5 dy=0 dh=10 dv=0
EndChar

StartChar: Scedilla
Encoding: 350 350 142
Width: 500
Flags: MW
HStem: -210 49<167 184.5 148.5 203.5> -6 76 630 76<261.5 337 237 338.5>
VStem: 67 90<478 551 478 561.5> 232 72<-139 -102> 359 91<162 235>
LayerCount: 2
Fore
SplineSet
226 -49 m 2
 247 -49 304 -55 304 -111 c 0
 304 -198 228 -210 179 -210 c 0
 155 -210 82 -205 82 -169 c 0
 82 -136 89 -136 94 -136 c 0
 98 -136 125 -161 172 -161 c 0
 197 -161 232 -157 232 -121 c 0
 232 -83 172 -94 172 -69 c 1
 172 -69 178 -52 197 -6 c 1
 145 -4 36 11 36 56 c 0
 36 111 45 121 52 121 c 0
 62 121 113 70 214 70 c 0
 293 70 359 123 359 201 c 0
 359 269 295 294 227 322 c 0
 150 353 67 387 67 501 c 0
 67 622 165 706 309 706 c 0
 365 706 464 682 464 646 c 0
 464 633 436 592 426 592 c 0
 411 592 378 630 299 630 c 0
 224 630 157 591 157 511 c 0
 157 445 217 423 283 398 c 1
 362 366 450 329 450 215 c 0
 450 90 365 8 240 -4 c 1
 222 -49 l 1
 226 -49 l 2
EndSplineSet
Substitution2: "'locl' Localized Forms in Latin lookup 11 subtable" Scommaaccent
Substitution2: "'locl' Localized Forms in Latin lookup 10 subtable" Scommaaccent
Substitution2: "'aalt' Access All Alternates lookup 0 subtable" Scommaaccent
Position2: "'cpsp' Capital Spacing lookup 3 subtable" dx=5 dy=0 dh=10 dv=0
EndChar

StartChar: Scircumflex
Encoding: 348 348 143
Width: 500
Flags: MW
HStem: -6 76<183 253.5 163.5 277.5> 630 76<261.5 337 237 338.5> 753 142<193 325 200 325 300 393 300 395>
VStem: 67 90<478 551 478 561.5> 359 91<162 235>
LayerCount: 2
Fore
SplineSet
325 895 m 2
 344 895 361 888 369 873 c 2
 416 785 l 2
 420 779 421 773 421 768 c 0
 420 759 411 753 395 753 c 2
 393 753 l 2
 380 753 370 757 361 766 c 1
 306 840 l 1
 237 766 l 1
 226 757 216 753 202 753 c 2
 200 753 l 2
 186 753 179 757 179 765 c 0
 179 771 181 777 186 785 c 2
 252 873 l 2
 263 888 280 895 300 895 c 2
 325 895 l 2
309 706 m 0
 365 706 464 682 464 646 c 0
 464 633 436 592 426 592 c 0
 411 592 378 630 299 630 c 0
 224 630 157 591 157 511 c 0
 157 445 217 423 283 398 c 1
 362 366 450 329 450 215 c 0
 450 79 349 -6 206 -6 c 0
 160 -6 36 8 36 56 c 0
 36 111 45 121 52 121 c 0
 62 121 113 70 214 70 c 0
 293 70 359 123 359 201 c 0
 359 269 295 294 227 322 c 0
 150 353 67 387 67 501 c 0
 67 622 165 706 309 706 c 0
EndSplineSet
Position2: "'cpsp' Capital Spacing lookup 3 subtable" dx=5 dy=0 dh=10 dv=0
EndChar

StartChar: Scommaaccent
Encoding: 536 536 144
Width: 500
Flags: MW
HStem: -235 21G<134.5 156.5> -6 76<183 253.5 163.5 277.5> 630 76<261.5 337 237 338.5>
VStem: 67 90<478 551 478 561.5> 170 90<-108 -73.5> 359 91<162 235>
LayerCount: 2
Fore
SplineSet
309 706 m 0
 365 706 464 682 464 646 c 0
 464 633 436 592 426 592 c 0
 411 592 378 630 299 630 c 0
 224 630 157 591 157 511 c 0
 157 445 217 423 283 398 c 1
 362 366 450 329 450 215 c 0
 450 79 349 -6 206 -6 c 0
 160 -6 36 8 36 56 c 0
 36 111 45 121 52 121 c 0
 62 121 113 70 214 70 c 0
 293 70 359 123 359 201 c 0
 359 269 295 294 227 322 c 0
 150 353 67 387 67 501 c 0
 67 622 165 706 309 706 c 0
223 -51 m 2xfc
 248 -51 260 -62 260 -79 c 0
 260 -137 173 -235 140 -235 c 0
 129 -235 113 -232 113 -220 c 0
 113 -189 170 -147 170 -83 c 0
 170 -64 187 -51 214 -51 c 2
 223 -51 l 2xfc
EndSplineSet
Position2: "'cpsp' Capital Spacing lookup 3 subtable" dx=5 dy=0 dh=10 dv=0
EndChar

StartChar: Sdotbelow
Encoding: 7778 7778 145
Width: 500
Flags: MW
HStem: -175 95<196 214> -6 76<183 253.5 163.5 277.5> 630 76<261.5 337 237 338.5>
VStem: 67 90<478 551 478 561.5> 161 89<-160 -95> 359 91<162 235>
LayerCount: 2
Fore
SplineSet
309 706 m 0
 365 706 464 682 464 646 c 0
 464 633 436 592 426 592 c 0
 411 592 378 630 299 630 c 0
 224 630 157 591 157 511 c 0
 157 445 217 423 283 398 c 1
 362 366 450 329 450 215 c 0
 450 79 349 -6 206 -6 c 0
 160 -6 36 8 36 56 c 0
 36 111 45 121 52 121 c 0
 62 121 113 70 214 70 c 0
 293 70 359 123 359 201 c 0
 359 269 295 294 227 322 c 0
 150 353 67 387 67 501 c 0
 67 622 165 706 309 706 c 0
166 -102 m 2xec
 168 -89 180 -80 212 -80 c 0
 241 -80 250 -88 250 -102 c 1
 245 -153 l 2
 243 -166 229 -175 199 -175 c 0
 169 -175 161 -167 161 -153 c 1
 166 -102 l 2xec
EndSplineSet
Position2: "'cpsp' Capital Spacing lookup 3 subtable" dx=5 dy=0 dh=10 dv=0
EndChar

StartChar: uni1E9E
Encoding: 7838 7838 146
Width: 700
Flags: MW
HStem: -6 72<402.5 445 372 463.5> -2 21G<85 100 100 108> 630 76<330.5 431.5>
VStem: 564 87<163.5 268.5>
LayerCount: 2
Fore
SplineSet
105 430 m 2xb0
 120 582 201 706 412 706 c 0
 521 706 595 691 640 674 c 0
 646 671 660 637 660 626 c 0
 660 619 658 613 655 609 c 2
 485 397 l 1
 610 372 651 320 651 228 c 0
 651 55 512 -6 415 -6 c 0
 390 -6 259 0 257 44 c 1
 257 98 265 103 272 103 c 0
 276 103 329 66 415 66 c 0xb0
 475 66 564 99 564 228 c 0
 564 309 505 334 417 334 c 2
 391 334 l 2
 382 334 372 372 372 382 c 0
 372 388 374 395 377 399 c 2
 552 616 l 1
 517 623 466 630 397 630 c 0
 264 630 204 546 193 434 c 2
 150 20 l 2
 149 6 134 -2 108 -2 c 2
 100 -2 l 2
 70 -2 62 6 62 20 c 1x70
 105 430 l 2xb0
EndSplineSet
Position2: "'cpsp' Capital Spacing lookup 3 subtable" dx=5 dy=0 dh=10 dv=0
EndChar

StartChar: Schwa
Encoding: 399 399 147
Width: 672
Flags: MW
HStem: -4 72<252.5 371.5 252.5 402.5> 360 72<379.5 399 399 417.5 308.5 520> 634 72<315.5 396>
VStem: 69 87<163.5 278.5 163.5 282.5> 525 87<425 509>
LayerCount: 2
Fore
SplineSet
346 706 m 0
 461 706 612 673 612 444 c 0
 612 205 518 -4 287 -4 c 0
 126 -4 69 114 69 189 c 0
 69 376 228 432 389 432 c 0
 446 432 494 429 525 425 c 1
 525 593 453 634 339 634 c 0
 213 634 144 565 124 565 c 0
 120 565 117 565 117 577 c 0
 117 580 118 601 122 622 c 1
 137 683 285 706 346 706 c 0
399 360 m 2
 360 360 156 360 156 197 c 0
 156 130 209 68 296 68 c 0
 447 68 502 207 520 360 c 1
 399 360 l 2
EndSplineSet
Position2: "'cpsp' Capital Spacing lookup 3 subtable" dx=5 dy=0 dh=10 dv=0
EndChar

StartChar: T
Encoding: 84 84 148
Width: 549
Flags: MW
HStem: -2 21G<219 234 234 242> 624 76<59 545 73 259 347 537 347 347>
VStem: 48 514<638.5 685.5>
LayerCount: 2
Fore
SplineSet
545 700 m 2
 557 700 562 693 562 678 c 0
 562 655 562 624 537 624 c 2
 347 624 l 1
 284 20 l 2
 282 6 267 -2 242 -2 c 2
 234 -2 l 2
 204 -2 196 6 196 20 c 1
 259 624 l 1
 65 624 l 2
 53 624 48 631 48 646 c 0
 48 669 48 700 73 700 c 2
 545 700 l 2
EndSplineSet
Position2: "'cpsp' Capital Spacing lookup 3 subtable" dx=5 dy=0 dh=10 dv=0
EndChar

StartChar: Tbar
Encoding: 358 358 149
Width: 549
Flags: MW
HStem: -2 21G<219 234 234 242> 318 71<76 234 91 227 322 449> 624 76<59 545 73 259 347 537 347 347>
VStem: 48 514<638.5 685.5>
LayerCount: 2
Fore
SplineSet
545 700 m 2
 557 700 562 693 562 678 c 0
 562 655 562 624 537 624 c 2
 347 624 l 1
 322 389 l 1
 457 389 l 2
 471 389 474 379 474 363 c 0
 474 352 473 318 449 318 c 2
 315 318 l 1
 284 20 l 2
 282 6 267 -2 242 -2 c 2
 234 -2 l 2
 204 -2 196 6 196 20 c 1
 227 318 l 1
 83 318 l 2
 69 318 66 329 66 345 c 0
 66 356 67 389 91 389 c 2
 234 389 l 1
 259 624 l 1
 65 624 l 2
 53 624 48 631 48 646 c 0
 48 669 48 700 73 700 c 2
 545 700 l 2
EndSplineSet
Position2: "'cpsp' Capital Spacing lookup 3 subtable" dx=5 dy=0 dh=10 dv=0
EndChar

StartChar: Tcaron
Encoding: 356 356 150
Width: 549
Flags: MW
HStem: -2 21G<219 234 234 242> 624 76<59 545 73 259 347 537 347 347> 759 142<228 298 228 323>
VStem: 48 514<638.5 685.5>
LayerCount: 2
Fore
SplineSet
423 901 m 2
 438 901 445 896 445 887 c 0
 445 882 443 876 438 869 c 2
 371 781 l 2
 360 766 343 759 323 759 c 2
 298 759 l 2
 279 759 262 766 254 781 c 2
 208 869 l 2
 204 876 203 882 203 887 c 0
 204 896 213 901 228 901 c 2
 230 901 l 2
 244 901 254 897 263 888 c 1
 316 814 l 1
 387 888 l 1
 398 897 408 901 421 901 c 2
 423 901 l 2
545 700 m 2
 557 700 562 693 562 678 c 0
 562 655 562 624 537 624 c 2
 347 624 l 1
 284 20 l 2
 282 6 267 -2 242 -2 c 2
 234 -2 l 2
 204 -2 196 6 196 20 c 1
 259 624 l 1
 65 624 l 2
 53 624 48 631 48 646 c 0
 48 669 48 700 73 700 c 2
 545 700 l 2
EndSplineSet
Position2: "'cpsp' Capital Spacing lookup 3 subtable" dx=5 dy=0 dh=10 dv=0
EndChar

StartChar: Tcedilla
Encoding: 354 354 151
Width: 549
Flags: MW
HStem: -212 49<174 191.5 155.5 210.5> -2 21G<206 234 219 234 242 249 249 249> 624 76<59 545 73 259 347 537 347 347>
VStem: 239 72<-141 -104>
LayerCount: 2
Fore
SplineSet
545 700 m 2
 557 700 562 693 562 678 c 0
 562 655 562 624 537 624 c 2
 347 624 l 1
 284 20 l 2
 282 6 267 -2 242 -2 c 2
 249 -2 l 1
 229 -51 l 1
 233 -51 l 2
 254 -51 311 -57 311 -113 c 0
 311 -200 235 -212 186 -212 c 0
 162 -212 89 -207 89 -171 c 0
 89 -138 96 -138 101 -138 c 0
 105 -138 132 -163 179 -163 c 0
 204 -163 239 -159 239 -123 c 0
 239 -85 179 -96 179 -71 c 1
 179 -71 185 -53 206 -2 c 1
 234 -2 l 2
 204 -2 196 6 196 20 c 1
 259 624 l 1
 65 624 l 2
 53 624 48 631 48 646 c 0
 48 669 48 700 73 700 c 2
 545 700 l 2
EndSplineSet
Substitution2: "'locl' Localized Forms in Latin lookup 11 subtable" uni021A
Substitution2: "'locl' Localized Forms in Latin lookup 10 subtable" uni021A
Substitution2: "'aalt' Access All Alternates lookup 0 subtable" uni021A
Position2: "'cpsp' Capital Spacing lookup 3 subtable" dx=5 dy=0 dh=10 dv=0
EndChar

StartChar: uni021A
Encoding: 538 538 152
Width: 549
Flags: MW
HStem: -2 21G<219 234 234 242> 624 76<59 545 73 259 347 537 347 347>
VStem: 177 90<-110 -75.5>
LayerCount: 2
Fore
SplineSet
545 700 m 2
 557 700 562 693 562 678 c 0
 562 655 562 624 537 624 c 2
 347 624 l 1
 284 20 l 2
 282 6 267 -2 242 -2 c 2
 234 -2 l 2
 204 -2 196 6 196 20 c 1
 259 624 l 1
 65 624 l 2
 53 624 48 631 48 646 c 0
 48 669 48 700 73 700 c 2
 545 700 l 2
230 -53 m 2
 255 -53 267 -64 267 -81 c 0
 267 -139 180 -237 147 -237 c 0
 136 -237 120 -234 120 -222 c 0
 120 -191 177 -149 177 -85 c 0
 177 -66 194 -53 221 -53 c 2
 230 -53 l 2
EndSplineSet
Position2: "'cpsp' Capital Spacing lookup 3 subtable" dx=5 dy=0 dh=10 dv=0
EndChar

StartChar: Tdotbelow
Encoding: 7788 7788 153
Width: 549
Flags: MW
HStem: -177 95<203 221> -2 21G<219 234 234 242> 624 76<59 545 73 259 347 537 347 347>
VStem: 168 89<-162 -97>
LayerCount: 2
Fore
SplineSet
545 700 m 2
 557 700 562 693 562 678 c 0
 562 655 562 624 537 624 c 2
 347 624 l 1
 284 20 l 2
 282 6 267 -2 242 -2 c 2
 234 -2 l 2
 204 -2 196 6 196 20 c 1
 259 624 l 1
 65 624 l 2
 53 624 48 631 48 646 c 0
 48 669 48 700 73 700 c 2
 545 700 l 2
173 -104 m 2
 175 -91 187 -82 219 -82 c 0
 248 -82 257 -90 257 -104 c 1
 252 -155 l 2
 250 -168 236 -177 206 -177 c 0
 176 -177 168 -169 168 -155 c 1
 173 -104 l 2
EndSplineSet
Position2: "'cpsp' Capital Spacing lookup 3 subtable" dx=5 dy=0 dh=10 dv=0
EndChar

StartChar: U
Encoding: 85 85 154
Width: 712
Flags: MW
HStem: -6 76<267 376.5 267 403> 682 20G<157 165 165 179.5 615 623 623 637.5>
VStem: 64 89<165.5 198>
LayerCount: 2
Fore
SplineSet
623 702 m 2
 652 702 660 694 660 680 c 1
 612 224 l 2
 597 80 491 -6 315 -6 c 0
 151 -6 64 68 64 193 c 0
 64 203 65 213 114 680 c 0
 115 694 129 702 157 702 c 2
 165 702 l 2
 194 702 202 694 202 680 c 1
 153 216 153 211 153 206 c 0
 153 125 211 70 323 70 c 0
 430 70 515 133 524 221 c 2
 572 680 l 2
 573 694 587 702 615 702 c 2
 623 702 l 2
EndSplineSet
Position2: "'cpsp' Capital Spacing lookup 3 subtable" dx=5 dy=0 dh=10 dv=0
EndChar

StartChar: Uacute
Encoding: 218 218 155
Width: 712
Flags: MW
HStem: -6 76<267 376.5 267 403> 682 20G<157 165 165 179.5 615 623 623 637.5>
VStem: 64 89<165.5 198>
LayerCount: 2
Fore
SplineSet
482 909 m 0
 513 909 529 906 529 897 c 0
 529 886 518 877 423 780 c 0
 411 768 390 762 370 762 c 0
 355 762 348 765 348 771 c 0
 348 780 360 800 417 883 c 0
 430 902 450 909 482 909 c 0
623 702 m 2
 652 702 660 694 660 680 c 1
 612 224 l 2
 597 80 491 -6 315 -6 c 0
 151 -6 64 68 64 193 c 0
 64 203 65 213 114 680 c 0
 115 694 129 702 157 702 c 2
 165 702 l 2
 194 702 202 694 202 680 c 1
 153 216 153 211 153 206 c 0
 153 125 211 70 323 70 c 0
 430 70 515 133 524 221 c 2
 572 680 l 2
 573 694 587 702 615 702 c 2
 623 702 l 2
EndSplineSet
Position2: "'cpsp' Capital Spacing lookup 3 subtable" dx=5 dy=0 dh=10 dv=0
EndChar

StartChar: Ubreve
Encoding: 364 364 156
Width: 712
Flags: MW
HStem: -6 76<267 376.5 267 403> 682 20G<157 165 165 179.5 615 623 623 637.5> 762 66<373.5 422 373.5 424.5>
VStem: 64 89<165.5 198>
LayerCount: 2
Fore
SplineSet
533 892 m 0
 543 892 547 888 547 880 c 0
 547 801 458 762 391 762 c 0
 323 762 257 796 257 865 c 0
 257 882 259 892 274 892 c 0
 291 892 287 883 294 867 c 0
 306 839 349 828 398 828 c 0
 446 828 491 839 509 867 c 0
 519 883 515 892 533 892 c 0
623 702 m 2
 652 702 660 694 660 680 c 1
 612 224 l 2
 597 80 491 -6 315 -6 c 0
 151 -6 64 68 64 193 c 0
 64 203 65 213 114 680 c 0
 115 694 129 702 157 702 c 2
 165 702 l 2
 194 702 202 694 202 680 c 1
 153 216 153 211 153 206 c 0
 153 125 211 70 323 70 c 0
 430 70 515 133 524 221 c 2
 572 680 l 2
 573 694 587 702 615 702 c 2
 623 702 l 2
EndSplineSet
Position2: "'cpsp' Capital Spacing lookup 3 subtable" dx=5 dy=0 dh=10 dv=0
EndChar

StartChar: Ucircumflex
Encoding: 219 219 157
Width: 712
Flags: MW
HStem: -6 76<267 376.5 267 403> 682 20G<157 165 165 179.5 615 623 623 637.5> 753 142<279 411 286 411 386 479 386 481>
VStem: 64 89<165.5 198>
LayerCount: 2
Fore
SplineSet
411 895 m 2
 430 895 447 888 455 873 c 2
 502 785 l 2
 506 779 507 773 507 768 c 0
 506 759 497 753 481 753 c 2
 479 753 l 2
 466 753 456 757 447 766 c 1
 392 840 l 1
 323 766 l 1
 312 757 302 753 288 753 c 2
 286 753 l 2
 272 753 265 757 265 765 c 0
 265 771 267 777 272 785 c 2
 338 873 l 2
 349 888 366 895 386 895 c 2
 411 895 l 2
623 702 m 2
 652 702 660 694 660 680 c 1
 612 224 l 2
 597 80 491 -6 315 -6 c 0
 151 -6 64 68 64 193 c 0
 64 203 65 213 114 680 c 0
 115 694 129 702 157 702 c 2
 165 702 l 2
 194 702 202 694 202 680 c 1
 153 216 153 211 153 206 c 0
 153 125 211 70 323 70 c 0
 430 70 515 133 524 221 c 2
 572 680 l 2
 573 694 587 702 615 702 c 2
 623 702 l 2
EndSplineSet
Position2: "'cpsp' Capital Spacing lookup 3 subtable" dx=5 dy=0 dh=10 dv=0
EndChar

StartChar: Udieresis
Encoding: 220 220 158
Width: 712
Flags: MW
HStem: -6 76<267 376.5 267 403> 682 20G<157 165 165 179.5 615 623 623 637.5> 784 95<315 333 459 477>
VStem: 64 89<165.5 198> 280 89<799 864> 424 89<799 864>
LayerCount: 2
Fore
SplineSet
285 857 m 2
 287 870 299 879 331 879 c 0
 360 879 369 871 369 857 c 1
 364 806 l 2
 362 793 348 784 318 784 c 0
 288 784 280 792 280 806 c 1
 285 857 l 2
429 857 m 2
 430 870 443 879 475 879 c 0
 504 879 513 871 513 857 c 1
 508 806 l 2
 506 793 492 784 462 784 c 0
 432 784 424 792 424 806 c 1
 429 857 l 2
623 702 m 2
 652 702 660 694 660 680 c 1
 612 224 l 2
 597 80 491 -6 315 -6 c 0
 151 -6 64 68 64 193 c 0
 64 203 65 213 114 680 c 0
 115 694 129 702 157 702 c 2
 165 702 l 2
 194 702 202 694 202 680 c 1
 153 216 153 211 153 206 c 0
 153 125 211 70 323 70 c 0
 430 70 515 133 524 221 c 2
 572 680 l 2
 573 694 587 702 615 702 c 2
 623 702 l 2
EndSplineSet
Position2: "'cpsp' Capital Spacing lookup 3 subtable" dx=5 dy=0 dh=10 dv=0
EndChar

StartChar: Udotbelow
Encoding: 7908 7908 159
Width: 712
Flags: MW
HStem: -175 95<293 311> -6 76<267 376.5 267 403> 682 20G<157 165 165 179.5 615 623 623 637.5>
VStem: 64 89<165.5 198> 258 89<-160 -95>
LayerCount: 2
Fore
SplineSet
623 702 m 2
 652 702 660 694 660 680 c 1
 612 224 l 2
 597 80 491 -6 315 -6 c 0
 151 -6 64 68 64 193 c 0
 64 203 65 213 114 680 c 0
 115 694 129 702 157 702 c 2
 165 702 l 2
 194 702 202 694 202 680 c 1
 153 216 153 211 153 206 c 0
 153 125 211 70 323 70 c 0
 430 70 515 133 524 221 c 2
 572 680 l 2
 573 694 587 702 615 702 c 2
 623 702 l 2
263 -102 m 2
 265 -89 277 -80 309 -80 c 0
 338 -80 347 -88 347 -102 c 1
 342 -153 l 2
 340 -166 326 -175 296 -175 c 0
 266 -175 258 -167 258 -153 c 1
 263 -102 l 2
EndSplineSet
Position2: "'cpsp' Capital Spacing lookup 3 subtable" dx=5 dy=0 dh=10 dv=0
EndChar

StartChar: Ugrave
Encoding: 217 217 160
Width: 712
Flags: MW
HStem: -6 76<267 376.5 267 403> 682 20G<157 165 165 179.5 615 623 623 637.5>
VStem: 64 89<165.5 198>
LayerCount: 2
Fore
SplineSet
315 909 m 0
 347 909 366 902 377 883 c 0
 426 799 435 780 435 771 c 0
 435 765 427 762 412 762 c 0
 392 762 371 768 361 780 c 0
 276 877 267 885 267 897 c 1
 268 906 284 909 315 909 c 0
623 702 m 2
 652 702 660 694 660 680 c 1
 612 224 l 2
 597 80 491 -6 315 -6 c 0
 151 -6 64 68 64 193 c 0
 64 203 65 213 114 680 c 0
 115 694 129 702 157 702 c 2
 165 702 l 2
 194 702 202 694 202 680 c 1
 153 216 153 211 153 206 c 0
 153 125 211 70 323 70 c 0
 430 70 515 133 524 221 c 2
 572 680 l 2
 573 694 587 702 615 702 c 2
 623 702 l 2
EndSplineSet
Position2: "'cpsp' Capital Spacing lookup 3 subtable" dx=5 dy=0 dh=10 dv=0
EndChar

StartChar: Uhookabove
Encoding: 7910 7910 161
Width: 712
Flags: MW
HStem: -6 76<267 376.5 267 403> 682 20G<157 165 165 179.5 615 623 623 637.5> 876 51<391.5 406>
VStem: 64 89<165.5 198> 430 66<825 859>
LayerCount: 2
Fore
SplineSet
430 851 m 0
 430 867 416 876 396 876 c 0
 365 876 353 863 348 863 c 0
 340 863 328 886 328 896 c 0
 328 909 374 927 409 927 c 0
 443 927 496 911 496 857 c 0
 496 787 407 740 397 740 c 0
 376 740 358 748 358 757 c 0
 358 784 430 799 430 851 c 0
623 702 m 2
 652 702 660 694 660 680 c 1
 612 224 l 2
 597 80 491 -6 315 -6 c 0
 151 -6 64 68 64 193 c 0
 64 203 65 213 114 680 c 0
 115 694 129 702 157 702 c 2
 165 702 l 2
 194 702 202 694 202 680 c 1
 153 216 153 211 153 206 c 0
 153 125 211 70 323 70 c 0
 430 70 515 133 524 221 c 2
 572 680 l 2
 573 694 587 702 615 702 c 2
 623 702 l 2
EndSplineSet
Position2: "'cpsp' Capital Spacing lookup 3 subtable" dx=5 dy=0 dh=10 dv=0
EndChar

StartChar: Uhorn
Encoding: 431 431 162
Width: 712
Flags: MW
HStem: -6 76<267 376.5 267 403> 682 20G<157 165 165 179.5 615 650 650 671.5>
VStem: 64 89<165.5 198> 709 63<741.5 753.5>
LayerCount: 2
Fore
SplineSet
725 829 m 2
 729 832 733 833 737 833 c 0
 760 833 772 794 772 766 c 0
 772 717 731 673 659 669 c 1
 612 224 l 2
 597 80 491 -6 315 -6 c 0
 151 -6 64 68 64 193 c 0
 64 203 65 213 114 680 c 0
 115 694 129 702 157 702 c 2
 165 702 l 2
 194 702 202 694 202 680 c 1
 153 216 153 211 153 206 c 0
 153 125 211 70 323 70 c 0
 430 70 515 133 524 221 c 2
 572 680 l 2
 573 694 587 702 615 702 c 2
 650 702 l 2
 693 702 709 719 709 742 c 0
 709 765 688 785 688 797 c 0
 688 803 692 809 699 813 c 2
 725 829 l 2
EndSplineSet
Position2: "'cpsp' Capital Spacing lookup 3 subtable" dx=5 dy=0 dh=10 dv=0
EndChar

StartChar: Uhornacute
Encoding: 7912 7912 163
Width: 712
Flags: MW
HStem: -6 76<267 376.5 267 403> 682 20G<157 165 165 179.5 615 650 650 671.5>
VStem: 64 89<165.5 198> 709 63<741.5 753.5>
LayerCount: 2
Fore
SplineSet
370 762 m 0
 355 762 348 765 348 771 c 0
 348 780 360 800 417 883 c 0
 430 902 450 909 482 909 c 0
 513 909 529 906 529 897 c 0
 529 886 518 877 423 780 c 0
 411 768 390 762 370 762 c 0
725 829 m 2
 729 832 733 833 737 833 c 0
 760 833 772 794 772 766 c 0
 772 717 731 673 659 669 c 1
 612 224 l 2
 597 80 491 -6 315 -6 c 0
 151 -6 64 68 64 193 c 0
 64 203 65 213 114 680 c 0
 115 694 129 702 157 702 c 2
 165 702 l 2
 194 702 202 694 202 680 c 1
 153 216 153 211 153 206 c 0
 153 125 211 70 323 70 c 0
 430 70 515 133 524 221 c 2
 572 680 l 2
 573 694 587 702 615 702 c 2
 650 702 l 2
 693 702 709 719 709 742 c 0
 709 765 688 785 688 797 c 0
 688 803 692 809 699 813 c 2
 725 829 l 2
EndSplineSet
Position2: "'cpsp' Capital Spacing lookup 3 subtable" dx=5 dy=0 dh=10 dv=0
EndChar

StartChar: Uhorndotbelow
Encoding: 7920 7920 164
Width: 712
Flags: MW
HStem: -175 95<293 311> -6 76<267 376.5 267 403> 682 20G<157 165 165 179.5 615 650 650 671.5>
VStem: 64 89<165.5 198> 258 89<-160 -95> 709 63<741.5 753.5>
LayerCount: 2
Fore
SplineSet
725 829 m 2
 729 832 733 833 737 833 c 0
 760 833 772 794 772 766 c 0
 772 717 731 673 659 669 c 1
 612 224 l 2
 597 80 491 -6 315 -6 c 0
 151 -6 64 68 64 193 c 0
 64 203 65 213 114 680 c 0
 115 694 129 702 157 702 c 2
 165 702 l 2
 194 702 202 694 202 680 c 1
 153 216 153 211 153 206 c 0
 153 125 211 70 323 70 c 0
 430 70 515 133 524 221 c 2
 572 680 l 2
 573 694 587 702 615 702 c 2
 650 702 l 2
 693 702 709 719 709 742 c 0
 709 765 688 785 688 797 c 0
 688 803 692 809 699 813 c 2
 725 829 l 2
263 -102 m 2
 265 -89 277 -80 309 -80 c 0
 338 -80 347 -88 347 -102 c 1
 342 -153 l 2
 340 -166 326 -175 296 -175 c 0
 266 -175 258 -167 258 -153 c 1
 263 -102 l 2
EndSplineSet
Position2: "'cpsp' Capital Spacing lookup 3 subtable" dx=5 dy=0 dh=10 dv=0
EndChar

StartChar: Uhorngrave
Encoding: 7914 7914 165
Width: 712
Flags: MW
HStem: -6 76<267 376.5 267 403> 682 20G<157 165 165 179.5 615 650 650 671.5>
VStem: 64 89<165.5 198> 709 63<741.5 753.5>
LayerCount: 2
Fore
SplineSet
412 762 m 0
 392 762 371 768 361 780 c 0
 276 877 267 885 267 897 c 1
 268 906 284 909 315 909 c 0
 347 909 366 902 377 883 c 0
 426 799 435 780 435 771 c 0
 435 765 427 762 412 762 c 0
725 829 m 2
 729 832 733 833 737 833 c 0
 760 833 772 794 772 766 c 0
 772 717 731 673 659 669 c 1
 612 224 l 2
 597 80 491 -6 315 -6 c 0
 151 -6 64 68 64 193 c 0
 64 203 65 213 114 680 c 0
 115 694 129 702 157 702 c 2
 165 702 l 2
 194 702 202 694 202 680 c 1
 153 216 153 211 153 206 c 0
 153 125 211 70 323 70 c 0
 430 70 515 133 524 221 c 2
 572 680 l 2
 573 694 587 702 615 702 c 2
 650 702 l 2
 693 702 709 719 709 742 c 0
 709 765 688 785 688 797 c 0
 688 803 692 809 699 813 c 2
 725 829 l 2
EndSplineSet
Position2: "'cpsp' Capital Spacing lookup 3 subtable" dx=5 dy=0 dh=10 dv=0
EndChar

StartChar: Uhornhookabove
Encoding: 7916 7916 166
Width: 712
Flags: MW
HStem: -6 76<267 376.5 267 403> 682 20G<157 165 165 179.5 615 650 650 671.5> 876 51<391.5 406>
VStem: 64 89<165.5 198> 430 66<825 859> 709 63<741.5 753.5>
LayerCount: 2
Fore
SplineSet
348 863 m 0
 340 863 328 886 328 896 c 0
 328 909 374 927 409 927 c 0
 443 927 496 911 496 857 c 0
 496 787 407 740 397 740 c 0
 376 740 358 748 358 757 c 0
 358 784 430 799 430 851 c 0
 430 867 416 876 396 876 c 0
 365 876 353 863 348 863 c 0
725 829 m 2
 729 832 733 833 737 833 c 0
 760 833 772 794 772 766 c 0
 772 717 731 673 659 669 c 1
 612 224 l 2
 597 80 491 -6 315 -6 c 0
 151 -6 64 68 64 193 c 0
 64 203 65 213 114 680 c 0
 115 694 129 702 157 702 c 2
 165 702 l 2
 194 702 202 694 202 680 c 1
 153 216 153 211 153 206 c 0
 153 125 211 70 323 70 c 0
 430 70 515 133 524 221 c 2
 572 680 l 2
 573 694 587 702 615 702 c 2
 650 702 l 2
 693 702 709 719 709 742 c 0
 709 765 688 785 688 797 c 0
 688 803 692 809 699 813 c 2
 725 829 l 2
EndSplineSet
Position2: "'cpsp' Capital Spacing lookup 3 subtable" dx=5 dy=0 dh=10 dv=0
EndChar

StartChar: Uhorntilde
Encoding: 7918 7918 167
Width: 712
Flags: MW
HStem: -6 76<267 376.5 267 403> 682 20G<157 165 165 179.5 615 650 650 671.5> 762 64<464 478.5> 793 64<330.5 345.5>
VStem: 64 89<165.5 198> 709 63<741.5 753.5>
LayerCount: 2
Fore
SplineSet
285 774 m 0xdc
 277 770 270 768 264 768 c 0
 256 768 249 772 243 780 c 0
 238 787 235 794 235 800 c 0
 235 807 239 812 244 816 c 0
 273 837 310 857 351 857 c 0xdc
 389 857 412 845 427 839 c 0
 443 832 457 826 471 826 c 0
 493 826 510 836 528 848 c 0
 534 852 540 855 546 855 c 0
 553 855 559 852 565 846 c 0
 572 839 575 832 575 826 c 0
 575 819 571 812 564 806 c 0
 534 781 499 762 458 762 c 0xec
 420 762 400 770 383 778 c 0
 365 786 352 793 339 793 c 0
 317 793 302 783 285 774 c 0xdc
725 829 m 2
 729 832 733 833 737 833 c 0
 760 833 772 794 772 766 c 0
 772 717 731 673 659 669 c 1
 612 224 l 2
 597 80 491 -6 315 -6 c 0
 151 -6 64 68 64 193 c 0
 64 203 65 213 114 680 c 0
 115 694 129 702 157 702 c 2
 165 702 l 2
 194 702 202 694 202 680 c 1
 153 216 153 211 153 206 c 0
 153 125 211 70 323 70 c 0
 430 70 515 133 524 221 c 2
 572 680 l 2
 573 694 587 702 615 702 c 2
 650 702 l 2
 693 702 709 719 709 742 c 0
 709 765 688 785 688 797 c 0
 688 803 692 809 699 813 c 2
 725 829 l 2
EndSplineSet
Position2: "'cpsp' Capital Spacing lookup 3 subtable" dx=5 dy=0 dh=10 dv=0
EndChar

StartChar: Uhungarumlaut
Encoding: 368 368 168
Width: 712
Flags: MW
HStem: -6 76<267 376.5 267 403> 682 20G<157 165 165 179.5 615 623 623 637.5>
VStem: 64 89<165.5 198>
LayerCount: 2
Fore
SplineSet
420 909 m 0
 451 909 467 906 467 897 c 0
 467 886 456 877 361 780 c 0
 349 768 328 762 308 762 c 0
 293 762 286 765 286 771 c 0
 286 780 298 800 355 883 c 0
 368 902 388 909 420 909 c 0
566 909 m 0
 597 909 613 906 613 897 c 0
 613 886 602 877 507 780 c 0
 495 768 474 762 454 762 c 0
 439 762 432 765 432 771 c 0
 432 780 444 800 501 883 c 0
 514 902 534 909 566 909 c 0
623 702 m 2
 652 702 660 694 660 680 c 1
 612 224 l 2
 597 80 491 -6 315 -6 c 0
 151 -6 64 68 64 193 c 0
 64 203 65 213 114 680 c 0
 115 694 129 702 157 702 c 2
 165 702 l 2
 194 702 202 694 202 680 c 1
 153 216 153 211 153 206 c 0
 153 125 211 70 323 70 c 0
 430 70 515 133 524 221 c 2
 572 680 l 2
 573 694 587 702 615 702 c 2
 623 702 l 2
EndSplineSet
Position2: "'cpsp' Capital Spacing lookup 3 subtable" dx=5 dy=0 dh=10 dv=0
EndChar

StartChar: Umacron
Encoding: 362 362 169
Width: 712
Flags: MW
HStem: -6 76<267 376.5 267 403> 682 20G<157 165 165 179.5 615 623 623 637.5> 789 71<262 503 277 495>
VStem: 64 89<165.5 198>
LayerCount: 2
Fore
SplineSet
503 860 m 2
 517 860 520 850 520 834 c 0
 520 823 519 789 495 789 c 2
 269 789 l 2
 255 789 252 800 252 816 c 0
 252 827 253 860 277 860 c 2
 503 860 l 2
623 702 m 2
 652 702 660 694 660 680 c 1
 612 224 l 2
 597 80 491 -6 315 -6 c 0
 151 -6 64 68 64 193 c 0
 64 203 65 213 114 680 c 0
 115 694 129 702 157 702 c 2
 165 702 l 2
 194 702 202 694 202 680 c 1
 153 216 153 211 153 206 c 0
 153 125 211 70 323 70 c 0
 430 70 515 133 524 221 c 2
 572 680 l 2
 573 694 587 702 615 702 c 2
 623 702 l 2
EndSplineSet
Position2: "'cpsp' Capital Spacing lookup 3 subtable" dx=5 dy=0 dh=10 dv=0
EndChar

StartChar: Uogonek
Encoding: 370 370 170
Width: 712
Flags: MW
HStem: -183 70<428 441.5> -6 76<267 315> 682 20G<157 165 165 179.5 615 623 623 637.5>
VStem: 64 89<165.5 198> 312 69<-90 -85.5>
LayerCount: 2
Fore
SplineSet
623 702 m 2
 652 702 660 694 660 680 c 1
 612 224 l 2
 600 105 525 26 400 2 c 1
 400 -14 381 -42 381 -70 c 0
 381 -110 417 -113 439 -113 c 0
 470 -113 494 -95 503 -95 c 0
 507 -95 509 -99 509 -108 c 0
 509 -173 463 -183 420 -183 c 0
 326 -183 312 -127 312 -94 c 0
 312 -77 319 -32 342 -5 c 1
 315 -6 l 1
 151 -6 64 68 64 193 c 0
 64 203 65 213 114 680 c 0
 115 694 129 702 157 702 c 2
 165 702 l 2
 194 702 202 694 202 680 c 1
 153 216 153 211 153 206 c 0
 153 125 211 70 323 70 c 0
 430 70 515 133 524 221 c 2
 572 680 l 2
 573 694 587 702 615 702 c 2
 623 702 l 2
EndSplineSet
Position2: "'cpsp' Capital Spacing lookup 3 subtable" dx=5 dy=0 dh=10 dv=0
EndChar

StartChar: Uring
Encoding: 366 366 171
Width: 712
Flags: MW
HStem: -6 76<267 376.5 267 403> 682 20G<157 165 165 179.5 615 623 623 637.5> 741 35<367.5 396.5 367.5 403> 875 35<377.5 405>
VStem: 64 89<165.5 198> 302 35<808 836 808 842.5> 436 35<815.5 843.5>
LayerCount: 2
Fore
SplineSet
395 910 m 0
 439 910 471 877 471 834 c 0
 471 783 428 741 378 741 c 0
 333 741 302 774 302 817 c 0
 302 868 346 910 395 910 c 0
392 875 m 0
 363 875 337 851 337 821 c 0
 337 795 354 776 381 776 c 0
 412 776 436 800 436 831 c 0
 436 856 418 875 392 875 c 0
623 702 m 2
 652 702 660 694 660 680 c 1
 612 224 l 2
 597 80 491 -6 315 -6 c 0
 151 -6 64 68 64 193 c 0
 64 203 65 213 114 680 c 0
 115 694 129 702 157 702 c 2
 165 702 l 2
 194 702 202 694 202 680 c 1
 153 216 153 211 153 206 c 0
 153 125 211 70 323 70 c 0
 430 70 515 133 524 221 c 2
 572 680 l 2
 573 694 587 702 615 702 c 2
 623 702 l 2
EndSplineSet
Position2: "'cpsp' Capital Spacing lookup 3 subtable" dx=5 dy=0 dh=10 dv=0
EndChar

StartChar: Utilde
Encoding: 360 360 172
Width: 712
Flags: MW
HStem: -6 76<267 376.5 267 403> 682 20G<157 165 165 179.5 615 623 623 637.5> 762 64<464 478.5> 793 64<330.5 345.5>
VStem: 64 89<165.5 198>
LayerCount: 2
Fore
SplineSet
528 848 m 0xe8
 534 852 540 855 546 855 c 0
 553 855 559 852 565 846 c 0
 572 839 575 832 575 826 c 0
 575 819 571 812 564 806 c 0
 534 781 499 762 458 762 c 0xe8
 420 762 400 770 383 778 c 0
 365 786 352 793 339 793 c 0
 317 793 302 783 285 774 c 0
 277 770 270 768 264 768 c 0
 256 768 249 772 243 780 c 0
 238 787 235 794 235 800 c 0
 235 807 239 812 244 816 c 0
 273 837 310 857 351 857 c 0xd8
 389 857 412 845 427 839 c 0
 443 832 457 826 471 826 c 0
 493 826 510 836 528 848 c 0xe8
623 702 m 2xd8
 652 702 660 694 660 680 c 1
 612 224 l 2
 597 80 491 -6 315 -6 c 0
 151 -6 64 68 64 193 c 0
 64 203 65 213 114 680 c 0
 115 694 129 702 157 702 c 2
 165 702 l 2
 194 702 202 694 202 680 c 1
 153 216 153 211 153 206 c 0
 153 125 211 70 323 70 c 0
 430 70 515 133 524 221 c 2
 572 680 l 2
 573 694 587 702 615 702 c 2
 623 702 l 2xd8
EndSplineSet
Position2: "'cpsp' Capital Spacing lookup 3 subtable" dx=5 dy=0 dh=10 dv=0
EndChar

StartChar: V
Encoding: 86 86 173
Width: 617
Flags: MW
HStem: -2 21G<246 256 256 287> -2 102<246 285 282 285 282 287> 682 20G<100 109 109 119 583 589 589 603.5>
VStem: 55 576<684 687>
LayerCount: 2
Fore
SplineSet
589 702 m 2xb0
 618 702 631 696 631 686 c 0
 631 682 629 677 626 671 c 2
 328 14 l 2
 323 2 307 -2 287 -2 c 2
 256 -2 l 2
 236 -2 220 2 217 14 c 0
 56 675 55 678 55 681 c 0
 55 693 66 702 100 702 c 2
 109 702 l 2
 129 702 145 698 148 686 c 2
 277 152 l 1
 282 100 l 1
 285 100 l 1
 301 153 l 1x70
 542 686 l 2
 547 698 563 702 583 702 c 2
 589 702 l 2xb0
EndSplineSet
Position2: "'cpsp' Capital Spacing lookup 3 subtable" dx=5 dy=0 dh=10 dv=0
EndChar

StartChar: W
Encoding: 87 87 174
Width: 882
Flags: MW
HStem: -2 21G<183 193 193 234 563 573 573 614> -2 103<183 226 226 226 226 234> 682 20G
VStem: 49 853<685 691 685 691>
LayerCount: 2
Fore
SplineSet
860 702 m 2xb0
 889 702 902 696 902 686 c 0
 902 684 900 677 655 14 c 0
 651 2 634 -2 614 -2 c 2
 573 -2 l 2
 553 -2 536 2 534 14 c 2
 468 421 l 1
 461 551 l 1
 426 421 l 1
 275 14 l 2
 270 2 252 -2 234 -2 c 2
 193 -2 l 2
 173 -2 156 2 154 14 c 2
 49 682 l 1
 49 700 71 702 94 702 c 2
 103 702 l 2
 123 702 140 698 142 686 c 2
 218 194 l 2
 222 167 226 104 226 101 c 1
 261 199 l 1
 433 685 l 2
 437 698 448 702 473 702 c 2
 489 702 l 2
 509 702 525 698 527 685 c 2
 599 193 l 2
 604 158 606 101 606 101 c 1
 641 201 l 1x70
 813 686 l 2
 817 698 834 702 854 702 c 2
 860 702 l 2xb0
EndSplineSet
Position2: "'cpsp' Capital Spacing lookup 3 subtable" dx=5 dy=0 dh=10 dv=0
EndChar

StartChar: Wacute
Encoding: 7810 7810 175
Width: 882
Flags: MW
HStem: -2 21G<183 193 193 234 563 573 573 614> -2 103<183 226 226 226 226 234> 682 20G
VStem: 49 853<685 691 685 691>
LayerCount: 2
Fore
SplineSet
577 909 m 0xb0
 608 909 624 906 624 897 c 0
 624 886 613 877 518 780 c 0
 506 768 485 762 465 762 c 0
 450 762 443 765 443 771 c 0
 443 780 455 800 512 883 c 0
 525 902 545 909 577 909 c 0xb0
860 702 m 2
 889 702 902 696 902 686 c 0
 902 684 900 677 655 14 c 0
 651 2 634 -2 614 -2 c 2
 573 -2 l 2
 553 -2 536 2 534 14 c 2
 468 421 l 1
 461 551 l 1
 426 421 l 1
 275 14 l 2
 270 2 252 -2 234 -2 c 2
 193 -2 l 2
 173 -2 156 2 154 14 c 2
 49 682 l 1
 49 700 71 702 94 702 c 2
 103 702 l 2
 123 702 140 698 142 686 c 2
 218 194 l 2
 222 167 226 104 226 101 c 1
 261 199 l 1
 433 685 l 2
 437 698 448 702 473 702 c 2
 489 702 l 2
 509 702 525 698 527 685 c 2
 599 193 l 2
 604 158 606 101 606 101 c 1
 641 201 l 1x70
 813 686 l 2
 817 698 834 702 854 702 c 2
 860 702 l 2
EndSplineSet
Position2: "'cpsp' Capital Spacing lookup 3 subtable" dx=5 dy=0 dh=10 dv=0
EndChar

StartChar: Wcircumflex
Encoding: 372 372 176
Width: 882
Flags: MW
HStem: -2 21G<183 193 193 234 563 573 573 614> -2 103<183 226 226 226 226 234> 682 20G 753 142<374 506 381 506 481 574 481 576>
VStem: 49 853<685 691 685 691>
LayerCount: 2
Fore
SplineSet
506 895 m 2xb8
 525 895 542 888 550 873 c 2
 597 785 l 2
 601 779 602 773 602 768 c 0
 601 759 592 753 576 753 c 2
 574 753 l 2
 561 753 551 757 542 766 c 1
 487 840 l 1
 418 766 l 1
 407 757 397 753 383 753 c 2
 381 753 l 2
 367 753 360 757 360 765 c 0
 360 771 362 777 367 785 c 2
 433 873 l 2
 444 888 461 895 481 895 c 2
 506 895 l 2xb8
860 702 m 2
 889 702 902 696 902 686 c 0
 902 684 900 677 655 14 c 0
 651 2 634 -2 614 -2 c 2
 573 -2 l 2
 553 -2 536 2 534 14 c 2
 468 421 l 1
 461 551 l 1
 426 421 l 1
 275 14 l 2
 270 2 252 -2 234 -2 c 2
 193 -2 l 2
 173 -2 156 2 154 14 c 2
 49 682 l 1
 49 700 71 702 94 702 c 2
 103 702 l 2
 123 702 140 698 142 686 c 2
 218 194 l 2
 222 167 226 104 226 101 c 1
 261 199 l 1
 433 685 l 2
 437 698 448 702 473 702 c 2
 489 702 l 2
 509 702 525 698 527 685 c 2
 599 193 l 2
 604 158 606 101 606 101 c 1
 641 201 l 1x78
 813 686 l 2
 817 698 834 702 854 702 c 2
 860 702 l 2
EndSplineSet
Position2: "'cpsp' Capital Spacing lookup 3 subtable" dx=5 dy=0 dh=10 dv=0
EndChar

StartChar: Wdieresis
Encoding: 7812 7812 177
Width: 882
Flags: MW
HStem: -2 21G<183 193 193 234 563 573 573 614> -2 103<183 226 226 226 226 234> 682 20G 784 95<410 428 554 572>
VStem: 375 89<799 864> 519 89<799 864>
LayerCount: 2
Fore
SplineSet
380 857 m 2xbc
 382 870 394 879 426 879 c 0
 455 879 464 871 464 857 c 1
 459 806 l 2
 457 793 443 784 413 784 c 0
 383 784 375 792 375 806 c 1
 380 857 l 2xbc
524 857 m 2
 525 870 538 879 570 879 c 0
 599 879 608 871 608 857 c 1
 603 806 l 2
 601 793 587 784 557 784 c 0
 527 784 519 792 519 806 c 1
 524 857 l 2
860 702 m 2
 889 702 902 696 902 686 c 0
 902 684 900 677 655 14 c 0
 651 2 634 -2 614 -2 c 2
 573 -2 l 2
 553 -2 536 2 534 14 c 2
 468 421 l 1
 461 551 l 1
 426 421 l 1
 275 14 l 2
 270 2 252 -2 234 -2 c 2
 193 -2 l 2
 173 -2 156 2 154 14 c 2
 49 682 l 1
 49 700 71 702 94 702 c 2
 103 702 l 2
 123 702 140 698 142 686 c 2
 218 194 l 2
 222 167 226 104 226 101 c 1
 261 199 l 1
 433 685 l 2
 437 698 448 702 473 702 c 2
 489 702 l 2
 509 702 525 698 527 685 c 2
 599 193 l 2
 604 158 606 101 606 101 c 1
 641 201 l 1x7c
 813 686 l 2
 817 698 834 702 854 702 c 2
 860 702 l 2
EndSplineSet
Position2: "'cpsp' Capital Spacing lookup 3 subtable" dx=5 dy=0 dh=10 dv=0
EndChar

StartChar: Wgrave
Encoding: 7808 7808 178
Width: 882
Flags: MW
HStem: -2 21G<183 193 193 234 563 573 573 614> -2 103<183 226 226 226 226 234> 682 20G
VStem: 49 853<685 691 685 691>
LayerCount: 2
Fore
SplineSet
410 909 m 0xb0
 442 909 461 902 472 883 c 0
 521 799 530 780 530 771 c 0
 530 765 522 762 507 762 c 0
 487 762 466 768 456 780 c 0
 371 877 362 885 362 897 c 1
 363 906 379 909 410 909 c 0xb0
860 702 m 2
 889 702 902 696 902 686 c 0
 902 684 900 677 655 14 c 0
 651 2 634 -2 614 -2 c 2
 573 -2 l 2
 553 -2 536 2 534 14 c 2
 468 421 l 1
 461 551 l 1
 426 421 l 1
 275 14 l 2
 270 2 252 -2 234 -2 c 2
 193 -2 l 2
 173 -2 156 2 154 14 c 2
 49 682 l 1
 49 700 71 702 94 702 c 2
 103 702 l 2
 123 702 140 698 142 686 c 2
 218 194 l 2
 222 167 226 104 226 101 c 1
 261 199 l 1
 433 685 l 2
 437 698 448 702 473 702 c 2
 489 702 l 2
 509 702 525 698 527 685 c 2
 599 193 l 2
 604 158 606 101 606 101 c 1
 641 201 l 1x70
 813 686 l 2
 817 698 834 702 854 702 c 2
 860 702 l 2
EndSplineSet
Position2: "'cpsp' Capital Spacing lookup 3 subtable" dx=5 dy=0 dh=10 dv=0
EndChar

StartChar: X
Encoding: 88 88 179
Width: 611
Flags: MW
HStem: -2 21G<11.5 27 27 35 480.5 491 491 507> 682 20G<124 138 138 148.5 549 555 555 571>
VStem: -17 617
LayerCount: 2
Fore
SplineSet
555 702 m 2
 587 702 600 697 600 686 c 0
 600 681 595 674 590 667 c 2
 359 370 l 1
 548 33 l 2
 551 27 554 21 554 17 c 0
 554 5 543 -2 507 -2 c 2
 491 -2 l 2
 470 -2 456 1 449 13 c 2
 294 288 l 1
 79 12 l 2
 71 1 53 -2 35 -2 c 2
 27 -2 l 2
 -4 -2 -17 3 -17 14 c 0
 -17 19 -13 26 -7 33 c 2
 251 365 l 1
 83 667 l 2
 79 673 77 678 77 683 c 0
 77 695 88 702 124 702 c 2
 138 702 l 2
 159 702 173 699 180 687 c 2
 315 446 l 1
 505 688 l 2
 513 699 531 702 549 702 c 2
 555 702 l 2
EndSplineSet
Position2: "'cpsp' Capital Spacing lookup 3 subtable" dx=5 dy=0 dh=10 dv=0
EndChar

StartChar: Y
Encoding: 89 89 180
Width: 559
Flags: MW
HStem: -2 21G<223 238 238 246> 682 20G<100 111 111 121.5 531 540 540 540>
VStem: 53 523<683.5 689>
LayerCount: 2
Fore
SplineSet
540 702 m 1
 565 701 576 696 576 686 c 0
 576 681 571 674 566 667 c 2
 323 356 l 1
 288 20 l 2
 286 6 272 -2 246 -2 c 2
 238 -2 l 2
 208 -2 200 6 200 20 c 1
 235 359 l 1
 59 667 l 2
 55 673 53 678 53 683 c 0
 53 695 64 702 100 702 c 2
 111 702 l 2
 132 702 146 699 153 687 c 2
 291 441 l 1
 485 688 l 2
 493 699 511 702 531 702 c 2
 540 702 l 1
EndSplineSet
Substitution2: "'ss01' Style Set 1 lookup 18 subtable" Y.loclGUA
Substitution2: "'salt' Stylistic Alternatives lookup 17 subtable" Y.loclGUA
Substitution2: "'aalt' Access All Alternates lookup 0 subtable" Y.loclGUA
Position2: "'cpsp' Capital Spacing lookup 3 subtable" dx=5 dy=0 dh=10 dv=0
EndChar

StartChar: Yacute
Encoding: 221 221 181
Width: 559
Flags: MW
HStem: -2 21G<223 238 238 246> 682 20G<100 111 111 121.5 531 540 540 540>
VStem: 53 523<683.5 689>
LayerCount: 2
Fore
SplineSet
416 909 m 0
 447 909 463 906 463 897 c 0
 463 886 452 877 357 780 c 0
 345 768 324 762 304 762 c 0
 289 762 282 765 282 771 c 0
 282 780 294 800 351 883 c 0
 364 902 384 909 416 909 c 0
540 702 m 1
 565 701 576 696 576 686 c 0
 576 681 571 674 566 667 c 2
 323 356 l 1
 288 20 l 2
 286 6 272 -2 246 -2 c 2
 238 -2 l 2
 208 -2 200 6 200 20 c 1
 235 359 l 1
 59 667 l 2
 55 673 53 678 53 683 c 0
 53 695 64 702 100 702 c 2
 111 702 l 2
 132 702 146 699 153 687 c 2
 291 441 l 1
 485 688 l 2
 493 699 511 702 531 702 c 2
 540 702 l 1
EndSplineSet
Substitution2: "'ss01' Style Set 1 lookup 18 subtable" Yacute.loclGUA
Substitution2: "'salt' Stylistic Alternatives lookup 17 subtable" Yacute.loclGUA
Substitution2: "'aalt' Access All Alternates lookup 0 subtable" Yacute.loclGUA
Position2: "'cpsp' Capital Spacing lookup 3 subtable" dx=5 dy=0 dh=10 dv=0
EndChar

StartChar: Ycircumflex
Encoding: 374 374 182
Width: 559
Flags: MW
HStem: -2 21G<223 238 238 246> 682 20G<100 111 111 121.5 531 540 540 540> 753 142<213 345 220 345 320 413 320 415>
VStem: 53 523<683.5 689>
LayerCount: 2
Fore
SplineSet
345 895 m 2
 364 895 381 888 389 873 c 2
 436 785 l 2
 440 779 441 773 441 768 c 0
 440 759 431 753 415 753 c 2
 413 753 l 2
 400 753 390 757 381 766 c 1
 326 840 l 1
 257 766 l 1
 246 757 236 753 222 753 c 2
 220 753 l 2
 206 753 199 757 199 765 c 0
 199 771 201 777 206 785 c 2
 272 873 l 2
 283 888 300 895 320 895 c 2
 345 895 l 2
540 702 m 1
 565 701 576 696 576 686 c 0
 576 681 571 674 566 667 c 2
 323 356 l 1
 288 20 l 2
 286 6 272 -2 246 -2 c 2
 238 -2 l 2
 208 -2 200 6 200 20 c 1
 235 359 l 1
 59 667 l 2
 55 673 53 678 53 683 c 0
 53 695 64 702 100 702 c 2
 111 702 l 2
 132 702 146 699 153 687 c 2
 291 441 l 1
 485 688 l 2
 493 699 511 702 531 702 c 2
 540 702 l 1
EndSplineSet
Substitution2: "'ss01' Style Set 1 lookup 18 subtable" Ycircumflex.loclGUA
Substitution2: "'salt' Stylistic Alternatives lookup 17 subtable" Ycircumflex.loclGUA
Substitution2: "'aalt' Access All Alternates lookup 0 subtable" Ycircumflex.loclGUA
Position2: "'cpsp' Capital Spacing lookup 3 subtable" dx=5 dy=0 dh=10 dv=0
EndChar

StartChar: Ydieresis
Encoding: 376 376 183
Width: 559
Flags: MW
HStem: -2 21G<223 238 238 246> 682 20G<100 111 111 121.5 531 540 540 540> 784 95<249 267 393 411>
VStem: 214 89<799 864> 358 89<799 864>
LayerCount: 2
Fore
SplineSet
219 857 m 2
 221 870 233 879 265 879 c 0
 294 879 303 871 303 857 c 1
 298 806 l 2
 296 793 282 784 252 784 c 0
 222 784 214 792 214 806 c 1
 219 857 l 2
363 857 m 2
 364 870 377 879 409 879 c 0
 438 879 447 871 447 857 c 1
 442 806 l 2
 440 793 426 784 396 784 c 0
 366 784 358 792 358 806 c 1
 363 857 l 2
540 702 m 1
 565 701 576 696 576 686 c 0
 576 681 571 674 566 667 c 2
 323 356 l 1
 288 20 l 2
 286 6 272 -2 246 -2 c 2
 238 -2 l 2
 208 -2 200 6 200 20 c 1
 235 359 l 1
 59 667 l 2
 55 673 53 678 53 683 c 0
 53 695 64 702 100 702 c 2
 111 702 l 2
 132 702 146 699 153 687 c 2
 291 441 l 1
 485 688 l 2
 493 699 511 702 531 702 c 2
 540 702 l 1
EndSplineSet
Substitution2: "'ss01' Style Set 1 lookup 18 subtable" Ydieresis.loclGUA
Substitution2: "'salt' Stylistic Alternatives lookup 17 subtable" Ydieresis.loclGUA
Substitution2: "'aalt' Access All Alternates lookup 0 subtable" Ydieresis.loclGUA
Position2: "'cpsp' Capital Spacing lookup 3 subtable" dx=5 dy=0 dh=10 dv=0
EndChar

StartChar: Ydotbelow
Encoding: 7924 7924 184
Width: 559
Flags: MW
HStem: -175 95<217 235> -2 21G<223 238 238 246> 682 20G<100 111 111 121.5 531 540 540 540>
VStem: 182 89<-160 -95>
LayerCount: 2
Fore
SplineSet
540 702 m 1
 565 701 576 696 576 686 c 0
 576 681 571 674 566 667 c 2
 323 356 l 1
 288 20 l 2
 286 6 272 -2 246 -2 c 2
 238 -2 l 2
 208 -2 200 6 200 20 c 1
 235 359 l 1
 59 667 l 2
 55 673 53 678 53 683 c 0
 53 695 64 702 100 702 c 2
 111 702 l 2
 132 702 146 699 153 687 c 2
 291 441 l 1
 485 688 l 2
 493 699 511 702 531 702 c 2
 540 702 l 1
187 -102 m 2
 189 -89 201 -80 233 -80 c 0
 262 -80 271 -88 271 -102 c 1
 266 -153 l 2
 264 -166 250 -175 220 -175 c 0
 190 -175 182 -167 182 -153 c 1
 187 -102 l 2
EndSplineSet
Substitution2: "'ss01' Style Set 1 lookup 18 subtable" Ydotbelow.loclGUA
Substitution2: "'salt' Stylistic Alternatives lookup 17 subtable" Ydotbelow.loclGUA
Substitution2: "'aalt' Access All Alternates lookup 0 subtable" Ydotbelow.loclGUA
Position2: "'cpsp' Capital Spacing lookup 3 subtable" dx=5 dy=0 dh=10 dv=0
EndChar

StartChar: Ygrave
Encoding: 7922 7922 185
Width: 559
Flags: MW
HStem: -2 21G<223 238 238 246> 682 20G<100 111 111 121.5 531 540 540 540>
VStem: 53 523<683.5 689>
LayerCount: 2
Fore
SplineSet
249 909 m 0
 281 909 300 902 311 883 c 0
 360 799 369 780 369 771 c 0
 369 765 361 762 346 762 c 0
 326 762 305 768 295 780 c 0
 210 877 201 885 201 897 c 1
 202 906 218 909 249 909 c 0
540 702 m 1
 565 701 576 696 576 686 c 0
 576 681 571 674 566 667 c 2
 323 356 l 1
 288 20 l 2
 286 6 272 -2 246 -2 c 2
 238 -2 l 2
 208 -2 200 6 200 20 c 1
 235 359 l 1
 59 667 l 2
 55 673 53 678 53 683 c 0
 53 695 64 702 100 702 c 2
 111 702 l 2
 132 702 146 699 153 687 c 2
 291 441 l 1
 485 688 l 2
 493 699 511 702 531 702 c 2
 540 702 l 1
EndSplineSet
Substitution2: "'ss01' Style Set 1 lookup 18 subtable" Ygrave.loclGUA
Substitution2: "'salt' Stylistic Alternatives lookup 17 subtable" Ygrave.loclGUA
Substitution2: "'aalt' Access All Alternates lookup 0 subtable" Ygrave.loclGUA
Position2: "'cpsp' Capital Spacing lookup 3 subtable" dx=5 dy=0 dh=10 dv=0
EndChar

StartChar: Yhookabove
Encoding: 7926 7926 186
Width: 559
Flags: MW
HStem: -2 21G<223 238 238 246> 682 20G<100 111 111 121.5 531 540 540 540> 876 51<325.5 340>
VStem: 364 66<825 859>
LayerCount: 2
Fore
SplineSet
364 851 m 0
 364 867 350 876 330 876 c 0
 299 876 287 863 282 863 c 0
 274 863 262 886 262 896 c 0
 262 909 308 927 343 927 c 0
 377 927 430 911 430 857 c 0
 430 787 341 740 331 740 c 0
 310 740 292 748 292 757 c 0
 292 784 364 799 364 851 c 0
540 702 m 1
 565 701 576 696 576 686 c 0
 576 681 571 674 566 667 c 2
 323 356 l 1
 288 20 l 2
 286 6 272 -2 246 -2 c 2
 238 -2 l 2
 208 -2 200 6 200 20 c 1
 235 359 l 1
 59 667 l 2
 55 673 53 678 53 683 c 0
 53 695 64 702 100 702 c 2
 111 702 l 2
 132 702 146 699 153 687 c 2
 291 441 l 1
 485 688 l 2
 493 699 511 702 531 702 c 2
 540 702 l 1
EndSplineSet
Substitution2: "'ss01' Style Set 1 lookup 18 subtable" Yhookabove.loclGUA
Substitution2: "'salt' Stylistic Alternatives lookup 17 subtable" Yhookabove.loclGUA
Substitution2: "'aalt' Access All Alternates lookup 0 subtable" Yhookabove.loclGUA
Position2: "'cpsp' Capital Spacing lookup 3 subtable" dx=5 dy=0 dh=10 dv=0
EndChar

StartChar: Ytilde
Encoding: 7928 7928 187
Width: 559
Flags: MW
HStem: -2 21G<223 238 238 246> 682 20G<100 111 111 121.5 531 540 540 540> 762 64<398 412.5> 793 64<264.5 279.5>
VStem: 53 523<683.5 689>
LayerCount: 2
Fore
SplineSet
462 848 m 0xe8
 468 852 474 855 480 855 c 0
 487 855 493 852 499 846 c 0
 506 839 509 832 509 826 c 0
 509 819 505 812 498 806 c 0
 468 781 433 762 392 762 c 0xe8
 354 762 334 770 317 778 c 0
 299 786 286 793 273 793 c 0
 251 793 236 783 219 774 c 0
 211 770 204 768 198 768 c 0
 190 768 183 772 177 780 c 0
 172 787 169 794 169 800 c 0
 169 807 173 812 178 816 c 0
 207 837 244 857 285 857 c 0xd8
 323 857 346 845 361 839 c 0
 377 832 391 826 405 826 c 0
 427 826 444 836 462 848 c 0xe8
540 702 m 1xd8
 565 701 576 696 576 686 c 0
 576 681 571 674 566 667 c 2
 323 356 l 1
 288 20 l 2
 286 6 272 -2 246 -2 c 2
 238 -2 l 2
 208 -2 200 6 200 20 c 1
 235 359 l 1
 59 667 l 2
 55 673 53 678 53 683 c 0
 53 695 64 702 100 702 c 2
 111 702 l 2
 132 702 146 699 153 687 c 2
 291 441 l 1
 485 688 l 2
 493 699 511 702 531 702 c 2
 540 702 l 1xd8
EndSplineSet
Substitution2: "'ss01' Style Set 1 lookup 18 subtable" Ytilde.loclGUA
Substitution2: "'salt' Stylistic Alternatives lookup 17 subtable" Ytilde.loclGUA
Substitution2: "'aalt' Access All Alternates lookup 0 subtable" Ytilde.loclGUA
Position2: "'cpsp' Capital Spacing lookup 3 subtable" dx=5 dy=0 dh=10 dv=0
EndChar

StartChar: Z
Encoding: 90 90 188
Width: 616
Flags: MW
HStem: 0 76<129 513> 624 76<112 585 126 479>
VStem: 6 596
LayerCount: 2
Fore
SplineSet
585 700 m 2
 591 700 602 673 602 652 c 0
 602 645 601 639 597 635 c 2
 129 76 l 1
 521 76 l 2
 533 76 538 69 538 54 c 0
 538 31 538 0 513 0 c 2
 25 0 l 2
 16 0 6 28 6 48 c 0
 6 54 7 61 11 65 c 2
 479 624 l 1
 118 624 l 2
 106 624 101 631 101 646 c 0
 101 669 101 700 126 700 c 2
 585 700 l 2
EndSplineSet
Position2: "'cpsp' Capital Spacing lookup 3 subtable" dx=5 dy=0 dh=10 dv=0
EndChar

StartChar: Zacute
Encoding: 377 377 189
Width: 616
Flags: MW
HStem: 0 76<129 513> 624 76<112 585 126 479>
VStem: 6 596
LayerCount: 2
Fore
SplineSet
434 909 m 0
 465 909 481 906 481 897 c 0
 481 886 470 877 375 780 c 0
 363 768 342 762 322 762 c 0
 307 762 300 765 300 771 c 0
 300 780 312 800 369 883 c 0
 382 902 402 909 434 909 c 0
585 700 m 2
 591 700 602 673 602 652 c 0
 602 645 601 639 597 635 c 2
 129 76 l 1
 521 76 l 2
 533 76 538 69 538 54 c 0
 538 31 538 0 513 0 c 2
 25 0 l 2
 16 0 6 28 6 48 c 0
 6 54 7 61 11 65 c 2
 479 624 l 1
 118 624 l 2
 106 624 101 631 101 646 c 0
 101 669 101 700 126 700 c 2
 585 700 l 2
EndSplineSet
Substitution2: "'locl' Localized Forms in Latin lookup 12 subtable" Zacute.loclPLK
Substitution2: "'aalt' Access All Alternates lookup 0 subtable" Zacute.loclPLK
Position2: "'cpsp' Capital Spacing lookup 3 subtable" dx=5 dy=0 dh=10 dv=0
EndChar

StartChar: Zcaron
Encoding: 381 381 190
Width: 616
Flags: MW
HStem: 0 76<129 513> 624 76<112 585 126 479> 759 142<261 331 261 356>
VStem: 6 596
LayerCount: 2
Fore
SplineSet
456 901 m 2
 471 901 478 896 478 887 c 0
 478 882 476 876 471 869 c 2
 404 781 l 2
 393 766 376 759 356 759 c 2
 331 759 l 2
 312 759 295 766 287 781 c 2
 241 869 l 2
 237 876 236 882 236 887 c 0
 237 896 246 901 261 901 c 2
 263 901 l 2
 277 901 287 897 296 888 c 1
 349 814 l 1
 420 888 l 1
 431 897 441 901 454 901 c 2
 456 901 l 2
585 700 m 2
 591 700 602 673 602 652 c 0
 602 645 601 639 597 635 c 2
 129 76 l 1
 521 76 l 2
 533 76 538 69 538 54 c 0
 538 31 538 0 513 0 c 2
 25 0 l 2
 16 0 6 28 6 48 c 0
 6 54 7 61 11 65 c 2
 479 624 l 1
 118 624 l 2
 106 624 101 631 101 646 c 0
 101 669 101 700 126 700 c 2
 585 700 l 2
EndSplineSet
Position2: "'cpsp' Capital Spacing lookup 3 subtable" dx=5 dy=0 dh=10 dv=0
EndChar

StartChar: Zdotaccent
Encoding: 379 379 191
Width: 616
Flags: MW
HStem: 0 76<129 513> 624 76<112 585 126 479> 784 95<339 357>
VStem: 304 89<799 864>
LayerCount: 2
Fore
SplineSet
309 857 m 2
 311 870 323 879 355 879 c 0
 384 879 393 871 393 857 c 1
 388 806 l 2
 386 793 372 784 342 784 c 0
 312 784 304 792 304 806 c 1
 309 857 l 2
585 700 m 2
 591 700 602 673 602 652 c 0
 602 645 601 639 597 635 c 2
 129 76 l 1
 521 76 l 2
 533 76 538 69 538 54 c 0
 538 31 538 0 513 0 c 2
 25 0 l 2
 16 0 6 28 6 48 c 0
 6 54 7 61 11 65 c 2
 479 624 l 1
 118 624 l 2
 106 624 101 631 101 646 c 0
 101 669 101 700 126 700 c 2
 585 700 l 2
EndSplineSet
Position2: "'cpsp' Capital Spacing lookup 3 subtable" dx=5 dy=0 dh=10 dv=0
EndChar

StartChar: Zdotbelow
Encoding: 7826 7826 192
Width: 616
Flags: MW
HStem: -175 95<261 279> 0 76<129 513> 624 76<112 585 126 479>
VStem: 226 89<-160 -95>
LayerCount: 2
Fore
SplineSet
585 700 m 2
 591 700 602 673 602 652 c 0
 602 645 601 639 597 635 c 2
 129 76 l 1
 521 76 l 2
 533 76 538 69 538 54 c 0
 538 31 538 0 513 0 c 2
 25 0 l 2
 16 0 6 28 6 48 c 0
 6 54 7 61 11 65 c 2
 479 624 l 1
 118 624 l 2
 106 624 101 631 101 646 c 0
 101 669 101 700 126 700 c 2
 585 700 l 2
231 -102 m 2
 233 -89 245 -80 277 -80 c 0
 306 -80 315 -88 315 -102 c 1
 310 -153 l 2
 308 -166 294 -175 264 -175 c 0
 234 -175 226 -167 226 -153 c 1
 231 -102 l 2
EndSplineSet
Position2: "'cpsp' Capital Spacing lookup 3 subtable" dx=5 dy=0 dh=10 dv=0
EndChar

StartChar: a
Encoding: 97 97 193
Width: 545
GlyphClass: 2
Flags: MW
HStem: -6 73<199 236> 456 73<226.5 316 210.5 318> 504 21
VStem: 40 87<159 276 159 303> 363 85<92 102 102 102>
AnchorPoint: "Anchor-1" 310 0 basechar 0
AnchorPoint: "Anchor-0" 310 500 basechar 0
LayerCount: 2
Fore
SplineSet
463 525 m 2xb0
 483 525 488 517 488 504 c 1xb8
 488 504 448 134 448 107 c 0
 448 66 468 66 484 66 c 0
 496 66 505 71 511 71 c 0
 514 71 517 70 517 64 c 0
 517 63 517 49 513 27 c 0
 508 2 471 -6 453 -6 c 0
 396 -6 363 24 363 92 c 2
 363 102 l 1
 322 24 265 -6 207 -6 c 0
 142 -6 40 36 40 210 c 0
 40 396 136 529 285 529 c 0xd8
 347 529 390 496 412 475 c 1
 422 504 429 525 457 525 c 2
 463 525 l 2xb0
389 367 m 2
 391 385 394 401 397 417 c 1
 378 432 343 456 293 456 c 0
 160 456 127 336 127 216 c 0
 127 102 172 67 226 67 c 0xd0
 270 67 335 104 376 236 c 1
 382 302 389 367 389 367 c 2
EndSplineSet
Substitution2: "Single Substitution lookup 21 subtable" ordfeminine
Substitution2: "'aalt' Access All Alternates lookup 0 subtable" ordfeminine
EndChar

StartChar: aacute
Encoding: 225 225 194
Width: 545
Flags: MW
HStem: -6 73<199 236> 456 73<226.5 316 210.5 318> 504 21
VStem: 40 87<159 276 159 303> 363 85<92 102 102 102>
LayerCount: 2
Fore
SplineSet
379 732 m 0xd0
 410 732 426 729 426 720 c 0
 426 709 415 700 320 603 c 0
 308 591 287 585 267 585 c 0
 252 585 245 588 245 594 c 0
 245 603 257 623 314 706 c 0
 327 725 347 732 379 732 c 0xd0
463 525 m 2xb0
 483 525 488 517 488 504 c 1xb8
 488 504 448 134 448 107 c 0
 448 66 468 66 484 66 c 0
 496 66 505 71 511 71 c 0
 514 71 517 70 517 64 c 0
 517 63 517 49 513 27 c 0
 508 2 471 -6 453 -6 c 0
 396 -6 363 24 363 92 c 2
 363 102 l 1
 322 24 265 -6 207 -6 c 0
 142 -6 40 36 40 210 c 0
 40 396 136 529 285 529 c 0xd8
 347 529 390 496 412 475 c 1
 422 504 429 525 457 525 c 2
 463 525 l 2xb0
389 367 m 2
 391 385 394 401 397 417 c 1
 378 432 343 456 293 456 c 0
 160 456 127 336 127 216 c 0
 127 102 172 67 226 67 c 0xd0
 270 67 335 104 376 236 c 1
 382 302 389 367 389 367 c 2
EndSplineSet
EndChar

StartChar: abreve
Encoding: 259 259 195
Width: 545
Flags: MW
HStem: -6 73<199 236> 456 73<226.5 316 210.5 318> 504 21 585 66<270.5 319 270.5 321.5>
VStem: 40 87<159 276 159 303> 363 85<92 102 102 102>
LayerCount: 2
Fore
SplineSet
430 715 m 0xd8
 440 715 444 711 444 703 c 0
 444 624 355 585 288 585 c 0
 220 585 154 619 154 688 c 0
 154 705 156 715 171 715 c 0
 188 715 184 706 191 690 c 0
 203 662 246 651 295 651 c 0
 343 651 388 662 406 690 c 0
 416 706 412 715 430 715 c 0xd8
463 525 m 2xb8
 483 525 488 517 488 504 c 1xbc
 488 504 448 134 448 107 c 0
 448 66 468 66 484 66 c 0
 496 66 505 71 511 71 c 0
 514 71 517 70 517 64 c 0
 517 63 517 49 513 27 c 0
 508 2 471 -6 453 -6 c 0
 396 -6 363 24 363 92 c 2
 363 102 l 1
 322 24 265 -6 207 -6 c 0
 142 -6 40 36 40 210 c 0
 40 396 136 529 285 529 c 0xdc
 347 529 390 496 412 475 c 1
 422 504 429 525 457 525 c 2
 463 525 l 2xb8
389 367 m 2
 391 385 394 401 397 417 c 1
 378 432 343 456 293 456 c 0
 160 456 127 336 127 216 c 0
 127 102 172 67 226 67 c 0xd8
 270 67 335 104 376 236 c 1
 382 302 389 367 389 367 c 2
EndSplineSet
EndChar

StartChar: abreveacute
Encoding: 7855 7855 196
Width: 545
Flags: MW
HStem: -6 73<199 236> 456 73<226.5 316 210.5 318> 504 21 585 66<270.5 319 270.5 321.5>
VStem: 40 87<159 276 159 303> 363 85<92 102 102 102>
LayerCount: 2
Fore
SplineSet
463 525 m 2xb8
 483 525 488 517 488 504 c 1xbc
 488 504 448 134 448 107 c 0
 448 66 468 66 484 66 c 0
 496 66 505 71 511 71 c 0
 514 71 517 70 517 64 c 0
 517 63 517 49 513 27 c 0
 508 2 471 -6 453 -6 c 0
 396 -6 363 24 363 92 c 2
 363 102 l 1
 322 24 265 -6 207 -6 c 0
 142 -6 40 36 40 210 c 0
 40 396 136 529 285 529 c 0xdc
 347 529 390 496 412 475 c 1
 422 504 429 525 457 525 c 2
 463 525 l 2xb8
389 367 m 2
 391 385 394 401 397 417 c 1
 378 432 343 456 293 456 c 0
 160 456 127 336 127 216 c 0
 127 102 172 67 226 67 c 0xd8
 270 67 335 104 376 236 c 1
 382 302 389 367 389 367 c 2
398 880 m 0
 429 880 445 877 445 868 c 0
 445 857 434 848 339 751 c 0
 327 739 306 733 286 733 c 0
 271 733 264 736 264 742 c 0
 264 751 276 771 333 854 c 0
 346 873 366 880 398 880 c 0
430 715 m 0xd8
 440 715 444 711 444 703 c 0
 444 624 355 585 288 585 c 0
 220 585 154 619 154 688 c 0
 154 705 156 715 171 715 c 0
 188 715 184 706 191 690 c 0
 203 662 246 651 295 651 c 0
 343 651 388 662 406 690 c 0
 416 706 412 715 430 715 c 0xd8
EndSplineSet
EndChar

StartChar: abrevedotbelow
Encoding: 7863 7863 197
Width: 545
Flags: MW
HStem: -175 95<207 225> -6 73<199 236> 456 73<226.5 316 210.5 318> 504 21 585 66<270.5 319 270.5 321.5>
VStem: 40 87<159 276 159 303> 172 89<-160 -95> 363 85<92 102 102 102>
LayerCount: 2
Fore
SplineSet
463 525 m 2x5c
 483 525 488 517 488 504 c 1x5d
 488 504 448 134 448 107 c 0
 448 66 468 66 484 66 c 0
 496 66 505 71 511 71 c 0
 514 71 517 70 517 64 c 0
 517 63 517 49 513 27 c 0
 508 2 471 -6 453 -6 c 0
 396 -6 363 24 363 92 c 2
 363 102 l 1
 322 24 265 -6 207 -6 c 0
 142 -6 40 36 40 210 c 0
 40 396 136 529 285 529 c 0x6d
 347 529 390 496 412 475 c 1
 422 504 429 525 457 525 c 2
 463 525 l 2x5c
389 367 m 2
 391 385 394 401 397 417 c 1
 378 432 343 456 293 456 c 0
 160 456 127 336 127 216 c 0
 127 102 172 67 226 67 c 0x6c
 270 67 335 104 376 236 c 1
 382 302 389 367 389 367 c 2
430 715 m 0xee
 440 715 444 711 444 703 c 0
 444 624 355 585 288 585 c 0
 220 585 154 619 154 688 c 0
 154 705 156 715 171 715 c 0
 188 715 184 706 191 690 c 0
 203 662 246 651 295 651 c 0
 343 651 388 662 406 690 c 0
 416 706 412 715 430 715 c 0xee
177 -102 m 2
 179 -89 191 -80 223 -80 c 0
 252 -80 261 -88 261 -102 c 1
 256 -153 l 2
 254 -166 240 -175 210 -175 c 0
 180 -175 172 -167 172 -153 c 1
 177 -102 l 2
EndSplineSet
EndChar

StartChar: abrevegrave
Encoding: 7857 7857 198
Width: 545
Flags: MW
HStem: -6 73<199 236> 456 73<226.5 316 210.5 318> 504 21 585 66<270.5 319 270.5 321.5>
VStem: 40 87<159 276 159 303> 363 85<92 102 102 102>
LayerCount: 2
Fore
SplineSet
463 525 m 2xb8
 483 525 488 517 488 504 c 1xbc
 488 504 448 134 448 107 c 0
 448 66 468 66 484 66 c 0
 496 66 505 71 511 71 c 0
 514 71 517 70 517 64 c 0
 517 63 517 49 513 27 c 0
 508 2 471 -6 453 -6 c 0
 396 -6 363 24 363 92 c 2
 363 102 l 1
 322 24 265 -6 207 -6 c 0
 142 -6 40 36 40 210 c 0
 40 396 136 529 285 529 c 0xdc
 347 529 390 496 412 475 c 1
 422 504 429 525 457 525 c 2
 463 525 l 2xb8
389 367 m 2
 391 385 394 401 397 417 c 1
 378 432 343 456 293 456 c 0
 160 456 127 336 127 216 c 0
 127 102 172 67 226 67 c 0xd8
 270 67 335 104 376 236 c 1
 382 302 389 367 389 367 c 2
231 880 m 0
 263 880 282 873 293 854 c 0
 342 770 351 751 351 742 c 0
 351 736 343 733 328 733 c 0
 308 733 287 739 277 751 c 0
 192 848 183 856 183 868 c 1
 184 877 200 880 231 880 c 0
430 715 m 0xd8
 440 715 444 711 444 703 c 0
 444 624 355 585 288 585 c 0
 220 585 154 619 154 688 c 0
 154 705 156 715 171 715 c 0
 188 715 184 706 191 690 c 0
 203 662 246 651 295 651 c 0
 343 651 388 662 406 690 c 0
 416 706 412 715 430 715 c 0xd8
EndSplineSet
EndChar

StartChar: abrevehookabove
Encoding: 7859 7859 199
Width: 545
Flags: MW
HStem: -6 73<199 236> 456 73<226.5 316 210.5 318> 504 21 585 66<270.5 319 270.5 321.5> 847 51<307.5 322>
VStem: 40 87<159 276 159 303> 346 66<796 830> 363 85<92 102 102 102>
LayerCount: 2
Fore
SplineSet
463 525 m 2xbe
 483 525 488 517 488 504 c 1xbd
 488 504 448 134 448 107 c 0
 448 66 468 66 484 66 c 0
 496 66 505 71 511 71 c 0
 514 71 517 70 517 64 c 0
 517 63 517 49 513 27 c 0
 508 2 471 -6 453 -6 c 0
 396 -6 363 24 363 92 c 2
 363 102 l 1
 322 24 265 -6 207 -6 c 0
 142 -6 40 36 40 210 c 0
 40 396 136 529 285 529 c 0xdd
 347 529 390 496 412 475 c 1
 422 504 429 525 457 525 c 2
 463 525 l 2xbe
389 367 m 2
 391 385 394 401 397 417 c 1
 378 432 343 456 293 456 c 0
 160 456 127 336 127 216 c 0
 127 102 172 67 226 67 c 0xde
 270 67 335 104 376 236 c 1
 382 302 389 367 389 367 c 2
346 822 m 0xde
 346 838 332 847 312 847 c 0
 281 847 269 834 264 834 c 0
 256 834 244 857 244 867 c 0
 244 880 290 898 325 898 c 0
 359 898 412 882 412 828 c 0
 412 758 323 711 313 711 c 0
 292 711 274 719 274 728 c 0
 274 755 346 770 346 822 c 0xde
430 715 m 0
 440 715 444 711 444 703 c 0
 444 624 355 585 288 585 c 0
 220 585 154 619 154 688 c 0
 154 705 156 715 171 715 c 0
 188 715 184 706 191 690 c 0
 203 662 246 651 295 651 c 0
 343 651 388 662 406 690 c 0
 416 706 412 715 430 715 c 0
EndSplineSet
EndChar

StartChar: abrevetilde
Encoding: 7861 7861 200
Width: 545
Flags: MW
HStem: -6 73<199 236> 456 73<226.5 316 210.5 318> 504 21 585 66<270.5 319 270.5 321.5> 781 64<364 377.5> 812 64<242.5 256>
VStem: 40 87<159 276 159 303> 363 85<92 102 102 102>
LayerCount: 2
Fore
SplineSet
463 525 m 2xb6
 483 525 488 517 488 504 c 1xb7
 488 504 448 134 448 107 c 0
 448 66 468 66 484 66 c 0
 496 66 505 71 511 71 c 0
 514 71 517 70 517 64 c 0
 517 63 517 49 513 27 c 0
 508 2 471 -6 453 -6 c 0
 396 -6 363 24 363 92 c 2
 363 102 l 1
 322 24 265 -6 207 -6 c 0
 142 -6 40 36 40 210 c 0
 40 396 136 529 285 529 c 0xd7
 347 529 390 496 412 475 c 1
 422 504 429 525 457 525 c 2
 463 525 l 2xb6
389 367 m 2
 391 385 394 401 397 417 c 1
 378 432 343 456 293 456 c 0
 160 456 127 336 127 216 c 0
 127 102 172 67 226 67 c 0xd6
 270 67 335 104 376 236 c 1
 382 302 389 367 389 367 c 2
422 867 m 0xda
 428 871 433 874 439 874 c 0
 445 874 451 871 456 865 c 0
 462 858 465 851 465 845 c 0
 465 838 461 831 455 825 c 0
 428 800 396 781 359 781 c 0xda
 324 781 306 789 290 797 c 0
 274 805 262 812 250 812 c 0
 230 812 217 802 201 793 c 0
 194 789 188 787 182 787 c 0
 174 787 168 791 163 799 c 0
 158 806 156 813 156 819 c 0
 156 826 159 831 164 835 c 0
 190 856 224 876 261 876 c 0xd6
 296 876 317 864 330 858 c 0
 345 851 358 845 370 845 c 0
 390 845 406 855 422 867 c 0xda
430 715 m 0xd6
 440 715 444 711 444 703 c 0
 444 624 355 585 288 585 c 0
 220 585 154 619 154 688 c 0
 154 705 156 715 171 715 c 0
 188 715 184 706 191 690 c 0
 203 662 246 651 295 651 c 0
 343 651 388 662 406 690 c 0
 416 706 412 715 430 715 c 0xd6
EndSplineSet
EndChar

StartChar: acircumflex
Encoding: 226 226 201
Width: 545
Flags: MW
HStem: -6 73<199 236> 456 73<226.5 316 210.5 318> 504 21 576 142<176 308 183 308 283 376 283 378>
VStem: 40 87<159 276 159 303> 363 85<92 102 102 102>
LayerCount: 2
Fore
SplineSet
308 718 m 2xd8
 327 718 344 711 352 696 c 2
 399 608 l 2
 403 602 404 596 404 591 c 0
 403 582 394 576 378 576 c 2
 376 576 l 2
 363 576 353 580 344 589 c 1
 289 663 l 1
 220 589 l 1
 209 580 199 576 185 576 c 2
 183 576 l 2
 169 576 162 580 162 588 c 0
 162 594 164 600 169 608 c 2
 235 696 l 2
 246 711 263 718 283 718 c 2
 308 718 l 2xd8
463 525 m 2xb8
 483 525 488 517 488 504 c 1xbc
 488 504 448 134 448 107 c 0
 448 66 468 66 484 66 c 0
 496 66 505 71 511 71 c 0
 514 71 517 70 517 64 c 0
 517 63 517 49 513 27 c 0
 508 2 471 -6 453 -6 c 0
 396 -6 363 24 363 92 c 2
 363 102 l 1
 322 24 265 -6 207 -6 c 0
 142 -6 40 36 40 210 c 0
 40 396 136 529 285 529 c 0xdc
 347 529 390 496 412 475 c 1
 422 504 429 525 457 525 c 2
 463 525 l 2xb8
389 367 m 2
 391 385 394 401 397 417 c 1
 378 432 343 456 293 456 c 0
 160 456 127 336 127 216 c 0
 127 102 172 67 226 67 c 0xd8
 270 67 335 104 376 236 c 1
 382 302 389 367 389 367 c 2
EndSplineSet
EndChar

StartChar: acircumflexacute
Encoding: 7845 7845 202
Width: 545
Flags: MW
HStem: -6 73<199 236> 456 73<226.5 316 210.5 318> 504 21
VStem: 40 87<159 276 159 303> 363 85<92 102 102 102>
LayerCount: 2
Fore
SplineSet
463 525 m 2xb0
 483 525 488 517 488 504 c 1xb8
 488 504 448 134 448 107 c 0
 448 66 468 66 484 66 c 0
 496 66 505 71 511 71 c 0
 514 71 517 70 517 64 c 0
 517 63 517 49 513 27 c 0
 508 2 471 -6 453 -6 c 0
 396 -6 363 24 363 92 c 2
 363 102 l 1
 322 24 265 -6 207 -6 c 0
 142 -6 40 36 40 210 c 0
 40 396 136 529 285 529 c 0xd8
 347 529 390 496 412 475 c 1
 422 504 429 525 457 525 c 2
 463 525 l 2xb0
389 367 m 2
 391 385 394 401 397 417 c 1
 378 432 343 456 293 456 c 0
 160 456 127 336 127 216 c 0
 127 102 172 67 226 67 c 0xd0
 270 67 335 104 376 236 c 1
 382 302 389 367 389 367 c 2
526 861 m 0
 557 861 573 858 573 849 c 0
 573 838 562 829 467 732 c 0
 455 720 434 714 414 714 c 0
 399 714 392 717 392 723 c 0
 392 732 404 752 461 835 c 0
 474 854 494 861 526 861 c 0
316 718 m 2
 331 718 343 711 350 696 c 2
 392 608 l 1
 396 602 397 596 397 591 c 0
 396 582 387 576 371 576 c 2
 369 576 l 2
 356 576 343 578 337 589 c 2
 297 663 l 1
 228 589 l 1
 217 580 207 576 193 576 c 2
 191 576 l 2
 177 576 170 580 170 588 c 0
 170 594 172 600 177 608 c 2
 243 696 l 2
 254 711 271 718 291 718 c 2
 316 718 l 2
EndSplineSet
EndChar

StartChar: acircumflexdotbelow
Encoding: 7853 7853 203
Width: 545
Flags: MW
HStem: -175 95<207 225> -6 73<199 236> 456 73<226.5 316 210.5 318> 504 21 576 142<176 308 183 308 283 376 283 378>
VStem: 40 87<159 276 159 303> 172 89<-160 -95> 363 85<92 102 102 102>
LayerCount: 2
Fore
SplineSet
463 525 m 2x54
 483 525 488 517 488 504 c 1x55
 488 504 448 134 448 107 c 0
 448 66 468 66 484 66 c 0
 496 66 505 71 511 71 c 0
 514 71 517 70 517 64 c 0
 517 63 517 49 513 27 c 0
 508 2 471 -6 453 -6 c 0
 396 -6 363 24 363 92 c 2
 363 102 l 1
 322 24 265 -6 207 -6 c 0
 142 -6 40 36 40 210 c 0
 40 396 136 529 285 529 c 0x65
 347 529 390 496 412 475 c 1
 422 504 429 525 457 525 c 2
 463 525 l 2x54
389 367 m 2
 391 385 394 401 397 417 c 1
 378 432 343 456 293 456 c 0
 160 456 127 336 127 216 c 0
 127 102 172 67 226 67 c 0x64
 270 67 335 104 376 236 c 1
 382 302 389 367 389 367 c 2
308 718 m 2xee
 327 718 344 711 352 696 c 2
 399 608 l 2
 403 602 404 596 404 591 c 0
 403 582 394 576 378 576 c 2
 376 576 l 2
 363 576 353 580 344 589 c 1
 289 663 l 1
 220 589 l 1
 209 580 199 576 185 576 c 2
 183 576 l 2
 169 576 162 580 162 588 c 0
 162 594 164 600 169 608 c 2
 235 696 l 2
 246 711 263 718 283 718 c 2
 308 718 l 2xee
177 -102 m 2
 179 -89 191 -80 223 -80 c 0
 252 -80 261 -88 261 -102 c 1
 256 -153 l 2
 254 -166 240 -175 210 -175 c 0
 180 -175 172 -167 172 -153 c 1
 177 -102 l 2
EndSplineSet
EndChar

StartChar: acircumflexgrave
Encoding: 7847 7847 204
Width: 545
Flags: MW
HStem: -6 73<199 236> 456 73<226.5 316 210.5 318> 504 21
VStem: 40 87<159 276 159 303> 363 85<92 102 102 102>
LayerCount: 2
Fore
SplineSet
463 525 m 2xb0
 483 525 488 517 488 504 c 1xb8
 488 504 448 134 448 107 c 0
 448 66 468 66 484 66 c 0
 496 66 505 71 511 71 c 0
 514 71 517 70 517 64 c 0
 517 63 517 49 513 27 c 0
 508 2 471 -6 453 -6 c 0
 396 -6 363 24 363 92 c 2
 363 102 l 1
 322 24 265 -6 207 -6 c 0
 142 -6 40 36 40 210 c 0
 40 396 136 529 285 529 c 0xd8
 347 529 390 496 412 475 c 1
 422 504 429 525 457 525 c 2
 463 525 l 2xb0
389 367 m 2
 391 385 394 401 397 417 c 1
 378 432 343 456 293 456 c 0
 160 456 127 336 127 216 c 0
 127 102 172 67 226 67 c 0xd0
 270 67 335 104 376 236 c 1
 382 302 389 367 389 367 c 2
359 861 m 0
 391 861 410 854 421 835 c 0
 470 751 479 732 479 723 c 0
 479 717 471 714 456 714 c 0
 436 714 415 720 405 732 c 0
 320 829 311 837 311 849 c 1
 312 858 328 861 359 861 c 0
316 718 m 2
 331 718 343 711 350 696 c 2
 392 608 l 1
 396 602 397 596 397 591 c 0
 396 582 387 576 371 576 c 2
 369 576 l 2
 356 576 343 578 337 589 c 2
 297 663 l 1
 228 589 l 1
 217 580 207 576 193 576 c 2
 191 576 l 2
 177 576 170 580 170 588 c 0
 170 594 172 600 177 608 c 2
 243 696 l 2
 254 711 271 718 291 718 c 2
 316 718 l 2
EndSplineSet
EndChar

StartChar: acircumflexhookabove
Encoding: 7849 7849 205
Width: 545
Flags: MW
HStem: -6 73<199 236> 456 73<226.5 316 210.5 318> 504 21 828 51<435.5 450>
VStem: 40 87<159 276 159 303> 363 85<92 102 102 102> 474 66<777 811>
LayerCount: 2
Fore
SplineSet
463 525 m 2xba
 483 525 488 517 488 504 c 1xbe
 488 504 448 134 448 107 c 0
 448 66 468 66 484 66 c 0
 496 66 505 71 511 71 c 0
 514 71 517 70 517 64 c 0
 517 63 517 49 513 27 c 0
 508 2 471 -6 453 -6 c 0
 396 -6 363 24 363 92 c 2
 363 102 l 1
 322 24 265 -6 207 -6 c 0
 142 -6 40 36 40 210 c 0
 40 396 136 529 285 529 c 0xde
 347 529 390 496 412 475 c 1
 422 504 429 525 457 525 c 2
 463 525 l 2xba
389 367 m 2
 391 385 394 401 397 417 c 1
 378 432 343 456 293 456 c 0
 160 456 127 336 127 216 c 0
 127 102 172 67 226 67 c 0xda
 270 67 335 104 376 236 c 1
 382 302 389 367 389 367 c 2
474 803 m 0xda
 474 819 460 828 440 828 c 0
 409 828 397 815 392 815 c 0
 384 815 372 838 372 848 c 0
 372 861 418 879 453 879 c 0
 487 879 540 863 540 809 c 0
 540 739 451 692 441 692 c 0
 420 692 402 700 402 709 c 0
 402 736 474 751 474 803 c 0xda
316 718 m 2
 331 718 343 711 350 696 c 2
 392 608 l 1
 396 602 397 596 397 591 c 0
 396 582 387 576 371 576 c 2
 369 576 l 2
 356 576 343 578 337 589 c 2
 297 663 l 1
 228 589 l 1
 217 580 207 576 193 576 c 2
 191 576 l 2
 177 576 170 580 170 588 c 0
 170 594 172 600 177 608 c 2
 243 696 l 2
 254 711 271 718 291 718 c 2
 316 718 l 2
EndSplineSet
EndChar

StartChar: acircumflextilde
Encoding: 7851 7851 206
Width: 545
Flags: MW
HStem: -6 73<199 236> 456 73<226.5 316 210.5 318> 504 21 775 64<370 383.5> 806 64<248.5 262>
VStem: 40 87<159 276 159 303> 363 85<92 102 102 102>
LayerCount: 2
Fore
SplineSet
463 525 m 2xa4
 483 525 488 517 488 504 c 1xa6
 488 504 448 134 448 107 c 0
 448 66 468 66 484 66 c 0
 496 66 505 71 511 71 c 0
 514 71 517 70 517 64 c 0
 517 63 517 49 513 27 c 0
 508 2 471 -6 453 -6 c 0
 396 -6 363 24 363 92 c 2
 363 102 l 1
 322 24 265 -6 207 -6 c 0
 142 -6 40 36 40 210 c 0
 40 396 136 529 285 529 c 0xc6
 347 529 390 496 412 475 c 1
 422 504 429 525 457 525 c 2
 463 525 l 2xa4
389 367 m 2
 391 385 394 401 397 417 c 1
 378 432 343 456 293 456 c 0
 160 456 127 336 127 216 c 0
 127 102 172 67 226 67 c 0xc4
 270 67 335 104 376 236 c 1
 382 302 389 367 389 367 c 2
428 861 m 0xd4
 434 865 439 868 445 868 c 0
 451 868 457 865 462 859 c 0
 468 852 471 845 471 839 c 0
 471 832 467 825 461 819 c 0
 434 794 402 775 365 775 c 0xd4
 330 775 312 783 296 791 c 0
 280 799 268 806 256 806 c 0
 236 806 223 796 207 787 c 0
 200 783 194 781 188 781 c 0
 180 781 174 785 169 793 c 0
 164 800 162 807 162 813 c 0
 162 820 165 825 170 829 c 0
 196 850 230 870 267 870 c 0xcc
 302 870 323 858 336 852 c 0
 351 845 364 839 376 839 c 0
 396 839 412 849 428 861 c 0xd4
308 718 m 2
 327 718 344 711 352 696 c 2
 399 608 l 2
 403 602 404 596 404 591 c 0
 403 582 394 576 378 576 c 2
 376 576 l 2
 363 576 353 580 344 589 c 1
 289 663 l 1
 220 589 l 1
 209 580 199 576 185 576 c 2
 183 576 l 2
 169 576 162 580 162 588 c 0
 162 594 164 600 169 608 c 2
 235 696 l 2
 246 711 263 718 283 718 c 2
 308 718 l 2
EndSplineSet
EndChar

StartChar: adieresis
Encoding: 228 228 207
Width: 545
Flags: MW
HStem: -6 73<199 236> 456 73<226.5 316 210.5 318> 504 21 607 95<212 230 356 374>
VStem: 40 87<159 276 159 303> 177 89<622 687> 321 89<622 687> 363 85<92 102 102 102>
LayerCount: 2
Fore
SplineSet
463 525 m 2xb8
 483 525 488 517 488 504 c 1xb9
 488 504 448 134 448 107 c 0
 448 66 468 66 484 66 c 0
 496 66 505 71 511 71 c 0
 514 71 517 70 517 64 c 0
 517 63 517 49 513 27 c 0
 508 2 471 -6 453 -6 c 0
 396 -6 363 24 363 92 c 2
 363 102 l 1
 322 24 265 -6 207 -6 c 0
 142 -6 40 36 40 210 c 0
 40 396 136 529 285 529 c 0xd9
 347 529 390 496 412 475 c 1
 422 504 429 525 457 525 c 2
 463 525 l 2xb8
389 367 m 2
 391 385 394 401 397 417 c 1
 378 432 343 456 293 456 c 0
 160 456 127 336 127 216 c 0
 127 102 172 67 226 67 c 0xd8
 270 67 335 104 376 236 c 1
 382 302 389 367 389 367 c 2
182 680 m 2xde
 184 693 196 702 228 702 c 0
 257 702 266 694 266 680 c 1
 261 629 l 2
 259 616 245 607 215 607 c 0
 185 607 177 615 177 629 c 1
 182 680 l 2xde
326 680 m 2
 327 693 340 702 372 702 c 0
 401 702 410 694 410 680 c 1
 405 629 l 2
 403 616 389 607 359 607 c 0
 329 607 321 615 321 629 c 1
 326 680 l 2
EndSplineSet
EndChar

